<svg xmlns="http://www.w3.org/2000/svg">
<defs>
<font id="BebasNeuePro-ExpandedExtraBold" horiz-adv-x="508" >
  <font-face 
    font-family="Bebas Neue Pro Expanded XBold"
    font-weight="800"
    font-stretch="expanded"
    units-per-em="1000"
    panose-1="2 11 7 6 2 2 2 5 2 1"
    ascent="700"
    descent="-300"
    x-height="510"
    cap-height="700"
    bbox="-265 -240 1001 975"
    underline-thickness="80"
    underline-position="-240"
    unicode-range="U+000D-FB02"
  />
<missing-glyph horiz-adv-x="738" 
d="M54 0v700h630v-700h-630zM152 134h434v432h-434v-432zM168 550h114v-112h-114v112zM346 390h-32v16h-16v80h32v32h-32v32h16v-16h32v-16h16v16h-16v16h32v-16h16v16h16v-32h16v-16h-16v-32h-16v-16h-16v48h-32v-16h16v-32h-16v16h-32v-48h16v32h16v-16h16v16h16v-32h-32
v-32zM426 550h16v-32h-16v32zM458 550h112v-112h-112v112zM184 454h82v80h-82v-80zM474 454h80v80h-80v-80zM200 518h50v-48h-50v48zM490 518h48v-48h-48v48zM410 454v-32h-16v32h16zM442 438h-16v16h16v-16zM200 406v-16h17v-16h-33v16h-16v32h49v-16h-17zM282 422v-16h-16
v-16h-32v16h16v16h32zM426 390v-16h-16v48h16v-16h16v-16h-16zM442 390h16v16h-16v16h64v-16h-16v-16h16v16h16v-16h16v-16h-16v-16h-32v16h-32v-16h-16v32zM570 374h-16v16h-16v32h32v-48zM282 406h16v-32h-32v16h16v16zM378 406h16v-16h-16v16zM362 390v-16h-16v16h16z
M217 358v16h17v-16h-17zM266 358h32v-16h-64v16h16v16h16v-16zM314 326v48h16v-48h-16zM410 358h-16v16h16v-16zM168 358h16v-32h-16v32zM410 342h48v16h32v-32h48v-16h-48v-16h16v-32h16v-16h-16v-16h16v-16h32v-16h16v-16h-32v16h-32v-32h-32v-16h-16v16h-16v-16h-16v32
h-16v-32h-32v16h16v16h-16v-16h-32v16h16v32h-16v-16h-16v32h48v16h16v-32h-16v-16h32v48h16v16h-16v16h-16v-16h-16v32h16v16h16v-16h16v16h-16v32zM378 310v-16h-32v16h16v32h-16v16h32v-16h16v-32h-16zM570 310h-16v16h-16v16h16v16h16v-48zM234 294h-17v16h-17v16h17v16
h17v-32h16v-32h-16v16zM298 326v-32h16v-32h-16v16h-32v16h16v16h-32v16h48zM330 326h16v-16h-16v16zM168 310h32v-16h-32v16zM314 310h16v-16h-16v16zM458 310h-16v-16h16v16zM217 278h-17v16h17v-16zM346 278h-16v16h16v-16zM538 294h16v-16h-16v16zM442 230h48v48h-48

<glyph glyph-name="fi" unicode="fi" horiz-adv-x="591" 
d="M403 578v135h135v-135h-135zM95 510v42q0 158 159 158q42 0 74 -13v-114q-22 7 -46 7q-28 0 -40 -13t-12 -43v-24h98v-110h-98v-400h-135v400h-73v110h73zM538 0h-135v510h135v-510z" />
    <glyph glyph-name="fl" unicode="fl" horiz-adv-x="591" 
d="M95 510v42q0 158 159 158q42 0 74 -13v-114q-22 7 -46 7q-28 0 -40 -13t-12 -43v-24h98v-110h-98v-400h-135v400h-73v110h73zM403 0v700h135v-700h-135z" />
    <glyph glyph-name=".notdef" horiz-adv-x="738" 
d="M54 0v700h630v-700h-630zM152 134h434v432h-434v-432zM168 550h114v-112h-114v112zM346 390h-32v16h-16v80h32v32h-32v32h16v-16h32v-16h16v16h-16v16h32v-16h16v16h16v-32h16v-16h-16v-32h-16v-16h-16v48h-32v-16h16v-32h-16v16h-32v-48h16v32h16v-16h16v16h16v-32h-32
v-32zM426 550h16v-32h-16v32zM458 550h112v-112h-112v112zM184 454h82v80h-82v-80zM474 454h80v80h-80v-80zM200 518h50v-48h-50v48zM490 518h48v-48h-48v48zM410 454v-32h-16v32h16zM442 438h-16v16h16v-16zM200 406v-16h17v-16h-33v16h-16v32h49v-16h-17zM282 422v-16h-16
v-16h-32v16h16v16h32zM426 390v-16h-16v48h16v-16h16v-16h-16zM442 390h16v16h-16v16h64v-16h-16v-16h16v16h16v-16h16v-16h-16v-16h-32v16h-32v-16h-16v32zM570 374h-16v16h-16v32h32v-48zM282 406h16v-32h-32v16h16v16zM378 406h16v-16h-16v16zM362 390v-16h-16v16h16z
M217 358v16h17v-16h-17zM266 358h32v-16h-64v16h16v16h16v-16zM314 326v48h16v-48h-16zM410 358h-16v16h16v-16zM168 358h16v-32h-16v32zM410 342h48v16h32v-32h48v-16h-48v-16h16v-32h16v-16h-16v-16h16v-16h32v-16h16v-16h-32v16h-32v-32h-32v-16h-16v16h-16v-16h-16v32
h-16v-32h-32v16h16v16h-16v-16h-32v16h16v32h-16v-16h-16v32h48v16h16v-32h-16v-16h32v48h16v16h-16v16h-16v-16h-16v32h16v16h16v-16h16v16h-16v32zM378 310v-16h-32v16h16v32h-16v16h32v-16h16v-32h-16zM570 310h-16v16h-16v16h16v16h16v-48zM234 294h-17v16h-17v16h17v16
h17v-32h16v-32h-16v16zM298 326v-32h16v-32h-16v16h-32v16h16v16h-32v16h48zM330 326h16v-16h-16v16zM168 310h32v-16h-32v16zM314 310h16v-16h-16v16zM458 310h-16v-16h16v16zM217 278h-17v16h17v-16zM346 278h-16v16h16v-16zM538 294h16v-16h-16v16zM442 230h48v48h-48
v-48zM522 278h16v-16h-16v16zM538 230v16h16v32h16v-64h-16v16h-16zM168 262h114v-112h-114v112zM314 246v16h16v-32h-32v16h16zM362 246h-16v16h16v-16zM458 262h16v-16h-16v16zM184 166h82v80h-82v-80zM200 230h50v-48h-50v48zM426 198h16v16h-16v-16zM458 182h32v32h-32
v-32zM298 198h32v-32h16v-16h-48v48zM522 166v-16h-16v16h16zM570 150h-16v16h16v-16z" />
    <glyph glyph-name=".null" horiz-adv-x="0" 
 />
    <glyph glyph-name="nonmarkingreturn" horiz-adv-x="333" 
 />
    <glyph glyph-name="CR" unicode="&#xd;" horiz-adv-x="180" 
 />
    <glyph glyph-name="space" unicode=" " horiz-adv-x="180" 
 />
    <glyph glyph-name="exclam" unicode="!" horiz-adv-x="268" 
d="M186 194h-104l-18 248v258h140v-258zM204 0h-140v119h140v-119z" />
    <glyph glyph-name="quotedbl" unicode="&#x22;" horiz-adv-x="412" 
d="M149 413h-75l-33 287h142zM337 413h-75l-33 287h142z" />
    <glyph glyph-name="numbersign" unicode="#" 
d="M158 0h-102l28 195h-63l8 89h64l24 173h-65l9 88h65l22 155h100l-20 -155h94l20 155h100l-20 -155h65l-10 -88h-64l-24 -173h65l-10 -89h-64l-27 -195h-100l25 195h-94zM217 457l-24 -173h96l22 173h-94z" />
    <glyph glyph-name="dollar" unicode="$" 
d="M311 17v-72h-114v71q-73 15 -112 65.5t-39 126.5v28h132v-38q0 -32 19 -49t53 -17q73 0 73 68q0 39 -24 60q-22 21 -96 47q-153 53 -153 188q0 75 38 124t109 64v62h114v-60q74 -13 112 -62t38 -128h-132v7q0 67 -70 67t-70 -65q0 -32 27 -56t93 -47q84 -29 118.5 -73
t34.5 -118t-39.5 -125.5t-111.5 -67.5z" />
    <glyph glyph-name="percent" unicode="%" horiz-adv-x="715" 
d="M162 312q-65 0 -99.5 33.5t-34.5 95.5v140q0 62 34.5 95.5t99.5 33.5q66 0 100.5 -33.5t34.5 -95.5v-140q0 -62 -34.5 -95.5t-100.5 -33.5zM230 0h-89l344 700h89zM162 387q46 0 46 48v152q0 48 -46 48q-45 0 -45 -48v-152q0 -48 45 -48zM552 -10q-65 0 -99.5 33.5
t-34.5 95.5v140q0 62 34.5 95.5t99.5 33.5q66 0 100.5 -33.5t34.5 -95.5v-140q0 -62 -34.5 -95.5t-100.5 -33.5zM552 65q46 0 46 48v152q0 48 -46 48q-45 0 -45 -48v-152q0 -48 45 -48z" />
    <glyph glyph-name="ampersand" unicode="&#x26;" horiz-adv-x="528" 
d="M499 414v-117h-39v-140q0 -101 18 -157h-125q-8 4 -13 66q-43 -76 -144 -76q-156 0 -156 170v37q0 129 103 163v3q-100 31 -100 140v19q0 90 54 139t155 49q102 0 155 -51t53 -148v-8h-130v23q0 68 -73 68q-76 0 -76 -74v-23q0 -83 93 -83h225zM325 185v112h-55
q-50 0 -72.5 -21.5t-22.5 -67.5v-32q0 -34 18 -52t51 -18q81 0 81 79z" />
    <glyph glyph-name="quotesingle" unicode="'" horiz-adv-x="224" 
d="M149 413h-75l-33 287h142z" />
    <glyph glyph-name="parenleft" unicode="(" horiz-adv-x="345" 
d="M298 -100h-40q-104 0 -148 43.5t-44 147.5v419q0 103 44 146.5t148 43.5h40v-104h-33q-39 0 -55.5 -19.5t-16.5 -66.5v-419q0 -47 16.5 -67t55.5 -20h33v-104z" />
    <glyph glyph-name="parenright" unicode=")" horiz-adv-x="345" 
d="M87 -100h-40v104h33q39 0 55.5 20t16.5 67v419q0 47 -16.5 66.5t-55.5 19.5h-33v104h40q104 0 148 -43.5t44 -146.5v-419q0 -104 -44 -147.5t-148 -43.5z" />
    <glyph glyph-name="asterisk" unicode="*" horiz-adv-x="469" 
d="M235 444l-80 -144l-83 62l114 115l-161 34l33 98l147 -76l-22 167h103l-22 -167l147 76l33 -98l-161 -34l114 -115l-83 -62z" />
    <glyph glyph-name="plus" unicode="+" 
d="M304 82h-100v170h-170v99h170v170h100v-170h170v-99h-170v-170z" />
    <glyph glyph-name="comma" unicode="," horiz-adv-x="256" 
d="M118 -120h-65l53 120h-48v140h140v-126z" />
    <glyph glyph-name="hyphen" unicode="-" horiz-adv-x="340" 
d="M310 243h-280v114h280v-114z" />
    <glyph glyph-name="period" unicode="." horiz-adv-x="256" 
d="M198 0h-140v140h140v-140z" />
    <glyph glyph-name="slash" unicode="/" horiz-adv-x="499" 
d="M135 -100h-121l351 800h120z" />
    <glyph glyph-name="zero" unicode="0" 
d="M42 192v316q0 96 55 149t157 53t157 -53t55 -149v-316q0 -96 -55 -149t-157 -53t-157 53t-55 149zM326 187v326q0 75 -72 75t-72 -75v-326q0 -75 72 -75t72 75z" />
    <glyph glyph-name="one" unicode="1" horiz-adv-x="363" 
d="M308 0h-140v518h-146v98q94 0 130 16q39 17 61 68h95v-700z" />
    <glyph glyph-name="two" unicode="2" horiz-adv-x="481" 
d="M437 0h-403v92q0 69 32 127q31 56 117 124q77 60 102 92q27 35 27 80q0 35 -19 54t-53 19q-72 0 -72 -79v-56h-132v57q0 94 54 147t154 53q98 0 153 -51.5t55 -138.5q0 -72 -42 -130q-41 -58 -147 -143q-54 -44 -72.5 -69t-18.5 -51v-5h265v-122z" />
    <glyph glyph-name="three" unicode="3" horiz-adv-x="479" 
d="M29 187v41h132v-40q0 -76 72 -76q37 0 55 18.5t18 60.5v16q0 52 -21 74t-71 22h-47v122h51q43 0 63.5 19t20.5 63v12q0 33 -18.5 51t-51.5 18q-67 0 -67 -65v-28h-132v16q0 97 53 148t153 51q98 0 150.5 -49t52.5 -138v-12q0 -47 -25.5 -84.5t-73.5 -54.5v-2
q102 -34 102 -163v-16q0 -201 -208 -201t-208 197z" />
    <glyph glyph-name="four" unicode="4" horiz-adv-x="519" 
d="M431 0h-140v116h-267v121l254 463h153v-462h65v-122h-65v-116zM291 496l-140 -258h140v258z" />
    <glyph glyph-name="five" unicode="5" horiz-adv-x="492" 
d="M249 -10q-103 0 -156 51t-53 149v42h132v-45q0 -75 73 -75q72 0 72 75v109q0 77 -68 77q-71 0 -77 -74h-132l26 401h368v-122h-244l-11 -137q41 54 123 54q155 0 155 -183v-122q0 -97 -53 -148.5t-155 -51.5z" />
    <glyph glyph-name="six" unicode="6" horiz-adv-x="503" 
d="M43 192v309q0 209 213 209q99 0 153.5 -51.5t54.5 -141.5h-132q0 71 -72 71q-40 0 -58.5 -21.5t-18.5 -71.5v-98q42 64 129 64q155 0 155 -182v-87q0 -96 -55 -149t-157 -53t-157 53t-55 149zM327 185v77q0 77 -72 77t-72 -74v-80q0 -73 72 -73t72 73z" />
    <glyph glyph-name="seven" unicode="7" horiz-adv-x="465" 
d="M225 0h-150l225 578h-278v122h419v-116z" />
    <glyph glyph-name="eight" unicode="8" horiz-adv-x="502" 
d="M33 191v14q0 127 97 163v2q-42 17 -66.5 55t-24.5 84v14q0 91 53 139t159 48t159 -48t53 -139v-14q0 -46 -24.5 -84t-66.5 -55v-2q97 -36 97 -163v-14q0 -201 -218 -201t-218 201zM326 500v12q0 76 -75 76t-75 -76v-12q0 -75 75 -75t75 75zM330 201v16q0 86 -79 86
t-79 -86v-16q0 -49 18 -69t61 -20t61 20t18 69z" />
    <glyph glyph-name="nine" unicode="9" horiz-adv-x="502" 
d="M460 506v-309q0 -209 -213 -209q-99 0 -153.5 51.5t-54.5 141.5h132q0 -71 72 -71q40 0 58.5 21.5t18.5 71.5v98q-42 -64 -129 -64q-155 0 -155 182v87q0 96 55 149t157 53t157 -53t55 -149zM176 513v-77q0 -77 72 -77t72 74v80q0 73 -72 73t-72 -73z" />
    <glyph glyph-name="colon" unicode=":" horiz-adv-x="256" 
d="M198 370h-140v140h140v-140zM198 0h-140v140h140v-140z" />
    <glyph glyph-name="semicolon" unicode=";" horiz-adv-x="256" 
d="M198 370h-140v140h140v-140zM118 -120h-65l53 120h-48v140h140v-126z" />
    <glyph glyph-name="less" unicode="&#x3c;" 
d="M444 187v-102l-389 168v94l389 168v-102l-268 -113z" />
    <glyph glyph-name="equal" unicode="=" 
d="M461 353h-414v100h414v-100zM461 147h-414v100h414v-100z" />
    <glyph glyph-name="greater" unicode="&#x3e;" 
d="M453 253l-389 -168v102l268 113l-268 113v102l389 -168v-94z" />
    <glyph glyph-name="question" unicode="?" horiz-adv-x="465" 
d="M273 194h-122v23q0 46 14.5 82.5t54.5 78.5q79 80 79 144q0 66 -68 66q-38 0 -55 -20.5t-17 -68.5v-47h-132v53q0 105 50.5 155t153.5 50q101 0 154 -46t53 -133q0 -104 -92 -196q-43 -41 -58 -69.5t-15 -61.5v-10zM282 0h-140v119h140v-119z" />
    <glyph glyph-name="at" unicode="@" horiz-adv-x="776" 
d="M467 495h112l-32 -262l-1 -14q0 -17 24 -17q34 0 56 61q22 60 22 156q0 90 -62 142t-170 52q-136 0 -204 -91t-68 -260q0 -255 278 -255q112 0 198 59l-9 -109q-83 -47 -191 -47q-185 0 -285 92.5t-100 267.5q0 201 97 320q97 120 281 120q158 0 244 -76t86 -218
q0 -145 -54 -232q-53 -86 -143 -86q-84 0 -101 65q-17 -31 -46 -48t-63 -17q-113 0 -113 116q0 5 2 31l15 126q16 135 125 135q66 0 98 -47zM379 196q51 0 62 65l8 72q1 6 1 21q0 26 -13.5 40.5t-37.5 14.5q-44 0 -50 -52l-13 -107q-1 -5 -1 -14q0 -40 44 -40z" />
    <glyph glyph-name="A" unicode="A" horiz-adv-x="519" 
d="M499 0h-143l-23 127h-157l-23 -127h-133l145 700h189zM254 560l-56 -313h113z" />
    <glyph glyph-name="B" unicode="B" horiz-adv-x="519" 
d="M279 0h-224v700h211q105 0 156 -43t51 -132v-13q0 -108 -90 -139v-3q104 -35 104 -165v-12q0 -98 -51 -145.5t-157 -47.5zM195 578v-157h54q84 0 84 74v13q0 37 -17 53.5t-54 16.5h-67zM195 299v-177h84q36 0 52 16.5t16 54.5v19q0 49 -19.5 68t-70.5 19h-62z" />
    <glyph glyph-name="C" unicode="C" horiz-adv-x="489" 
d="M44 192v316q0 97 53.5 149.5t152.5 52.5t152 -52t53 -150v-51h-132v56q0 79 -70 79q-33 0 -51 -20.5t-18 -58.5v-326q0 -38 18 -58.5t51 -20.5q70 0 70 79v76h132v-71q0 -98 -53 -150t-152 -52t-152.5 52.5t-53.5 149.5z" />
    <glyph glyph-name="D" unicode="D" horiz-adv-x="520" 
d="M268 0h-213v700h213q102 0 155.5 -50.5t53.5 -147.5v-304q0 -97 -53.5 -147.5t-155.5 -50.5zM195 578v-456h71q37 0 54 17.5t17 56.5v308q0 39 -17 56.5t-54 17.5h-71z" />
    <glyph glyph-name="E" unicode="E" horiz-adv-x="467" 
d="M436 0h-381v700h381v-122h-241v-162h192v-122h-192v-172h241v-122z" />
    <glyph glyph-name="F" unicode="F" horiz-adv-x="448" 
d="M195 0h-140v700h370v-122h-230v-167h180v-122h-180v-289z" />
    <glyph glyph-name="G" unicode="G" horiz-adv-x="502" 
d="M44 190v318q0 95 55 148.5t153 53.5t153 -53.5t55 -148.5v-40h-132v45q0 75 -72 75t-72 -75v-326q0 -75 72 -75t72 75v86h-69v127h201v-210q0 -94 -55 -147t-153 -53t-153 53t-55 147z" />
    <glyph glyph-name="H" unicode="H" horiz-adv-x="540" 
d="M195 0h-140v700h140v-284h150v284h140v-700h-140v294h-150v-294z" />
    <glyph glyph-name="I" unicode="I" horiz-adv-x="250" 
d="M195 0h-140v700h140v-700z" />
    <glyph glyph-name="J" unicode="J" horiz-adv-x="341" 
d="M82 -5q-35 0 -59 4v123q22 -5 43 -5q45 0 65 17t20 55v511h140v-507q0 -103 -50 -150.5t-159 -47.5z" />
    <glyph glyph-name="K" unicode="K" horiz-adv-x="534" 
d="M515 0h-150l-113 305l-57 -89v-216h-140v700h140v-285l175 285h142l-164 -260z" />
    <glyph glyph-name="L" unicode="L" horiz-adv-x="448" 
d="M425 0h-370v700h140v-578h230v-122z" />
    <glyph glyph-name="M" unicode="M" horiz-adv-x="689" 
d="M177 0h-122v700h197l93 -488l92 488h197v-700h-132v521l-104 -521h-117l-104 521v-521z" />
    <glyph glyph-name="N" unicode="N" horiz-adv-x="548" 
d="M180 0h-125v700h173l140 -405v405h125v-700h-141l-172 498v-498z" />
    <glyph glyph-name="O" unicode="O" horiz-adv-x="512" 
d="M44 192v316q0 96 55 149t157 53t157 -53t55 -149v-316q0 -96 -55 -149t-157 -53t-157 53t-55 149zM328 187v326q0 75 -72 75t-72 -75v-326q0 -75 72 -75t72 75z" />
    <glyph glyph-name="P" unicode="P" horiz-adv-x="497" 
d="M195 0h-140v700h206q106 0 157 -47.5t51 -145.5v-42q0 -99 -51 -146.5t-157 -47.5h-66v-271zM195 578v-185h66q36 0 52 17t16 55v42q0 38 -16 54.5t-52 16.5h-66z" />
    <glyph glyph-name="Q" unicode="Q" horiz-adv-x="512" 
d="M479 39h21v-122h-36q-98 0 -117 87q-42 -14 -91 -14q-102 0 -157 53t-55 149v316q0 96 55 149t157 53t157 -53t55 -149v-316q0 -82 -39 -131q12 -22 50 -22zM328 187v326q0 75 -72 75t-72 -75v-326q0 -75 72 -75t72 75z" />
    <glyph glyph-name="R" unicode="R" horiz-adv-x="518" 
d="M195 0h-140v700h207q105 0 156 -43.5t51 -134.5v-27q0 -110 -91 -144v-3q48 -13 70 -53.5t22 -115.5v-82q0 -64 16 -97h-143q-12 28 -12 98v91q0 50 -19.5 70.5t-68.5 20.5h-48v-280zM195 578v-176h51q43 0 63 18.5t20 59.5v27q0 71 -68 71h-66z" />
    <glyph glyph-name="S" unicode="S" horiz-adv-x="481" 
d="M238 -10q-99 0 -152.5 51t-53.5 141v31h132v-31q0 -35 18.5 -54.5t53.5 -19.5q33 0 53 19.5t20 54.5q0 44 -22 63q-22 20 -97 58q-88 42 -122 91q-33 49 -33 125q0 88 54.5 139.5t152.5 51.5t150 -51t52 -142v-20h-132v19q0 76 -69 76q-32 0 -50 -19t-18 -52
q0 -39 23 -59t98 -56q89 -42 121 -92t32 -129q0 -91 -55.5 -143t-155.5 -52z" />
    <glyph glyph-name="T" unicode="T" horiz-adv-x="478" 
d="M309 0h-140v578h-146v122h432v-122h-146v-578z" />
    <glyph glyph-name="U" unicode="U" horiz-adv-x="517" 
d="M50 192v508h140v-516q0 -72 71 -72t71 72v516h135v-508q0 -97 -54 -149.5t-155 -52.5t-154.5 52.5t-53.5 149.5z" />
    <glyph glyph-name="V" unicode="V" horiz-adv-x="498" 
d="M341 1h-184l-136 699h143l90 -538l90 538h133z" />
    <glyph glyph-name="W" unicode="W" horiz-adv-x="716" 
d="M299 0h-184l-91 700h134l64 -528l71 528h144l72 -528l64 528h120l-91 -700h-173l-65 472z" />
    <glyph glyph-name="X" unicode="X" horiz-adv-x="521" 
d="M154 0h-135l162 359l-155 341h151l90 -220l93 220h135l-155 -341l162 -359h-150l-98 239z" />
    <glyph glyph-name="Y" unicode="Y" horiz-adv-x="512" 
d="M326 0h-140v289l-169 411h151l94 -249l95 249h138l-169 -411v-289z" />
    <glyph glyph-name="Z" unicode="Z" horiz-adv-x="472" 
d="M440 0h-411v119l258 459h-246v122h399v-119l-259 -459h259v-122z" />
    <glyph glyph-name="bracketleft" unicode="[" horiz-adv-x="345" 
d="M299 -100h-227v800h227v-104h-100v-592h100v-104z" />
    <glyph glyph-name="backslash" unicode="\" horiz-adv-x="499" 
d="M485 -100h-120l-351 800h121z" />
    <glyph glyph-name="bracketright" unicode="]" horiz-adv-x="345" 
d="M273 700v-800h-227v104h100v592h-100v104h227z" />
    <glyph glyph-name="asciicircum" unicode="^" 
d="M138 357h-113l182 343h94l182 -343h-113l-116 220z" />
    <glyph glyph-name="underscore" unicode="_" horiz-adv-x="400" 
d="M400 -122h-400v89h400v-89z" />
    <glyph glyph-name="grave" unicode="`" horiz-adv-x="635" 
d="M394 578h-111l-136 135h158z" />
    <glyph glyph-name="a" unicode="a" horiz-adv-x="474" 
d="M424 323v-166q0 -106 16 -157h-125q-9 3 -12 88q-29 -98 -135 -98q-65 0 -103 36t-38 99q0 64 34.5 103.5t114.5 59.5q72 16 92 29q21 13 21 35q0 31 -12.5 44.5t-42.5 13.5q-32 0 -45.5 -16t-13.5 -51h-127q0 85 48 131t140 46q100 0 144 -48t44 -149zM215 100
q34 0 54 23t20 69v39q-21 -14 -67 -27q-60 -16 -60 -57q0 -47 53 -47z" />
    <glyph glyph-name="b" unicode="b" horiz-adv-x="492" 
d="M310 520q68 0 104 -43t36 -127v-190q0 -84 -36 -127t-104 -43q-106 0 -136 99l-23 -89h-98v700h135v-245q38 65 122 65zM315 182v146q0 41 -13.5 58.5t-45.5 17.5q-68 0 -68 -90v-118q0 -90 68 -90q32 0 45.5 17.5t13.5 58.5z" />
    <glyph glyph-name="c" unicode="c" horiz-adv-x="461" 
d="M39 178v154q0 91 51 139.5t146 48.5q93 0 142.5 -49.5t49.5 -138.5v-16h-130v26q0 62 -62 62q-30 0 -46 -16.5t-16 -45.5v-174q0 -29 16 -45.5t46 -16.5q62 0 62 62v37h130v-27q0 -89 -49.5 -138.5t-142.5 -49.5q-94 0 -145.5 49t-51.5 139z" />
    <glyph glyph-name="d" unicode="d" horiz-adv-x="494" 
d="M439 700v-543q0 -106 16 -157h-125q-9 3 -12 89q-30 -99 -136 -99q-68 0 -104 43t-36 127v190q0 84 36 127t104 43q84 0 122 -65v245h135zM236 106q68 0 68 90v118q0 90 -68 90q-32 0 -45.5 -17.5t-13.5 -58.5v-146q0 -41 13.5 -58.5t45.5 -17.5z" />
    <glyph glyph-name="e" unicode="e" horiz-adv-x="475" 
d="M239 520q96 0 147.5 -48.5t51.5 -139.5v-110h-264v-59q0 -62 68 -62q67 0 67 67h129q0 -82 -53 -130t-146 -48q-97 0 -148.5 49t-51.5 139v154q0 91 51.5 139.5t148.5 48.5zM174 349v-32h132v32q0 61 -66 61t-66 -61z" />
    <glyph glyph-name="f" unicode="f" horiz-adv-x="350" 
d="M282 590q-28 0 -40 -13t-12 -43v-24h98v-110h-98v-400h-135v400h-73v110h73v42q0 158 159 158q42 0 74 -13v-114q-22 7 -46 7z" />
    <glyph glyph-name="g" unicode="g" horiz-adv-x="489" 
d="M316 420l3 90h117v-492q0 -91 -46.5 -137t-153.5 -46q-184 0 -193 146h130q5 -36 61 -36q37 0 52 16.5t15 56.5v75q-38 -65 -122 -65q-68 0 -104 43t-36 127v152q0 84 36 127t104 43q107 0 137 -100zM233 144q68 0 68 90v80q0 90 -68 90q-32 0 -45.5 -17.5t-13.5 -58.5
v-108q0 -41 13.5 -58.5t45.5 -17.5z" />
    <glyph glyph-name="h" unicode="h" horiz-adv-x="495" 
d="M308 520q139 0 139 -170v-350h-135v328q0 42 -13 59t-45 17q-66 0 -66 -90v-314h-135v700h135v-244q37 64 120 64z" />
    <glyph glyph-name="i" unicode="i" horiz-adv-x="241" 
d="M188 578h-135v135h135v-135zM188 0h-135v510h135v-510z" />
    <glyph glyph-name="j" unicode="j" horiz-adv-x="241" 
d="M188 578h-135v135h135v-135zM49 -165q-41 0 -67 13v109q16 -6 38 -6q33 0 33 35v524h135v-534q0 -141 -139 -141z" />
    <glyph glyph-name="k" unicode="k" horiz-adv-x="506" 
d="M489 0h-149l-98 211l-54 -70v-141h-135v700h135v-388l141 198h152l-146 -188z" />
    <glyph glyph-name="l" unicode="l" horiz-adv-x="241" 
d="M188 0h-135v700h135v-700z" />
    <glyph glyph-name="m" unicode="m" horiz-adv-x="748" 
d="M562 520q138 0 138 -170v-350h-135v328q0 40 -12.5 58t-44.5 18q-64 0 -64 -90v-314h-135v328q0 40 -12.5 58t-43.5 18q-65 0 -65 -90v-314h-135v510h117l3 -89q28 99 134 99q97 0 126 -89q32 89 129 89z" />
    <glyph glyph-name="n" unicode="n" horiz-adv-x="495" 
d="M308 520q139 0 139 -170v-350h-135v328q0 42 -13 59t-45 17q-66 0 -66 -90v-314h-135v510h117l3 -90q30 100 135 100z" />
    <glyph glyph-name="o" unicode="o" horiz-adv-x="474" 
d="M39 178v154q0 91 51.5 139.5t146.5 48.5t146.5 -48.5t51.5 -139.5v-154q0 -91 -51.5 -139.5t-146.5 -48.5t-146.5 48.5t-51.5 139.5zM300 168v174q0 62 -63 62t-63 -62v-174q0 -62 63 -62t63 62z" />
    <glyph glyph-name="p" unicode="p" horiz-adv-x="492" 
d="M310 520q68 0 104 -43t36 -127v-190q0 -84 -36 -127t-104 -43q-84 0 -122 65v-210h-135v665h117l3 -90q30 100 137 100zM315 182v146q0 41 -13.5 58.5t-45.5 17.5q-68 0 -68 -90v-118q0 -90 68 -90q32 0 45.5 17.5t13.5 58.5z" />
    <glyph glyph-name="q" unicode="q" horiz-adv-x="493" 
d="M319 421l23 89h98v-665h-135v210q-38 -65 -122 -65q-68 0 -104 43t-36 127v190q0 84 36 127t104 43q106 0 136 -99zM237 106q68 0 68 90v118q0 90 -68 90q-32 0 -45.5 -17.5t-13.5 -58.5v-146q0 -41 13.5 -58.5t45.5 -17.5z" />
    <glyph glyph-name="r" unicode="r" horiz-adv-x="357" 
d="M298 520q24 0 38 -6v-130q-14 2 -34 2q-114 0 -114 -124v-262h-135v510h117l4 -104q24 114 124 114z" />
    <glyph glyph-name="s" unicode="s" horiz-adv-x="440" 
d="M225 -10q-92 0 -143.5 43t-51.5 118v15h129v-16q0 -54 60 -54q58 0 58 50q0 17 -14 28q-4 3 -7.5 5.5t-6.5 4t-8 3.5l-7.5 3t-10.5 3t-11 3t-14 3.5t-16 3.5q-71 16 -108 52t-37 105q0 75 47.5 117.5t134.5 42.5q83 0 132 -41t49 -110v-12h-127v12q0 45 -53 45
q-23 0 -37.5 -11.5t-14.5 -33.5q0 -24 21 -36.5t78 -25.5q62 -16 98 -42q46 -31 46 -107q0 -79 -48.5 -123.5t-137.5 -44.5z" />
    <glyph glyph-name="t" unicode="t" horiz-adv-x="361" 
d="M328 510v-110h-98v-234q0 -30 12 -43t40 -13q24 0 46 7v-114q-32 -13 -74 -13q-159 0 -159 158v252h-73v110h78l9 130h121v-130h98z" />
    <glyph glyph-name="u" unicode="u" horiz-adv-x="495" 
d="M307 196v314h135v-510h-117l-3 90q-30 -100 -135 -100q-139 0 -139 170v350h135v-328q0 -42 13 -59t45 -17q66 0 66 90z" />
    <glyph glyph-name="v" unicode="v" horiz-adv-x="471" 
d="M319 0h-167l-134 510h140l83 -369l81 369h131z" />
    <glyph glyph-name="w" unicode="w" horiz-adv-x="687" 
d="M287 0h-169l-98 510h134l65 -365l63 365h136l64 -365l64 365h121l-97 -510h-161l-61 341z" />
    <glyph glyph-name="x" unicode="x" horiz-adv-x="486" 
d="M150 0h-133l148 263l-141 247h148l77 -147l79 147h133l-141 -247l149 -263h-147l-86 164z" />
    <glyph glyph-name="y" unicode="y" horiz-adv-x="467" 
d="M245 180l73 330h131l-144 -544q-19 -68 -61.5 -99.5t-115.5 -31.5q-49 0 -79 14v115q26 -13 62 -13q46 0 61 40l-154 519h141z" />
    <glyph glyph-name="z" unicode="z" horiz-adv-x="433" 
d="M400 0h-370v111l227 285h-214v114h357v-111l-228 -286h228v-113z" />
    <glyph glyph-name="braceleft" unicode="{" horiz-adv-x="345" 
d="M317 -100h-72q-64 0 -102.5 37t-38.5 104v132q0 43 -17 59t-63 16v104q46 0 63 16t17 59v132q0 67 38.5 104t102.5 37h72v-104h-20q-38 0 -52 -16t-14 -60v-107q0 -88 -79 -112v-2q79 -24 79 -112v-107q0 -44 14 -60t52 -16h20v-104z" />
    <glyph glyph-name="bar" unicode="|" horiz-adv-x="400" 
d="M258 -200h-115v1000h115v-1000z" />
    <glyph glyph-name="braceright" unicode="}" horiz-adv-x="345" 
d="M100 -100h-72v104h20q38 0 52 16t14 60v107q0 88 79 112v2q-79 24 -79 112v107q0 44 -14 60t-52 16h-20v104h72q64 0 102.5 -37t38.5 -104v-132q0 -43 17 -59t63 -16v-104q-46 0 -63 -16t-17 -59v-132q0 -67 -38.5 -104t-102.5 -37z" />
    <glyph glyph-name="asciitilde" unicode="~" 
d="M88 207l-73 55q41 69 74.5 98t79.5 29q41 0 94 -37q53 -35 75 -35q20 0 36 15t46 61l73 -55q-41 -69 -74.5 -98t-79.5 -29q-42 0 -94 37q-50 35 -75 35q-20 0 -36 -15t-46 -61z" />
    <glyph glyph-name="uni00A0" unicode="&#xa0;" horiz-adv-x="180" 
 />
    <glyph glyph-name="exclamdown" unicode="&#xa1;" horiz-adv-x="268" 
d="M64 510h140v-119h-140v119zM82 316h104l18 -248v-258h-140v258z" />
    <glyph glyph-name="cent" unicode="&#xa2;" 
d="M463 452v-17h-132v15q0 76 -70 76t-70 -76v-198q0 -77 70 -77t70 77v34h132v-36q0 -166 -150 -192v-78h-114v78q-72 14 -110 63.5t-38 128.5v202q0 78 38 127.5t110 63.5v68h114v-68q74 -13 112 -62t38 -129z" />
    <glyph glyph-name="sterling" unicode="&#xa3;" 
d="M461 0h-415v119q130 31 130 104q0 17 -3 31h-127v107h84q-20 19 -33 39q-39 54 -39 123q0 84 55 135.5t151 51.5q99 0 152.5 -53t53.5 -147v-28h-132v32q0 74 -70 74t-70 -74q0 -24 9 -51q7 -21 17 -43q13 -23 28 -48l7 -11h165v-107h-141q2 -10 2 -18q0 -70 -79 -109
h255v-127z" />
    <glyph glyph-name="currency" unicode="&#xa4;" 
d="M397 266l74 -69l-62 -62l-68 75q-40 -24 -85 -24t-84 23l-68 -74l-62 62l74 68q-24 41 -24 85q0 43 23 84l-73 68l62 62l68 -74q38 23 84 23q44 0 85 -23l68 74l62 -62l-74 -69q23 -37 23 -83t-23 -84zM256 282q31 0 49.5 18.5t18.5 49.5q0 30 -18.5 48.5t-49.5 18.5
q-30 0 -48.5 -18.5t-18.5 -48.5q0 -31 18.5 -49.5t48.5 -18.5z" />
    <glyph glyph-name="yen" unicode="&#xa5;" 
d="M354 700h139l-153 -373h102v-84h-118v-58h118v-84h-118v-101h-140v101h-113v84h113v58h-113v84h97l-153 373h152l93 -256z" />
    <glyph glyph-name="brokenbar" unicode="&#xa6;" horiz-adv-x="400" 
d="M258 400h-115v400h115v-400zM258 -200h-115v399h115v-399z" />
    <glyph glyph-name="section" unicode="&#xa7;" horiz-adv-x="532" 
d="M421 171q46 -43 46 -110q0 -78 -54 -123t-147 -45q-90 0 -145.5 45.5t-55.5 121.5v14h129v-8q0 -60 73 -60q68 0 68 53q0 27 -26 41.5t-98 33.5q-89 22 -132.5 59.5t-43.5 104.5q0 92 76 134q-46 43 -46 110q0 78 54 123t147 45q90 0 145.5 -45.5t55.5 -121.5v-14h-129v8
q0 60 -73 60q-68 0 -68 -53q0 -27 26 -41.5t98 -33.5q89 -22 132.5 -59.5t43.5 -104.5q0 -92 -76 -134zM170 313q0 -55 123 -83l23 -6q46 13 46 66q0 54 -123 83l-23 6q-46 -13 -46 -66z" />
    <glyph glyph-name="dieresis" unicode="&#xa8;" horiz-adv-x="635" 
d="M291 578h-131v135h131v-135zM476 578h-131v135h131v-135z" />
    <glyph glyph-name="copyright" unicode="&#xa9;" horiz-adv-x="760" 
d="M629 92q-99 -102 -249 -102t-249 102q-99 104 -99 258q0 155 99 257q99 103 249 103t249 -103q99 -102 99 -257q0 -154 -99 -258zM181 141q78 -81 199 -81q122 0 198 81q78 83 78 209q0 127 -78 208q-76 82 -198 82q-121 0 -199 -82q-77 -82 -77 -208t77 -209zM375 128
q-56 0 -87 32.5t-31 90.5v198q0 58 31 90.5t87 32.5q57 0 88.5 -32.5t31.5 -90.5v-31h-72v34q0 54 -46 54q-44 0 -44 -54v-205q0 -54 44 -54q46 0 46 54v40h72v-36q0 -59 -31 -91t-89 -32z" />
    <glyph glyph-name="ordfeminine" unicode="&#xaa;" horiz-adv-x="356" 
d="M138 551q47 12 59.5 19.5t12.5 22.5q0 19 -7.5 28t-27.5 9q-38 0 -38 -44h-92q0 60 33.5 92t98.5 32q70 0 101 -34t31 -105v-118q0 -67 11 -106h-91q-6 1 -9 53q-22 -60 -91 -60q-46 0 -72.5 26t-26.5 70q0 45 24.5 72.5t83.5 42.5zM162 421q48 0 48 60v24
q-12 -9 -41 -17q-40 -12 -40 -38q0 -29 33 -29zM309 219h-279v63h279v-63z" />
    <glyph glyph-name="guillemotleft" unicode="&#xab;" horiz-adv-x="441" 
d="M225 154h-101l-98 147l98 140h101l-72 -140zM413 154h-101l-97 147l97 140h101l-71 -140z" />
    <glyph glyph-name="logicalnot" unicode="&#xac;" 
d="M463 127h-100v173h-339v100h439v-273z" />
    <glyph glyph-name="uni00AD" unicode="&#xad;" horiz-adv-x="340" 
d="M310 243h-280v114h280v-114z" />
    <glyph glyph-name="registered" unicode="&#xae;" horiz-adv-x="760" 
d="M629 92q-99 -102 -249 -102t-249 102q-99 104 -99 258q0 155 99 257q99 103 249 103t249 -103q99 -102 99 -257q0 -154 -99 -258zM181 141q78 -81 199 -81q122 0 198 81q78 83 78 209q0 127 -78 208q-76 82 -198 82q-121 0 -199 -82q-77 -82 -77 -208t77 -209zM342 136
h-76v429h119q120 0 120 -107v-14q0 -72 -53 -93v-1q54 -15 54 -103v-51q0 -40 7 -60h-77q-6 22 -6 60v56q0 60 -56 60h-32v-176zM342 498v-118h35q52 0 52 53v14q0 51 -45 51h-42z" />
    <glyph glyph-name="overscore" unicode="&#xaf;" horiz-adv-x="635" 
d="M464 596h-292v99h292v-99z" />
    <glyph glyph-name="degree" unicode="&#xb0;" 
d="M358 462q-40 -40 -104 -40t-104 40t-40 104t40 104t104 40t104 -40t40 -104t-40 -104zM211 523q16 -16 43 -16t43 16t16 43t-16 43t-43 16t-43 -16t-16 -43t16 -43z" />
    <glyph glyph-name="plusminus" unicode="&#xb1;" 
d="M461 51h-414v100h157v144h-157v100h157v151h100v-151h157v-100h-157v-144h157v-100z" />
    <glyph glyph-name="uni00B2" unicode="&#xb2;" horiz-adv-x="346" 
d="M295 351h-250v61q0 50 19 85t68 74q45 35 64 61q16 22 16 55q0 44 -38 44q-40 0 -40 -47v-41h-88v39q0 59 34.5 94t95.5 35q60 0 95 -33.5t35 -90.5q0 -47 -25 -84q-27 -39 -92 -93q-24 -20 -36 -34.5t-14 -21t-2 -16.5v-7h158v-80z" />
    <glyph glyph-name="uni00B3" unicode="&#xb3;" horiz-adv-x="346" 
d="M169 341q-130 0 -130 128v26h88v-29q0 -45 40 -45q39 0 39 49v13q0 59 -52 59h-29v82h32q47 0 47 54v11q0 42 -37 42q-38 0 -38 -46v-14h-88v12q0 62 34 95t97 33q61 0 93.5 -31.5t32.5 -90.5v-8q0 -68 -59 -94v-1q61 -24 61 -103v-11q0 -131 -131 -131z" />
    <glyph glyph-name="acute" unicode="&#xb4;" horiz-adv-x="635" 
d="M353 578h-111l89 135h158z" />
    <glyph glyph-name="uni00B5" unicode="&#xb5;" horiz-adv-x="500" 
d="M312 196v314h135v-510h-117l-3 90q-30 -100 -135 -100h-4v-145h-135v665h135v-328q0 -42 13 -59t45 -17q66 0 66 90z" />
    <glyph glyph-name="paragraph" unicode="&#xb6;" horiz-adv-x="575" 
d="M330 -97h-104v402q-188 0 -188 161v58q0 176 207 176h265v-797h-104v697h-76v-697z" />
    <glyph glyph-name="middot" unicode="&#xb7;" horiz-adv-x="256" 
d="M198 230h-140v140h140v-140z" />
    <glyph glyph-name="cedilla" unicode="&#xb8;" horiz-adv-x="635" 
d="M316 -165q-56 0 -81 15.5t-25 49.5v11h76v-9q0 -26 30 -26q35 0 35 30q0 31 -44 31h-8v77h51v-57q40 0 59 -12.5t19 -41.5q0 -39 -26 -53.5t-86 -14.5z" />
    <glyph glyph-name="uni00B9" unicode="&#xb9;" horiz-adv-x="346" 
d="M243 351h-94v321h-75v63q44 0 64.5 13.5t33.5 52.5h71v-450z" />
    <glyph glyph-name="ordmasculine" unicode="&#xba;" horiz-adv-x="351" 
d="M37 472v107q0 63 36 97t103 34q66 0 102 -34t36 -97v-107q0 -64 -36 -98t-102 -34t-102.5 34.5t-36.5 97.5zM176 425q19 0 29.5 10.5t10.5 28.5v122q0 40 -40 40t-40 -40v-122q0 -39 40 -39zM314 219h-277v63h277v-63z" />
    <glyph glyph-name="guillemotright" unicode="&#xbb;" horiz-adv-x="440" 
d="M129 154h-101l71 147l-71 140h101l97 -140zM317 154h-101l71 147l-71 140h101l97 -140z" />
    <glyph glyph-name="onequarter" unicode="&#xbc;" horiz-adv-x="810" 
d="M243 256h-94v321h-75v63q44 0 64.5 13.5t33.5 52.5h71v-450zM277 0h-88l344 700h89zM753 0h-94v73h-179v81l170 296h103v-297h43v-80h-43v-73zM659 322l-93 -169h93v169z" />
    <glyph glyph-name="onehalf" unicode="&#xbd;" horiz-adv-x="810" 
d="M243 256h-94v321h-75v63q44 0 64.5 13.5t33.5 52.5h71v-450zM277 0h-88l344 700h89zM759 0h-250v61q0 50 19 85t68 74q45 35 64 61q16 22 16 55q0 44 -38 44q-40 0 -40 -47v-41h-88v39q0 59 34.5 94t95.5 35q60 0 95 -33.5t35 -90.5q0 -47 -25 -84q-27 -39 -92 -93
q-24 -20 -36 -34.5t-14 -21t-2 -16.5v-7h158v-80z" />
    <glyph glyph-name="threequarters" unicode="&#xbe;" horiz-adv-x="810" 
d="M169 246q-130 0 -130 128v26h88v-29q0 -45 40 -45q39 0 39 49v13q0 59 -52 59h-29v82h32q47 0 47 54v11q0 42 -37 42q-38 0 -38 -46v-14h-88v12q0 62 34 95t97 33q61 0 93.5 -31.5t32.5 -90.5v-8q0 -68 -59 -94v-1q61 -24 61 -103v-11q0 -131 -131 -131zM277 0h-88
l344 700h89zM753 0h-94v73h-179v81l170 296h103v-297h43v-80h-43v-73zM659 322l-93 -169h93v169z" />
    <glyph glyph-name="questiondown" unicode="&#xbf;" horiz-adv-x="465" 
d="M183 510h140v-119h-140v119zM192 316h122v-23q0 -46 -14.5 -82.5t-54.5 -78.5q-79 -80 -79 -144q0 -66 68 -66q38 0 55 20.5t17 68.5v47h132v-53q0 -105 -50.5 -155t-153.5 -50q-101 0 -154 46t-53 133q0 104 92 196q43 41 58 69.5t15 61.5v10z" />
    <glyph glyph-name="Agrave" unicode="&#xc0;" horiz-adv-x="519" 
d="M247 893l89 -135h-111l-136 135h158zM499 0h-143l-23 127h-157l-23 -127h-133l145 700h189zM254 560l-56 -313h113z" />
    <glyph glyph-name="Aacute" unicode="&#xc1;" horiz-adv-x="519" 
d="M273 893h158l-136 -135h-111zM499 0h-143l-23 127h-157l-23 -127h-133l145 700h189zM254 560l-56 -313h113z" />
    <glyph glyph-name="Acircumflex" unicode="&#xc2;" horiz-adv-x="519" 
d="M319 758l-59 59l-59 -59h-111l102 135h136l102 -135h-111zM499 0h-143l-23 127h-157l-23 -127h-133l145 700h189zM254 560l-56 -313h113z" />
    <glyph glyph-name="Atilde" unicode="&#xc3;" horiz-adv-x="519" 
d="M205 800q-24 0 -47 -50l-68 41q48 107 115 107q32 0 69 -28q26 -19 41 -19q23 0 47 49l68 -40q-48 -107 -115 -107q-32 0 -69 28q-26 19 -41 19zM499 0h-143l-23 127h-157l-23 -127h-133l145 700h189zM254 560l-56 -313h113z" />
    <glyph glyph-name="Adieresis" unicode="&#xc4;" horiz-adv-x="519" 
d="M102 893h131v-135h-131v135zM287 893h131v-135h-131v135zM499 0h-143l-23 127h-157l-23 -127h-133l145 700h189zM254 560l-56 -313h113z" />
    <glyph glyph-name="Aring" unicode="&#xc5;" horiz-adv-x="519" 
d="M340 783q-32 -32 -80 -32q-47 0 -81 32q-32 34 -32 80q0 47 32 79q33 33 81 33t80 -33q33 -32 33 -79t-33 -80zM219 863q-2 -28 19.5 -39.5t43 0t19.5 39.5q1 27 -20 38t-42 0t-20 -38zM499 0h-143l-23 127h-157l-23 -127h-133l145 700h189zM254 560l-56 -313h113z" />
    <glyph glyph-name="AE" unicode="&#xc6;" horiz-adv-x="745" 
d="M714 700v-122h-241v-162h192v-122h-192v-172h241v-122h-381v126h-137l-41 -126h-137l243 700h453zM333 543l-97 -297h97v297z" />
    <glyph glyph-name="Ccedilla" unicode="&#xc7;" horiz-adv-x="489" 
d="M455 508v-51h-132v56q0 79 -70 79q-33 0 -51 -20.5t-18 -58.5v-326q0 -38 18 -58.5t51 -20.5q70 0 70 79v76h132v-71q0 -90 -45.5 -142t-130.5 -59v-34q40 0 59 -12.5t19 -41.5q0 -39 -26 -53.5t-86 -14.5q-56 0 -81 15.5t-25 49.5v11h76v-9q0 -26 30 -26q35 0 35 30
q0 31 -44 31h-8v54q-89 5 -136.5 57t-47.5 144v316q0 97 53.5 149.5t152.5 52.5t152 -52t53 -150z" />
    <glyph glyph-name="Egrave" unicode="&#xc8;" horiz-adv-x="467" 
d="M322 758h-111l-136 135h158zM436 0h-381v700h381v-122h-241v-162h192v-122h-192v-172h241v-122z" />
    <glyph glyph-name="Eacute" unicode="&#xc9;" horiz-adv-x="467" 
d="M281 758h-111l89 135h158zM436 0h-381v700h381v-122h-241v-162h192v-122h-192v-172h241v-122z" />
    <glyph glyph-name="Ecircumflex" unicode="&#xca;" horiz-adv-x="467" 
d="M187 758h-111l102 135h136l102 -135h-111l-59 59zM436 0h-381v700h381v-122h-241v-162h192v-122h-192v-172h241v-122z" />
    <glyph glyph-name="Edieresis" unicode="&#xcb;" horiz-adv-x="467" 
d="M219 758h-131v135h131v-135zM404 758h-131v135h131v-135zM436 0h-381v700h381v-122h-241v-162h192v-122h-192v-172h241v-122z" />
    <glyph glyph-name="Igrave" unicode="&#xcc;" horiz-adv-x="250" 
d="M201 758h-111l-136 135h158zM195 0h-140v700h140v-700z" />
    <glyph glyph-name="Iacute" unicode="&#xcd;" horiz-adv-x="250" 
d="M160 758h-111l89 135h158zM195 0h-140v700h140v-700z" />
    <glyph glyph-name="Icircumflex" unicode="&#xce;" horiz-adv-x="250" 
d="M66 758h-111l102 135h136l102 -135h-111l-59 59zM195 0h-140v700h140v-700z" />
    <glyph glyph-name="Idieresis" unicode="&#xcf;" horiz-adv-x="250" 
d="M98 758h-131v135h131v-135zM283 758h-131v135h131v-135zM195 0h-140v700h140v-700z" />
    <glyph glyph-name="Eth" unicode="&#xd0;" horiz-adv-x="539" 
d="M74 700h213q102 0 155.5 -50.5t53.5 -147.5v-304q0 -97 -53.5 -147.5t-155.5 -50.5h-213v309h-60v111h60v280zM356 196v308q0 39 -17 56.5t-54 17.5h-71v-158h72v-111h-72v-187h71q37 0 54 17.5t17 56.5z" />
    <glyph glyph-name="Ntilde" unicode="&#xd1;" horiz-adv-x="548" 
d="M173 750l-68 41q48 107 115 107q32 0 69 -28q26 -19 41 -19q23 0 47 49l68 -40q-48 -107 -115 -107q-32 0 -69 28q-26 19 -41 19q-24 0 -47 -50zM180 0h-125v700h173l140 -405v405h125v-700h-141l-172 498v-498z" />
    <glyph glyph-name="Ograve" unicode="&#xd2;" horiz-adv-x="512" 
d="M332 757h-111l-136 135h158zM44 192v316q0 96 55 149t157 53t157 -53t55 -149v-316q0 -96 -55 -149t-157 -53t-157 53t-55 149zM328 187v326q0 75 -72 75t-72 -75v-326q0 -75 72 -75t72 75z" />
    <glyph glyph-name="Oacute" unicode="&#xd3;" horiz-adv-x="512" 
d="M291 757h-111l89 135h158zM44 192v316q0 96 55 149t157 53t157 -53t55 -149v-316q0 -96 -55 -149t-157 -53t-157 53t-55 149zM328 187v326q0 75 -72 75t-72 -75v-326q0 -75 72 -75t72 75z" />
    <glyph glyph-name="Ocircumflex" unicode="&#xd4;" horiz-adv-x="512" 
d="M197 757h-111l102 135h136l102 -135h-111l-59 59zM44 192v316q0 96 55 149t157 53t157 -53t55 -149v-316q0 -96 -55 -149t-157 -53t-157 53t-55 149zM328 187v326q0 75 -72 75t-72 -75v-326q0 -75 72 -75t72 75z" />
    <glyph glyph-name="Otilde" unicode="&#xd5;" horiz-adv-x="512" 
d="M154 749l-68 41q48 107 115 107q32 0 69 -28q26 -19 41 -19q23 0 47 49l68 -40q-48 -107 -115 -107q-32 0 -69 28q-26 19 -41 19q-24 0 -47 -50zM44 192v316q0 96 55 149t157 53t157 -53t55 -149v-316q0 -96 -55 -149t-157 -53t-157 53t-55 149zM328 187v326q0 75 -72 75
t-72 -75v-326q0 -75 72 -75t72 75z" />
    <glyph glyph-name="Odieresis" unicode="&#xd6;" horiz-adv-x="512" 
d="M229 757h-131v135h131v-135zM414 757h-131v135h131v-135zM44 192v316q0 96 55 149t157 53t157 -53t55 -149v-316q0 -96 -55 -149t-157 -53t-157 53t-55 149zM328 187v326q0 75 -72 75t-72 -75v-326q0 -75 72 -75t72 75z" />
    <glyph glyph-name="multiply" unicode="&#xd7;" 
d="M254 233l-135 -139l-67 68l133 138l-133 138l67 68l135 -139l135 139l67 -68l-133 -138l133 -138l-67 -68z" />
    <glyph glyph-name="Oslash" unicode="&#xd8;" horiz-adv-x="512" 
d="M405 725l76 -42l-36 -69q23 -44 23 -106v-316q0 -96 -55 -149t-157 -53q-75 0 -125 29l-24 -46l-76 42l37 70q-24 43 -24 107v316q0 96 55 149t157 53q76 0 126 -29zM184 513v-208l133 253q-16 30 -61 30q-72 0 -72 -75zM328 187v206l-133 -252q18 -29 61 -29q72 0 72 75
z" />
    <glyph glyph-name="Ugrave" unicode="&#xd9;" horiz-adv-x="517" 
d="M334 758h-111l-136 135h158zM50 192v508h140v-516q0 -72 71 -72t71 72v516h135v-508q0 -97 -54 -149.5t-155 -52.5t-154.5 52.5t-53.5 149.5z" />
    <glyph glyph-name="Uacute" unicode="&#xda;" horiz-adv-x="517" 
d="M293 758h-111l89 135h158zM50 192v508h140v-516q0 -72 71 -72t71 72v516h135v-508q0 -97 -54 -149.5t-155 -52.5t-154.5 52.5t-53.5 149.5z" />
    <glyph glyph-name="Ucircumflex" unicode="&#xdb;" horiz-adv-x="517" 
d="M199 758h-111l102 135h136l102 -135h-111l-59 59zM50 192v508h140v-516q0 -72 71 -72t71 72v516h135v-508q0 -97 -54 -149.5t-155 -52.5t-154.5 52.5t-53.5 149.5z" />
    <glyph glyph-name="Udieresis" unicode="&#xdc;" horiz-adv-x="517" 
d="M231 758h-131v135h131v-135zM416 758h-131v135h131v-135zM50 192v508h140v-516q0 -72 71 -72t71 72v516h135v-508q0 -97 -54 -149.5t-155 -52.5t-154.5 52.5t-53.5 149.5z" />
    <glyph glyph-name="Yacute" unicode="&#xdd;" horiz-adv-x="512" 
d="M291 758h-111l89 135h158zM326 0h-140v289l-169 411h151l94 -249l95 249h138l-169 -411v-289z" />
    <glyph glyph-name="Thorn" unicode="&#xde;" horiz-adv-x="497" 
d="M195 0h-140v700h140v-93h66q106 0 157 -47.5t51 -145.5v-42q0 -99 -51 -146.5t-157 -47.5h-66v-178zM195 485v-185h66q36 0 52 17t16 55v42q0 38 -16 54.5t-52 16.5h-66z" />
    <glyph glyph-name="germandbls" unicode="&#xdf;" horiz-adv-x="510" 
d="M310 -10q-41 0 -72 10v113q17 -4 46 -4q68 0 68 39q0 28 -45 56q-29 20 -38 28q-41 37 -41 104q0 57 41 116q33 50 33 86q0 62 -57 62t-57 -64v-536h-135v537q0 173 197 173q80 0 133 -41q54 -41 54 -121q0 -66 -42 -120q-33 -42 -33 -81q0 -22 12 -38.5t41 -38.5
q19 -14 34 -29q37 -35 37 -93q0 -158 -176 -158z" />
    <glyph glyph-name="agrave" unicode="&#xe0;" horiz-adv-x="474" 
d="M219 713l89 -135h-111l-136 135h158zM424 323v-166q0 -106 16 -157h-125q-9 3 -12 88q-29 -98 -135 -98q-65 0 -103 36t-38 99q0 64 34.5 103.5t114.5 59.5q72 16 92 29q21 13 21 35q0 31 -12.5 44.5t-42.5 13.5q-32 0 -45.5 -16t-13.5 -51h-127q0 85 48 131t140 46
q100 0 144 -48t44 -149zM215 100q34 0 54 23t20 69v39q-21 -14 -67 -27q-60 -16 -60 -57q0 -47 53 -47z" />
    <glyph glyph-name="aacute" unicode="&#xe1;" horiz-adv-x="474" 
d="M245 713h158l-136 -135h-111zM424 323v-166q0 -106 16 -157h-125q-9 3 -12 88q-29 -98 -135 -98q-65 0 -103 36t-38 99q0 64 34.5 103.5t114.5 59.5q72 16 92 29q21 13 21 35q0 31 -12.5 44.5t-42.5 13.5q-32 0 -45.5 -16t-13.5 -51h-127q0 85 48 131t140 46
q100 0 144 -48t44 -149zM215 100q34 0 54 23t20 69v39q-21 -14 -67 -27q-60 -16 -60 -57q0 -47 53 -47z" />
    <glyph glyph-name="acircumflex" unicode="&#xe2;" horiz-adv-x="474" 
d="M291 578l-59 59l-59 -59h-111l102 135h136l102 -135h-111zM424 323v-166q0 -106 16 -157h-125q-9 3 -12 88q-29 -98 -135 -98q-65 0 -103 36t-38 99q0 64 34.5 103.5t114.5 59.5q72 16 92 29q21 13 21 35q0 31 -12.5 44.5t-42.5 13.5q-32 0 -45.5 -16t-13.5 -51h-127
q0 85 48 131t140 46q100 0 144 -48t44 -149zM215 100q34 0 54 23t20 69v39q-21 -14 -67 -27q-60 -16 -60 -57q0 -47 53 -47z" />
    <glyph glyph-name="atilde" unicode="&#xe3;" horiz-adv-x="474" 
d="M177 620q-24 0 -47 -50l-68 41q48 107 115 107q32 0 69 -28q26 -19 41 -19q23 0 47 49l68 -40q-48 -107 -115 -107q-32 0 -69 28q-26 19 -41 19zM424 323v-166q0 -106 16 -157h-125q-9 3 -12 88q-29 -98 -135 -98q-65 0 -103 36t-38 99q0 64 34.5 103.5t114.5 59.5
q72 16 92 29q21 13 21 35q0 31 -12.5 44.5t-42.5 13.5q-32 0 -45.5 -16t-13.5 -51h-127q0 85 48 131t140 46q100 0 144 -48t44 -149zM215 100q34 0 54 23t20 69v39q-21 -14 -67 -27q-60 -16 -60 -57q0 -47 53 -47z" />
    <glyph glyph-name="adieresis" unicode="&#xe4;" horiz-adv-x="474" 
d="M74 713h131v-135h-131v135zM259 713h131v-135h-131v135zM424 323v-166q0 -106 16 -157h-125q-9 3 -12 88q-29 -98 -135 -98q-65 0 -103 36t-38 99q0 64 34.5 103.5t114.5 59.5q72 16 92 29q21 13 21 35q0 31 -12.5 44.5t-42.5 13.5q-32 0 -45.5 -16t-13.5 -51h-127
q0 85 48 131t140 46q100 0 144 -48t44 -149zM215 100q34 0 54 23t20 69v39q-21 -14 -67 -27q-60 -16 -60 -57q0 -47 53 -47z" />
    <glyph glyph-name="aring" unicode="&#xe5;" horiz-adv-x="474" 
d="M312 603q-32 -32 -80 -32q-47 0 -81 32q-32 34 -32 80q0 47 32 79q33 33 81 33t80 -33q33 -32 33 -79t-33 -80zM191 683q-2 -28 19.5 -39.5t43 0t19.5 39.5q1 27 -20 38t-42 0t-20 -38zM424 323v-166q0 -106 16 -157h-125q-9 3 -12 88q-29 -98 -135 -98q-65 0 -103 36
t-38 99q0 64 34.5 103.5t114.5 59.5q72 16 92 29q21 13 21 35q0 31 -12.5 44.5t-42.5 13.5q-32 0 -45.5 -16t-13.5 -51h-127q0 85 48 131t140 46q100 0 144 -48t44 -149zM215 100q34 0 54 23t20 69v39q-21 -14 -67 -27q-60 -16 -60 -57q0 -47 53 -47z" />
    <glyph glyph-name="ae" unicode="&#xe6;" horiz-adv-x="725" 
d="M499 520q90 0 139.5 -49t49.5 -139v-110h-264v-59q0 -62 68 -62q67 0 67 67h129q0 -82 -53 -130t-146 -48q-108 0 -157 58q-45 -58 -145 -58q-77 0 -118.5 35.5t-41.5 99.5t34.5 103.5t114.5 59.5q72 16 92 29q21 13 21 34q0 31 -12.5 45t-42.5 14q-31 0 -45 -16t-14 -51
h-127q0 82 47 129.5t131 47.5q99 0 134 -59q42 59 139 59zM424 349v-32h132v32q0 61 -66 61t-66 -61zM215 100q34 0 54 23t20 69v39q-21 -14 -67 -27q-60 -16 -60 -57q0 -47 53 -47z" />
    <glyph glyph-name="ccedilla" unicode="&#xe7;" horiz-adv-x="461" 
d="M428 332v-16h-130v26q0 62 -62 62q-30 0 -46 -16.5t-16 -45.5v-174q0 -29 16 -45.5t46 -16.5q62 0 62 62v37h130v-27q0 -82 -42.5 -131t-123.5 -56v-34q40 0 59 -12.5t19 -41.5q0 -39 -26 -53.5t-86 -14.5q-56 0 -81 15.5t-25 49.5v11h76v-9q0 -26 30 -26q35 0 35 30
q0 31 -44 31h-8v54q-83 7 -127.5 55t-44.5 132v154q0 91 51 139.5t146 48.5q93 0 142.5 -49.5t49.5 -138.5z" />
    <glyph glyph-name="egrave" unicode="&#xe8;" horiz-adv-x="475" 
d="M225 713l89 -135h-111l-136 135h158zM239 520q96 0 147.5 -48.5t51.5 -139.5v-110h-264v-59q0 -62 68 -62q67 0 67 67h129q0 -82 -53 -130t-146 -48q-97 0 -148.5 49t-51.5 139v154q0 91 51.5 139.5t148.5 48.5zM174 349v-32h132v32q0 61 -66 61t-66 -61z" />
    <glyph glyph-name="eacute" unicode="&#xe9;" horiz-adv-x="475" 
d="M251 713h158l-136 -135h-111zM239 520q96 0 147.5 -48.5t51.5 -139.5v-110h-264v-59q0 -62 68 -62q67 0 67 67h129q0 -82 -53 -130t-146 -48q-97 0 -148.5 49t-51.5 139v154q0 91 51.5 139.5t148.5 48.5zM174 349v-32h132v32q0 61 -66 61t-66 -61z" />
    <glyph glyph-name="ecircumflex" unicode="&#xea;" horiz-adv-x="475" 
d="M297 578l-59 59l-59 -59h-111l102 135h136l102 -135h-111zM239 520q96 0 147.5 -48.5t51.5 -139.5v-110h-264v-59q0 -62 68 -62q67 0 67 67h129q0 -82 -53 -130t-146 -48q-97 0 -148.5 49t-51.5 139v154q0 91 51.5 139.5t148.5 48.5zM174 349v-32h132v32q0 61 -66 61
t-66 -61z" />
    <glyph glyph-name="edieresis" unicode="&#xeb;" horiz-adv-x="475" 
d="M80 713h131v-135h-131v135zM265 713h131v-135h-131v135zM239 520q96 0 147.5 -48.5t51.5 -139.5v-110h-264v-59q0 -62 68 -62q67 0 67 67h129q0 -82 -53 -130t-146 -48q-97 0 -148.5 49t-51.5 139v154q0 91 51.5 139.5t148.5 48.5zM174 349v-32h132v32q0 61 -66 61
t-66 -61z" />
    <glyph glyph-name="igrave" unicode="&#xec;" horiz-adv-x="241" 
d="M196 578h-111l-136 135h158zM188 0h-135v510h135v-510z" />
    <glyph glyph-name="iacute" unicode="&#xed;" horiz-adv-x="241" 
d="M155 578h-111l89 135h158zM188 0h-135v510h135v-510z" />
    <glyph glyph-name="icircumflex" unicode="&#xee;" horiz-adv-x="241" 
d="M61 578h-111l102 135h136l102 -135h-111l-59 59zM188 0h-135v510h135v-510z" />
    <glyph glyph-name="idieresis" unicode="&#xef;" horiz-adv-x="241" 
d="M93 578h-131v135h131v-135zM278 578h-131v135h131v-135zM188 0h-135v510h135v-510z" />
    <glyph glyph-name="eth" unicode="&#xf0;" horiz-adv-x="474" 
d="M323 700h115l-104 -79q53 -59 76 -142t23 -203v-98q0 -91 -51.5 -139.5t-146.5 -48.5t-146.5 48.5t-51.5 139.5v132q0 84 36 127t104 43q82 0 119 -61q-11 75 -53 132l-47 -35h-116l115 87q-50 46 -140 97h175q25 -14 51 -32zM298 168v106q0 90 -67 90q-32 0 -45.5 -17.5
t-13.5 -58.5v-120q0 -62 63 -62t63 62z" />
    <glyph glyph-name="ntilde" unicode="&#xf1;" horiz-adv-x="495" 
d="M194 620q-24 0 -47 -50l-68 41q48 107 115 107q32 0 69 -28q26 -19 41 -19q23 0 47 49l68 -40q-48 -107 -115 -107q-32 0 -69 28q-26 19 -41 19zM308 520q139 0 139 -170v-350h-135v328q0 42 -13 59t-45 17q-66 0 -66 -90v-314h-135v510h117l3 -90q30 100 135 100z" />
    <glyph glyph-name="ograve" unicode="&#xf2;" horiz-adv-x="474" 
d="M313 578h-111l-136 135h158zM39 178v154q0 91 51.5 139.5t146.5 48.5t146.5 -48.5t51.5 -139.5v-154q0 -91 -51.5 -139.5t-146.5 -48.5t-146.5 48.5t-51.5 139.5zM300 168v174q0 62 -63 62t-63 -62v-174q0 -62 63 -62t63 62z" />
    <glyph glyph-name="oacute" unicode="&#xf3;" horiz-adv-x="474" 
d="M272 578h-111l89 135h158zM39 178v154q0 91 51.5 139.5t146.5 48.5t146.5 -48.5t51.5 -139.5v-154q0 -91 -51.5 -139.5t-146.5 -48.5t-146.5 48.5t-51.5 139.5zM300 168v174q0 62 -63 62t-63 -62v-174q0 -62 63 -62t63 62z" />
    <glyph glyph-name="ocircumflex" unicode="&#xf4;" horiz-adv-x="474" 
d="M178 578h-111l102 135h136l102 -135h-111l-59 59zM39 178v154q0 91 51.5 139.5t146.5 48.5t146.5 -48.5t51.5 -139.5v-154q0 -91 -51.5 -139.5t-146.5 -48.5t-146.5 48.5t-51.5 139.5zM300 168v174q0 62 -63 62t-63 -62v-174q0 -62 63 -62t63 62z" />
    <glyph glyph-name="otilde" unicode="&#xf5;" horiz-adv-x="474" 
d="M135 570l-68 41q48 107 115 107q32 0 69 -28q26 -19 41 -19q23 0 47 49l68 -40q-48 -107 -115 -107q-32 0 -69 28q-26 19 -41 19q-24 0 -47 -50zM39 178v154q0 91 51.5 139.5t146.5 48.5t146.5 -48.5t51.5 -139.5v-154q0 -91 -51.5 -139.5t-146.5 -48.5t-146.5 48.5
t-51.5 139.5zM300 168v174q0 62 -63 62t-63 -62v-174q0 -62 63 -62t63 62z" />
    <glyph glyph-name="odieresis" unicode="&#xf6;" horiz-adv-x="474" 
d="M210 578h-131v135h131v-135zM395 578h-131v135h131v-135zM39 178v154q0 91 51.5 139.5t146.5 48.5t146.5 -48.5t51.5 -139.5v-154q0 -91 -51.5 -139.5t-146.5 -48.5t-146.5 48.5t-51.5 139.5zM300 168v174q0 62 -63 62t-63 -62v-174q0 -62 63 -62t63 62z" />
    <glyph glyph-name="divide" unicode="&#xf7;" 
d="M320 426h-135v134h135v-134zM472 250h-439v100h439v-100zM320 40h-135v134h135v-134z" />
    <glyph glyph-name="oslash" unicode="&#xf8;" horiz-adv-x="474" 
d="M430 498l-29 -47q34 -46 34 -119v-154q0 -91 -51.5 -139.5t-146.5 -48.5q-59 0 -105 20l-22 -36l-66 40l28 46q-33 45 -33 118v154q0 91 51.5 139.5t146.5 48.5q58 0 104 -20l23 38zM174 342v-115l102 167q-13 10 -39 10q-63 0 -63 -62zM237 106q63 0 63 62v117
l-103 -168q17 -11 40 -11z" />
    <glyph glyph-name="ugrave" unicode="&#xf9;" horiz-adv-x="495" 
d="M235 713l89 -135h-111l-136 135h158zM307 196v314h135v-510h-117l-3 90q-30 -100 -135 -100q-139 0 -139 170v350h135v-328q0 -42 13 -59t45 -17q66 0 66 90z" />
    <glyph glyph-name="uacute" unicode="&#xfa;" horiz-adv-x="495" 
d="M261 713h158l-136 -135h-111zM307 196v314h135v-510h-117l-3 90q-30 -100 -135 -100q-139 0 -139 170v350h135v-328q0 -42 13 -59t45 -17q66 0 66 90z" />
    <glyph glyph-name="ucircumflex" unicode="&#xfb;" horiz-adv-x="495" 
d="M307 578l-59 59l-59 -59h-111l102 135h136l102 -135h-111zM307 196v314h135v-510h-117l-3 90q-30 -100 -135 -100q-139 0 -139 170v350h135v-328q0 -42 13 -59t45 -17q66 0 66 90z" />
    <glyph glyph-name="udieresis" unicode="&#xfc;" horiz-adv-x="495" 
d="M90 713h131v-135h-131v135zM275 713h131v-135h-131v135zM307 196v314h135v-510h-117l-3 90q-30 -100 -135 -100q-139 0 -139 170v350h135v-328q0 -42 13 -59t45 -17q66 0 66 90z" />
    <glyph glyph-name="yacute" unicode="&#xfd;" horiz-adv-x="467" 
d="M249 713h158l-136 -135h-111zM245 180l73 330h131l-144 -544q-19 -68 -61.5 -99.5t-115.5 -31.5q-49 0 -79 14v115q26 -13 62 -13q46 0 61 40l-154 519h141z" />
    <glyph glyph-name="thorn" unicode="&#xfe;" horiz-adv-x="492" 
d="M310 520q68 0 104 -43t36 -127v-190q0 -84 -36 -127t-104 -43q-84 0 -122 65v-210h-135v855h135v-245q38 65 122 65zM315 182v146q0 41 -13.5 58.5t-45.5 17.5q-68 0 -68 -90v-118q0 -90 68 -90q32 0 45.5 17.5t13.5 58.5z" />
    <glyph glyph-name="ydieresis" unicode="&#xff;" horiz-adv-x="467" 
d="M78 713h131v-135h-131v135zM263 713h131v-135h-131v135zM245 180l73 330h131l-144 -544q-19 -68 -61.5 -99.5t-115.5 -31.5q-49 0 -79 14v115q26 -13 62 -13q46 0 61 40l-154 519h141z" />
    <glyph glyph-name="Amacron" unicode="&#x100;" horiz-adv-x="519" 
d="M114 875h292v-99h-292v99zM499 0h-143l-23 127h-157l-23 -127h-133l145 700h189zM254 560l-56 -313h113z" />
    <glyph glyph-name="amacron" unicode="&#x101;" horiz-adv-x="474" 
d="M86 695h292v-99h-292v99zM424 323v-166q0 -106 16 -157h-125q-9 3 -12 88q-29 -98 -135 -98q-65 0 -103 36t-38 99q0 64 34.5 103.5t114.5 59.5q72 16 92 29q21 13 21 35q0 31 -12.5 44.5t-42.5 13.5q-32 0 -45.5 -16t-13.5 -51h-127q0 85 48 131t140 46q100 0 144 -48
t44 -149zM215 100q34 0 54 23t20 69v39q-21 -14 -67 -27q-60 -16 -60 -57q0 -47 53 -47z" />
    <glyph glyph-name="Abreve" unicode="&#x102;" horiz-adv-x="519" 
d="M260 755q-68 0 -107 37t-42 101h83q8 -48 66 -48t69 48h82q-2 -63 -42 -100.5t-109 -37.5zM499 0h-143l-23 127h-157l-23 -127h-133l145 700h189zM254 560l-56 -313h113z" />
    <glyph glyph-name="abreve" unicode="&#x103;" horiz-adv-x="474" 
d="M232 575q-68 0 -107 37t-42 101h83q8 -48 66 -48t69 48h82q-2 -63 -42 -100.5t-109 -37.5zM424 323v-166q0 -106 16 -157h-125q-9 3 -12 88q-29 -98 -135 -98q-65 0 -103 36t-38 99q0 64 34.5 103.5t114.5 59.5q72 16 92 29q21 13 21 35q0 31 -12.5 44.5t-42.5 13.5
q-32 0 -45.5 -16t-13.5 -51h-127q0 85 48 131t140 46q100 0 144 -48t44 -149zM215 100q34 0 54 23t20 69v39q-21 -14 -67 -27q-60 -16 -60 -57q0 -47 53 -47z" />
    <glyph glyph-name="Aogonek" unicode="&#x104;" horiz-adv-x="519" 
d="M473 -89q21 0 36 4v-68q-35 -12 -73 -12q-115 0 -115 71q0 58 81 94h-46l-23 127h-157l-23 -127h-133l145 700h189l145 -700h-38q-32 -26 -32 -56q0 -33 44 -33zM254 560l-56 -313h113z" />
    <glyph glyph-name="aogonek" unicode="&#x105;" horiz-adv-x="474" 
d="M412 -89q21 0 36 4v-68q-34 -12 -73 -12q-115 0 -115 71q0 58 81 94h-26q-9 3 -12 88q-29 -98 -135 -98q-65 0 -103 36t-38 99q0 64 34.5 103.5t114.5 59.5q72 16 92 29q21 13 21 35q0 31 -12.5 44.5t-42.5 13.5q-32 0 -45.5 -16t-13.5 -51h-127q0 85 48 131t140 46
q100 0 144 -48t44 -149v-166q0 -106 16 -157h-40q-32 -26 -32 -56q0 -33 44 -33zM215 100q34 0 54 23t20 69v39q-21 -14 -67 -27q-60 -16 -60 -57q0 -47 53 -47z" />
    <glyph glyph-name="Cacute" unicode="&#x106;" horiz-adv-x="489" 
d="M283 758h-111l89 135h158zM44 192v316q0 97 53.5 149.5t152.5 52.5t152 -52t53 -150v-51h-132v56q0 79 -70 79q-33 0 -51 -20.5t-18 -58.5v-326q0 -38 18 -58.5t51 -20.5q70 0 70 79v76h132v-71q0 -98 -53 -150t-152 -52t-152.5 52.5t-53.5 149.5z" />
    <glyph glyph-name="cacute" unicode="&#x107;" horiz-adv-x="461" 
d="M269 578h-111l89 135h158zM39 178v154q0 91 51 139.5t146 48.5q93 0 142.5 -49.5t49.5 -138.5v-16h-130v26q0 62 -62 62q-30 0 -46 -16.5t-16 -45.5v-174q0 -29 16 -45.5t46 -16.5q62 0 62 62v37h130v-27q0 -89 -49.5 -138.5t-142.5 -49.5q-94 0 -145.5 49t-51.5 139z
" />
    <glyph glyph-name="Ccircumflex" unicode="&#x108;" horiz-adv-x="489" 
d="M189 758h-111l102 135h136l102 -135h-111l-59 59zM44 192v316q0 97 53.5 149.5t152.5 52.5t152 -52t53 -150v-51h-132v56q0 79 -70 79q-33 0 -51 -20.5t-18 -58.5v-326q0 -38 18 -58.5t51 -20.5q70 0 70 79v76h132v-71q0 -98 -53 -150t-152 -52t-152.5 52.5t-53.5 149.5z
" />
    <glyph glyph-name="ccircumflex" unicode="&#x109;" horiz-adv-x="461" 
d="M175 578h-111l102 135h136l102 -135h-111l-59 59zM39 178v154q0 91 51 139.5t146 48.5q93 0 142.5 -49.5t49.5 -138.5v-16h-130v26q0 62 -62 62q-30 0 -46 -16.5t-16 -45.5v-174q0 -29 16 -45.5t46 -16.5q62 0 62 62v37h130v-27q0 -89 -49.5 -138.5t-142.5 -49.5
q-94 0 -145.5 49t-51.5 139z" />
    <glyph glyph-name="Cdotaccent" unicode="&#x10a;" horiz-adv-x="489" 
d="M316 758h-135v135h135v-135zM44 192v316q0 97 53.5 149.5t152.5 52.5t152 -52t53 -150v-51h-132v56q0 79 -70 79q-33 0 -51 -20.5t-18 -58.5v-326q0 -38 18 -58.5t51 -20.5q70 0 70 79v76h132v-71q0 -98 -53 -150t-152 -52t-152.5 52.5t-53.5 149.5z" />
    <glyph glyph-name="cdotaccent" unicode="&#x10b;" horiz-adv-x="461" 
d="M302 578h-135v135h135v-135zM39 178v154q0 91 51 139.5t146 48.5q93 0 142.5 -49.5t49.5 -138.5v-16h-130v26q0 62 -62 62q-30 0 -46 -16.5t-16 -45.5v-174q0 -29 16 -45.5t46 -16.5q62 0 62 62v37h130v-27q0 -89 -49.5 -138.5t-142.5 -49.5q-94 0 -145.5 49t-51.5 139z
" />
    <glyph glyph-name="Ccaron" unicode="&#x10c;" horiz-adv-x="489" 
d="M316 758h-136l-102 135h111l59 -59l59 59h111zM44 192v316q0 97 53.5 149.5t152.5 52.5t152 -52t53 -150v-51h-132v56q0 79 -70 79q-33 0 -51 -20.5t-18 -58.5v-326q0 -38 18 -58.5t51 -20.5q70 0 70 79v76h132v-71q0 -98 -53 -150t-152 -52t-152.5 52.5t-53.5 149.5z
" />
    <glyph glyph-name="ccaron" unicode="&#x10d;" horiz-adv-x="461" 
d="M302 578h-136l-102 135h111l59 -59l59 59h111zM39 178v154q0 91 51 139.5t146 48.5q93 0 142.5 -49.5t49.5 -138.5v-16h-130v26q0 62 -62 62q-30 0 -46 -16.5t-16 -45.5v-174q0 -29 16 -45.5t46 -16.5q62 0 62 62v37h130v-27q0 -89 -49.5 -138.5t-142.5 -49.5
q-94 0 -145.5 49t-51.5 139z" />
    <glyph glyph-name="Dcaron" unicode="&#x10e;" horiz-adv-x="520" 
d="M317 758h-136l-102 135h111l59 -59l59 59h111zM268 0h-213v700h213q102 0 155.5 -50.5t53.5 -147.5v-304q0 -97 -53.5 -147.5t-155.5 -50.5zM195 578v-456h71q37 0 54 17.5t17 56.5v308q0 39 -17 56.5t-54 17.5h-71z" />
    <glyph glyph-name="dcaron" unicode="&#x10f;" horiz-adv-x="586" 
d="M304 700h135v-543q0 -106 16 -157h-125q-9 3 -12 89q-30 -99 -136 -99q-68 0 -104 43t-36 127v190q0 84 36 127t104 43q84 0 122 -65v245zM474 570v130h130v-116l-59 -146h-57l37 132h-51zM236 106q68 0 68 90v118q0 90 -68 90q-32 0 -45.5 -17.5t-13.5 -58.5v-146
q0 -41 13.5 -58.5t45.5 -17.5z" />
    <glyph glyph-name="Dcroat" unicode="&#x110;" horiz-adv-x="539" 
d="M74 700h213q102 0 155.5 -50.5t53.5 -147.5v-304q0 -97 -53.5 -147.5t-155.5 -50.5h-213v309h-60v111h60v280zM356 196v308q0 39 -17 56.5t-54 17.5h-71v-158h72v-111h-72v-187h71q37 0 54 17.5t17 56.5z" />
    <glyph glyph-name="dslash" unicode="&#x111;" horiz-adv-x="494" 
d="M491 639v-89h-52v-393q0 -106 16 -157h-125q-9 3 -12 89q-30 -99 -136 -99q-68 0 -104 43t-36 127v190q0 84 36 127t104 43q84 0 122 -65v95h-85v89h85v61h135v-61h52zM236 106q68 0 68 90v118q0 90 -68 90q-32 0 -45.5 -17.5t-13.5 -58.5v-146q0 -41 13.5 -58.5
t45.5 -17.5z" />
    <glyph glyph-name="Emacron" unicode="&#x112;" horiz-adv-x="467" 
d="M392 776h-292v99h292v-99zM436 0h-381v700h381v-122h-241v-162h192v-122h-192v-172h241v-122z" />
    <glyph glyph-name="emacron" unicode="&#x113;" horiz-adv-x="475" 
d="M92 695h292v-99h-292v99zM239 520q96 0 147.5 -48.5t51.5 -139.5v-110h-264v-59q0 -62 68 -62q67 0 67 67h129q0 -82 -53 -130t-146 -48q-97 0 -148.5 49t-51.5 139v154q0 91 51.5 139.5t148.5 48.5zM174 349v-32h132v32q0 61 -66 61t-66 -61z" />
    <glyph glyph-name="Ebreve" unicode="&#x114;" horiz-adv-x="467" 
d="M246 755q-68 0 -107 37t-42 101h83q8 -48 66 -48t69 48h82q-2 -63 -42 -100.5t-109 -37.5zM436 0h-381v700h381v-122h-241v-162h192v-122h-192v-172h241v-122z" />
    <glyph glyph-name="ebreve" unicode="&#x115;" horiz-adv-x="475" 
d="M238 575q-68 0 -107 37t-42 101h83q8 -48 66 -48t69 48h82q-2 -63 -42 -100.5t-109 -37.5zM239 520q96 0 147.5 -48.5t51.5 -139.5v-110h-264v-59q0 -62 68 -62q67 0 67 67h129q0 -82 -53 -130t-146 -48q-97 0 -148.5 49t-51.5 139v154q0 91 51.5 139.5t148.5 48.5z
M174 349v-32h132v32q0 61 -66 61t-66 -61z" />
    <glyph glyph-name="Edotaccent" unicode="&#x116;" horiz-adv-x="467" 
d="M314 758h-135v135h135v-135zM436 0h-381v700h381v-122h-241v-162h192v-122h-192v-172h241v-122z" />
    <glyph glyph-name="edotaccent" unicode="&#x117;" horiz-adv-x="475" 
d="M171 713h135v-135h-135v135zM239 520q96 0 147.5 -48.5t51.5 -139.5v-110h-264v-59q0 -62 68 -62q67 0 67 67h129q0 -82 -53 -130t-146 -48q-97 0 -148.5 49t-51.5 139v154q0 91 51.5 139.5t148.5 48.5zM174 349v-32h132v32q0 61 -66 61t-66 -61z" />
    <glyph glyph-name="Eogonek" unicode="&#x118;" horiz-adv-x="467" 
d="M436 700v-122h-241v-162h192v-122h-192v-172h241v-122h-48q-32 -26 -32 -56q0 -33 44 -33q21 0 36 4v-68q-34 -12 -73 -12q-115 0 -115 71q0 58 81 94h-274v700h381z" />
    <glyph glyph-name="eogonek" unicode="&#x119;" horiz-adv-x="475" 
d="M239 520q96 0 147.5 -48.5t51.5 -139.5v-110h-264v-59q0 -62 68 -62q67 0 67 67h129q0 -91 -61 -137q-45 -55 -45 -87q0 -33 44 -33q21 0 36 4v-68q-35 -12 -73 -12q-115 0 -115 71q0 55 77 90q-29 -6 -62 -6q-97 0 -148.5 49t-51.5 139v154q0 91 51.5 139.5t148.5 48.5z
M174 349v-32h132v32q0 61 -66 61t-66 -61z" />
    <glyph glyph-name="Ecaron" unicode="&#x11a;" horiz-adv-x="467" 
d="M314 758h-136l-102 135h111l59 -59l59 59h111zM436 0h-381v700h381v-122h-241v-162h192v-122h-192v-172h241v-122z" />
    <glyph glyph-name="ecaron" unicode="&#x11b;" horiz-adv-x="475" 
d="M408 713l-102 -135h-136l-102 135h111l59 -59l59 59h111zM239 520q96 0 147.5 -48.5t51.5 -139.5v-110h-264v-59q0 -62 68 -62q67 0 67 67h129q0 -82 -53 -130t-146 -48q-97 0 -148.5 49t-51.5 139v154q0 91 51.5 139.5t148.5 48.5zM174 349v-32h132v32q0 61 -66 61
t-66 -61z" />
    <glyph glyph-name="Gcircumflex" unicode="&#x11c;" horiz-adv-x="502" 
d="M192 758h-111l102 135h136l102 -135h-111l-59 59zM44 190v318q0 95 55 148.5t153 53.5t153 -53.5t55 -148.5v-40h-132v45q0 75 -72 75t-72 -75v-326q0 -75 72 -75t72 75v86h-69v127h201v-210q0 -94 -55 -147t-153 -53t-153 53t-55 147z" />
    <glyph glyph-name="gcircumflex" unicode="&#x11d;" horiz-adv-x="489" 
d="M290 578l-59 59l-59 -59h-111l102 135h136l102 -135h-111zM316 420l3 90h117v-492q0 -91 -46.5 -137t-153.5 -46q-184 0 -193 146h130q5 -36 61 -36q37 0 52 16.5t15 56.5v75q-38 -65 -122 -65q-68 0 -104 43t-36 127v152q0 84 36 127t104 43q107 0 137 -100zM233 144
q68 0 68 90v80q0 90 -68 90q-32 0 -45.5 -17.5t-13.5 -58.5v-108q0 -41 13.5 -58.5t45.5 -17.5z" />
    <glyph glyph-name="Gbreve" unicode="&#x11e;" horiz-adv-x="502" 
d="M251 755q-68 0 -107 37t-42 101h83q7 -48 66 -48t69 48h82q-2 -63 -42 -100.5t-109 -37.5zM44 190v318q0 95 55 148.5t153 53.5t153 -53.5t55 -148.5v-40h-132v45q0 75 -72 75t-72 -75v-326q0 -75 72 -75t72 75v86h-69v127h201v-210q0 -94 -55 -147t-153 -53t-153 53
t-55 147z" />
    <glyph glyph-name="gbreve" unicode="&#x11f;" horiz-adv-x="489" 
d="M231 575q-68 0 -107 37t-42 101h83q7 -48 66 -48t69 48h82q-2 -63 -42 -100.5t-109 -37.5zM316 420l3 90h117v-492q0 -91 -46.5 -137t-153.5 -46q-184 0 -193 146h130q5 -36 61 -36q37 0 52 16.5t15 56.5v75q-38 -65 -122 -65q-68 0 -104 43t-36 127v152q0 84 36 127
t104 43q107 0 137 -100zM233 144q68 0 68 90v80q0 90 -68 90q-32 0 -45.5 -17.5t-13.5 -58.5v-108q0 -41 13.5 -58.5t45.5 -17.5z" />
    <glyph glyph-name="Gdotaccent" unicode="&#x120;" horiz-adv-x="502" 
d="M319 758h-135v135h135v-135zM44 190v318q0 95 55 148.5t153 53.5t153 -53.5t55 -148.5v-40h-132v45q0 75 -72 75t-72 -75v-326q0 -75 72 -75t72 75v86h-69v127h201v-210q0 -94 -55 -147t-153 -53t-153 53t-55 147z" />
    <glyph glyph-name="gdotaccent" unicode="&#x121;" horiz-adv-x="489" 
d="M164 713h135v-135h-135v135zM316 420l3 90h117v-492q0 -91 -46.5 -137t-153.5 -46q-184 0 -193 146h130q5 -36 61 -36q37 0 52 16.5t15 56.5v75q-38 -65 -122 -65q-68 0 -104 43t-36 127v152q0 84 36 127t104 43q107 0 137 -100zM233 144q68 0 68 90v80q0 90 -68 90
q-32 0 -45.5 -17.5t-13.5 -58.5v-108q0 -41 13.5 -58.5t45.5 -17.5z" />
    <glyph glyph-name="uni0122" unicode="&#x122;" horiz-adv-x="502" 
d="M44 190v318q0 95 55 148.5t153 53.5t153 -53.5t55 -148.5v-40h-132v45q0 75 -72 75t-72 -75v-326q0 -75 72 -75t72 75v86h-69v127h201v-210q0 -94 -55 -147t-153 -53t-153 53t-55 147zM247 -240h-50l51 69h-63v116h135v-104z" />
    <glyph glyph-name="uni0123" unicode="&#x123;" horiz-adv-x="489" 
d="M235 695h63v-117h-135v104l64 81h50zM316 420l3 90h117v-492q0 -91 -46.5 -137t-153.5 -46q-184 0 -193 146h130q5 -36 61 -36q37 0 52 16.5t15 56.5v75q-38 -65 -122 -65q-68 0 -104 43t-36 127v152q0 84 36 127t104 43q107 0 137 -100zM233 144q68 0 68 90v80
q0 90 -68 90q-32 0 -45.5 -17.5t-13.5 -58.5v-108q0 -41 13.5 -58.5t45.5 -17.5z" />
    <glyph glyph-name="Hcircumflex" unicode="&#x124;" horiz-adv-x="540" 
d="M211 758h-111l102 135h136l102 -135h-111l-59 59zM195 0h-140v700h140v-284h150v284h140v-700h-140v294h-150v-294z" />
    <glyph glyph-name="hcircumflex" unicode="&#x125;" horiz-adv-x="495" 
d="M179 758l-59 59l-59 -59h-111l102 135h136l102 -135h-111zM308 520q139 0 139 -170v-350h-135v328q0 42 -13 59t-45 17q-66 0 -66 -90v-314h-135v700h135v-244q37 64 120 64z" />
    <glyph glyph-name="Hbar" unicode="&#x126;" horiz-adv-x="558" 
d="M494 601h50v-115h-50v-486h-140v294h-150v-294h-140v486h-50v115h50v99h140v-99h150v99h140v-99zM204 416h150v70h-150v-70z" />
    <glyph glyph-name="hbar" unicode="&#x127;" horiz-adv-x="495" 
d="M308 520q139 0 139 -170v-350h-135v328q0 42 -13 59t-45 17q-66 0 -66 -90v-314h-135v557h-52v89h52v54h135v-54h85v-89h-85v-101q37 64 120 64z" />
    <glyph glyph-name="Itilde" unicode="&#x128;" horiz-adv-x="250" 
d="M23 750l-68 41q48 107 115 107q32 0 69 -28q26 -19 41 -19q23 0 47 49l68 -40q-48 -107 -115 -107q-32 0 -69 28q-26 19 -41 19q-24 0 -47 -50zM195 0h-140v700h140v-700z" />
    <glyph glyph-name="itilde" unicode="&#x129;" horiz-adv-x="241" 
d="M18 570l-68 41q48 107 115 107q32 0 69 -28q26 -19 41 -19q23 0 47 49l68 -40q-48 -107 -115 -107q-32 0 -69 28q-26 19 -41 19q-24 0 -47 -50zM188 0h-135v510h135v-510z" />
    <glyph glyph-name="Imacron" unicode="&#x12a;" horiz-adv-x="250" 
d="M271 776h-292v99h292v-99zM195 0h-140v700h140v-700z" />
    <glyph glyph-name="imacron" unicode="&#x12b;" horiz-adv-x="241" 
d="M266 596h-292v99h292v-99zM188 0h-135v510h135v-510z" />
    <glyph glyph-name="Ibreve" unicode="&#x12c;" horiz-adv-x="250" 
d="M125 755q-68 0 -107 37t-42 101h83q7 -48 66 -48t69 48h82q-2 -63 -42 -100.5t-109 -37.5zM195 0h-140v700h140v-700z" />
    <glyph glyph-name="ibreve" unicode="&#x12d;" horiz-adv-x="241" 
d="M120 575q-68 0 -107 37t-42 101h83q8 -48 66 -48t69 48h82q-2 -63 -42 -100.5t-109 -37.5zM188 0h-135v510h135v-510z" />
    <glyph glyph-name="Iogonek" unicode="&#x12e;" horiz-adv-x="250" 
d="M178 -89q19 0 34 4v-68q-34 -12 -66 -12q-115 0 -115 71q0 56 69 94h-45v700h140v-700h-37q-19 -22 -19 -56q0 -33 39 -33z" />
    <glyph glyph-name="iogonek" unicode="&#x12f;" horiz-adv-x="241" 
d="M53 713h135v-135h-135v135zM172 -89q19 0 34 4v-68q-34 -12 -66 -12q-115 0 -115 71q0 56 69 94h-41v510h135v-510h-36q-19 -22 -19 -56q0 -33 39 -33z" />
    <glyph glyph-name="Idot" unicode="&#x130;" horiz-adv-x="250" 
d="M193 758h-135v135h135v-135zM195 0h-140v700h140v-700z" />
    <glyph glyph-name="dotlessi" unicode="&#x131;" horiz-adv-x="241" 
d="M188 0h-135v510h135v-510z" />
    <glyph glyph-name="IJ" unicode="&#x132;" horiz-adv-x="591" 
d="M195 0h-140v700h140v-700zM332 -5q-35 0 -59 4v123q22 -5 43 -5q45 0 65 17t20 55v511h140v-507q0 -103 -50 -150.5t-159 -47.5z" />
    <glyph glyph-name="ij" unicode="&#x133;" horiz-adv-x="482" 
d="M188 578h-135v135h135v-135zM429 578h-135v135h135v-135zM188 0h-135v510h135v-510zM290 -165q-41 0 -67 13v109q17 -6 38 -6q33 0 33 35v524h135v-534q0 -141 -139 -141z" />
    <glyph glyph-name="Jcircumflex" unicode="&#x134;" horiz-adv-x="341" 
d="M156 758h-111l102 135h136l102 -135h-111l-59 59zM82 -5q-35 0 -59 4v123q22 -5 43 -5q45 0 65 17t20 55v511h140v-507q0 -103 -50 -150.5t-159 -47.5z" />
    <glyph glyph-name="jcircumflex" unicode="&#x135;" horiz-adv-x="241" 
d="M61 578h-111l102 135h136l102 -135h-111l-59 59zM49 -165q-41 0 -67 13v109q16 -6 38 -6q33 0 33 35v524h135v-534q0 -141 -139 -141z" />
    <glyph glyph-name="uni0136" unicode="&#x136;" horiz-adv-x="534" 
d="M512 700l-164 -260l167 -440h-150l-113 305l-57 -89v-216h-140v700h140v-285l175 285h142zM275 -171h-63v116h135v-104l-73 -81h-50z" />
    <glyph glyph-name="uni0137" unicode="&#x137;" horiz-adv-x="506" 
d="M481 510l-146 -188l154 -322h-149l-98 211l-54 -70v-141h-135v700h135v-388l141 198h152zM261 -171h-63v116h135v-104l-73 -81h-50z" />
    <glyph glyph-name="kgreenlandic" unicode="&#x138;" horiz-adv-x="506" 
d="M489 0h-149l-98 211l-54 -70v-141h-135v510h135v-198l141 198h152l-146 -188z" />
    <glyph glyph-name="Lacute" unicode="&#x139;" horiz-adv-x="448" 
d="M173 758h-111l89 135h158zM425 0h-370v700h140v-578h230v-122z" />
    <glyph glyph-name="lacute" unicode="&#x13a;" horiz-adv-x="241" 
d="M155 758h-111l89 135h158zM188 0h-135v700h135v-700z" />
    <glyph glyph-name="uni013B" unicode="&#x13b;" horiz-adv-x="448" 
d="M425 0h-370v700h140v-578h230v-122zM235 -240h-50l51 69h-63v116h135v-104z" />
    <glyph glyph-name="uni013C" unicode="&#x13c;" horiz-adv-x="241" 
d="M188 0h-135v700h135v-700zM115 -240h-50l51 69h-63v116h135v-104z" />
    <glyph glyph-name="Lcaron" unicode="&#x13d;" horiz-adv-x="448" 
d="M425 0h-370v700h140v-578h230v-122zM339 438h-57l37 132h-51v130h130v-116z" />
    <glyph glyph-name="lcaron" unicode="&#x13e;" horiz-adv-x="335" 
d="M188 0h-135v700h135v-700zM294 438h-57l37 132h-51v130h130v-116z" />
    <glyph glyph-name="Ldot" unicode="&#x13f;" horiz-adv-x="448" 
d="M425 0h-370v700h140v-578h230v-122zM412 327h-126v126h126v-126z" />
    <glyph glyph-name="ldot" unicode="&#x140;" horiz-adv-x="360" 
d="M188 0h-135v700h135v-700zM369 280h-140v140h140v-140z" />
    <glyph glyph-name="Lslash" unicode="&#x141;" horiz-adv-x="472" 
d="M219 293v-171h230v-122h-370v143l-65 -70v144l65 70v413h140v-263l128 137v-144z" />
    <glyph glyph-name="lslash" unicode="&#x142;" horiz-adv-x="262" 
d="M198 478l51 54v-140l-51 -54v-338h-135v194l-47 -50v140l47 50v366h135v-222z" />
    <glyph glyph-name="Nacute" unicode="&#x143;" horiz-adv-x="548" 
d="M310 758h-111l89 135h158zM180 0h-125v700h173l140 -405v405h125v-700h-141l-172 498v-498z" />
    <glyph glyph-name="nacute" unicode="&#x144;" horiz-adv-x="495" 
d="M262 713h158l-136 -135h-111zM308 520q139 0 139 -170v-350h-135v328q0 42 -13 59t-45 17q-66 0 -66 -90v-314h-135v510h117l3 -90q30 100 135 100z" />
    <glyph glyph-name="uni0145" unicode="&#x145;" horiz-adv-x="548" 
d="M180 0h-125v700h173l140 -405v405h125v-700h-141l-172 498v-498zM270 -240h-50l51 69h-63v116h135v-104z" />
    <glyph glyph-name="uni0146" unicode="&#x146;" horiz-adv-x="495" 
d="M308 520q139 0 139 -170v-350h-135v328q0 42 -13 59t-45 17q-66 0 -66 -90v-314h-135v510h117l3 -90q30 100 135 100zM245 -171h-63v116h135v-104l-73 -81h-50z" />
    <glyph glyph-name="Ncaron" unicode="&#x147;" horiz-adv-x="548" 
d="M343 758h-136l-102 135h111l59 -59l59 59h111zM180 0h-125v700h173l140 -405v405h125v-700h-141l-172 498v-498z" />
    <glyph glyph-name="ncaron" unicode="&#x148;" horiz-adv-x="495" 
d="M419 713l-102 -135h-136l-102 135h111l59 -59l59 59h111zM308 520q139 0 139 -170v-350h-135v328q0 42 -13 59t-45 17q-66 0 -66 -90v-314h-135v510h117l3 -90q30 100 135 100z" />
    <glyph glyph-name="napostrophe" unicode="&#x149;" horiz-adv-x="505" 
d="M-67 700h134v-121l-61 -141h-57l37 127h-53v135zM318 520q139 0 139 -170v-350h-135v328q0 42 -13 59t-45 17q-66 0 -66 -90v-314h-135v510h117l3 -90q30 100 135 100z" />
    <glyph glyph-name="Eng" unicode="&#x14a;" horiz-adv-x="548" 
d="M310 -165q-36 0 -65 3v113q20 -2 46 -2q34 0 48.5 13t14.5 43q0 25 -8 46l-166 463v-514h-125v700h173l141 -365v365h124v-687q0 -178 -183 -178z" />
    <glyph glyph-name="eng" unicode="&#x14b;" horiz-adv-x="495" 
d="M308 520q139 0 139 -170v-357q0 -158 -158 -158q-42 0 -74 13v114q20 -11 46 -11q28 0 39.5 12.5t11.5 43.5v321q0 42 -13 59t-45 17q-66 0 -66 -90v-314h-135v510h117l3 -90q30 100 135 100z" />
    <glyph glyph-name="Omacron" unicode="&#x14c;" horiz-adv-x="512" 
d="M402 775h-292v99h292v-99zM44 192v316q0 96 55 149t157 53t157 -53t55 -149v-316q0 -96 -55 -149t-157 -53t-157 53t-55 149zM328 187v326q0 75 -72 75t-72 -75v-326q0 -75 72 -75t72 75z" />
    <glyph glyph-name="omacron" unicode="&#x14d;" horiz-adv-x="474" 
d="M383 596h-292v99h292v-99zM39 178v154q0 91 51.5 139.5t146.5 48.5t146.5 -48.5t51.5 -139.5v-154q0 -91 -51.5 -139.5t-146.5 -48.5t-146.5 48.5t-51.5 139.5zM300 168v174q0 62 -63 62t-63 -62v-174q0 -62 63 -62t63 62z" />
    <glyph glyph-name="Obreve" unicode="&#x14e;" horiz-adv-x="512" 
d="M256 754q-68 0 -107 37t-42 101h83q8 -48 66 -48t69 48h82q-2 -63 -42 -100.5t-109 -37.5zM44 192v316q0 96 55 149t157 53t157 -53t55 -149v-316q0 -96 -55 -149t-157 -53t-157 53t-55 149zM328 187v326q0 75 -72 75t-72 -75v-326q0 -75 72 -75t72 75z" />
    <glyph glyph-name="obreve" unicode="&#x14f;" horiz-adv-x="474" 
d="M237 575q-68 0 -107 37t-42 101h83q7 -48 66 -48t69 48h82q-2 -63 -42 -100.5t-109 -37.5zM39 178v154q0 91 51.5 139.5t146.5 48.5t146.5 -48.5t51.5 -139.5v-154q0 -91 -51.5 -139.5t-146.5 -48.5t-146.5 48.5t-51.5 139.5zM300 168v174q0 62 -63 62t-63 -62v-174
q0 -62 63 -62t63 62z" />
    <glyph glyph-name="Ohungarumlaut" unicode="&#x150;" horiz-adv-x="512" 
d="M196 757h-105l89 135h152zM379 757h-105l89 135h152zM44 192v316q0 96 55 149t157 53t157 -53t55 -149v-316q0 -96 -55 -149t-157 -53t-157 53t-55 149zM328 187v326q0 75 -72 75t-72 -75v-326q0 -75 72 -75t72 75z" />
    <glyph glyph-name="ohungarumlaut" unicode="&#x151;" horiz-adv-x="474" 
d="M177 578h-105l89 135h152zM360 578h-105l89 135h152zM39 178v154q0 91 51.5 139.5t146.5 48.5t146.5 -48.5t51.5 -139.5v-154q0 -91 -51.5 -139.5t-146.5 -48.5t-146.5 48.5t-51.5 139.5zM300 168v174q0 62 -63 62t-63 -62v-174q0 -62 63 -62t63 62z" />
    <glyph glyph-name="OE" unicode="&#x152;" horiz-adv-x="737" 
d="M706 0h-454q-102 0 -155.5 50.5t-53.5 147.5v304q0 97 53.5 147.5t155.5 50.5h454v-122h-241v-164h191v-120h-191v-172h241v-122zM254 122h71v456h-71q-37 0 -54 -17.5t-17 -56.5v-308q0 -39 17 -56.5t54 -17.5z" />
    <glyph glyph-name="oe" unicode="&#x153;" horiz-adv-x="737" 
d="M511 520q90 0 139 -48.5t49 -139.5v-110h-264v-59q0 -62 68 -62q67 0 67 67h129q-3 -86 -51.5 -132t-138.5 -46q-99 0 -138 61q-40 -61 -144 -61q-90 0 -139 48.5t-49 139.5v154q0 91 49 139.5t139 48.5q103 0 144 -62q41 62 140 62zM435 349v-32h132v32q0 61 -66 61
t-66 -61zM300 168v174q0 62 -63 62t-63 -62v-174q0 -62 63 -62t63 62z" />
    <glyph glyph-name="Racute" unicode="&#x154;" horiz-adv-x="518" 
d="M281 758h-111l89 135h158zM195 0h-140v700h207q105 0 156 -43.5t51 -134.5v-27q0 -110 -91 -144v-3q48 -13 70 -53.5t22 -115.5v-82q0 -64 16 -97h-143q-12 28 -12 98v91q0 50 -19.5 70.5t-68.5 20.5h-48v-280zM195 578v-176h51q43 0 63 18.5t20 59.5v27q0 71 -68 71h-66
z" />
    <glyph glyph-name="racute" unicode="&#x155;" horiz-adv-x="357" 
d="M199 713h158l-136 -135h-111zM170 510l4 -104q24 114 124 114q24 0 38 -6v-130q-14 2 -34 2q-114 0 -114 -124v-262h-135v510h117z" />
    <glyph glyph-name="uni0156" unicode="&#x156;" horiz-adv-x="518" 
d="M195 0h-140v700h207q105 0 156 -43.5t51 -134.5v-27q0 -110 -91 -144v-3q48 -13 70 -53.5t22 -115.5v-82q0 -64 16 -97h-143q-12 28 -12 98v91q0 50 -19.5 70.5t-68.5 20.5h-48v-280zM195 578v-176h51q43 0 63 18.5t20 59.5v27q0 71 -68 71h-66zM261 -240h-50l51 69h-63
v116h135v-104z" />
    <glyph glyph-name="uni0157" unicode="&#x157;" horiz-adv-x="357" 
d="M298 520q24 0 38 -6v-130q-14 2 -34 2q-114 0 -114 -124v-262h-135v510h117l4 -104q24 114 124 114zM116 -171h-63v116h135v-104l-73 -81h-50z" />
    <glyph glyph-name="Rcaron" unicode="&#x158;" horiz-adv-x="518" 
d="M314 758h-136l-102 135h111l59 -59l59 59h111zM195 0h-140v700h207q105 0 156 -43.5t51 -134.5v-27q0 -110 -91 -144v-3q48 -13 70 -53.5t22 -115.5v-82q0 -64 16 -97h-143q-12 28 -12 98v91q0 50 -19.5 70.5t-68.5 20.5h-48v-280zM195 578v-176h51q43 0 63 18.5t20 59.5
v27q0 71 -68 71h-66z" />
    <glyph glyph-name="rcaron" unicode="&#x159;" horiz-adv-x="357" 
d="M356 713l-102 -135h-136l-102 135h111l59 -59l59 59h111zM170 510l4 -104q24 114 124 114q24 0 38 -6v-130q-14 2 -34 2q-114 0 -114 -124v-262h-135v510h117z" />
    <glyph glyph-name="Sacute" unicode="&#x15a;" horiz-adv-x="481" 
d="M274 758h-111l89 135h158zM238 -10q-99 0 -152.5 51t-53.5 141v31h132v-31q0 -35 18.5 -54.5t53.5 -19.5q33 0 53 19.5t20 54.5q0 44 -22 63q-22 20 -97 58q-88 42 -122 91q-33 49 -33 125q0 88 54.5 139.5t152.5 51.5t150 -51t52 -142v-20h-132v19q0 76 -69 76
q-32 0 -50 -19t-18 -52q0 -39 23 -59t98 -56q89 -42 121 -92t32 -129q0 -91 -55.5 -143t-155.5 -52z" />
    <glyph glyph-name="sacute" unicode="&#x15b;" horiz-adv-x="440" 
d="M251 578h-111l89 135h158zM225 -10q-92 0 -143.5 43t-51.5 118v15h129v-16q0 -54 60 -54q58 0 58 50q0 17 -14 28q-4 3 -7.5 5.5t-6.5 4t-8 3.5l-7.5 3t-10.5 3t-11 3t-14 3.5t-16 3.5q-71 16 -108 52t-37 105q0 75 47.5 117.5t134.5 42.5q83 0 132 -41t49 -110v-12h-127
v12q0 45 -53 45q-23 0 -37.5 -11.5t-14.5 -33.5q0 -24 21 -36.5t78 -25.5q62 -16 98 -42q46 -31 46 -107q0 -79 -48.5 -123.5t-137.5 -44.5z" />
    <glyph glyph-name="Scircumflex" unicode="&#x15c;" horiz-adv-x="481" 
d="M180 758h-111l102 135h136l102 -135h-111l-59 59zM238 -10q-99 0 -152.5 51t-53.5 141v31h132v-31q0 -35 18.5 -54.5t53.5 -19.5q33 0 53 19.5t20 54.5q0 44 -22 63q-22 20 -97 58q-88 42 -122 91q-33 49 -33 125q0 88 54.5 139.5t152.5 51.5t150 -51t52 -142v-20h-132
v19q0 76 -69 76q-32 0 -50 -19t-18 -52q0 -39 23 -59t98 -56q89 -42 121 -92t32 -129q0 -91 -55.5 -143t-155.5 -52z" />
    <glyph glyph-name="scircumflex" unicode="&#x15d;" horiz-adv-x="440" 
d="M157 578h-111l102 135h136l102 -135h-111l-59 59zM225 -10q-92 0 -143.5 43t-51.5 118v15h129v-16q0 -54 60 -54q58 0 58 50q0 17 -14 28q-4 3 -7.5 5.5t-6.5 4t-8 3.5l-7.5 3t-10.5 3t-11 3t-14 3.5t-16 3.5q-71 16 -108 52t-37 105q0 75 47.5 117.5t134.5 42.5
q83 0 132 -41t49 -110v-12h-127v12q0 45 -53 45q-23 0 -37.5 -11.5t-14.5 -33.5q0 -24 21 -36.5t78 -25.5q62 -16 98 -42q46 -31 46 -107q0 -79 -48.5 -123.5t-137.5 -44.5z" />
    <glyph glyph-name="Scedilla" unicode="&#x15e;" horiz-adv-x="481" 
d="M449 185q0 -85 -48 -136t-136 -58v-34q40 0 59 -12.5t19 -41.5q0 -39 -26 -53.5t-86 -14.5q-56 0 -81 15.5t-25 49.5v11h76v-9q0 -26 30 -26q35 0 35 30q0 31 -44 31h-8v54q-88 6 -135 56.5t-47 134.5v31h132v-31q0 -35 18.5 -54.5t53.5 -19.5q33 0 53 19.5t20 54.5
q0 44 -22 63q-22 20 -97 58q-88 42 -122 91q-33 49 -33 125q0 88 54.5 139.5t152.5 51.5t150 -51t52 -142v-20h-132v19q0 76 -69 76q-32 0 -50 -19t-18 -52q0 -39 23 -59t98 -56q89 -42 121 -92t32 -129z" />
    <glyph glyph-name="scedilla" unicode="&#x15f;" horiz-adv-x="440" 
d="M411 158q0 -74 -43 -118t-122 -49v-34q40 0 59 -12.5t19 -41.5q0 -39 -26 -53.5t-86 -14.5q-56 0 -81 15.5t-25 49.5v11h76v-9q0 -26 30 -26q35 0 35 30q0 31 -44 31h-8v54q-78 7 -121.5 49t-43.5 111v15h129v-16q0 -54 60 -54q58 0 58 50q0 17 -14 28q-4 3 -7.5 5.5
t-6.5 4t-8 3.5l-7.5 3t-10.5 3t-11 3t-14 3.5t-16 3.5q-71 16 -108 52t-37 105q0 75 47.5 117.5t134.5 42.5q83 0 132 -41t49 -110v-12h-127v12q0 45 -53 45q-23 0 -37.5 -11.5t-14.5 -33.5q0 -24 21 -36.5t78 -25.5q62 -16 98 -42q46 -31 46 -107z" />
    <glyph glyph-name="Scaron" unicode="&#x160;" horiz-adv-x="481" 
d="M307 758h-136l-102 135h111l59 -59l59 59h111zM238 -10q-99 0 -152.5 51t-53.5 141v31h132v-31q0 -35 18.5 -54.5t53.5 -19.5q33 0 53 19.5t20 54.5q0 44 -22 63q-22 20 -97 58q-88 42 -122 91q-33 49 -33 125q0 88 54.5 139.5t152.5 51.5t150 -51t52 -142v-20h-132v19
q0 76 -69 76q-32 0 -50 -19t-18 -52q0 -39 23 -59t98 -56q89 -42 121 -92t32 -129q0 -91 -55.5 -143t-155.5 -52z" />
    <glyph glyph-name="scaron" unicode="&#x161;" horiz-adv-x="440" 
d="M284 578h-136l-102 135h111l59 -59l59 59h111zM225 -10q-92 0 -143.5 43t-51.5 118v15h129v-16q0 -54 60 -54q58 0 58 50q0 17 -14 28q-4 3 -7.5 5.5t-6.5 4t-8 3.5l-7.5 3t-10.5 3t-11 3t-14 3.5t-16 3.5q-71 16 -108 52t-37 105q0 75 47.5 117.5t134.5 42.5
q83 0 132 -41t49 -110v-12h-127v12q0 45 -53 45q-23 0 -37.5 -11.5t-14.5 -33.5q0 -24 21 -36.5t78 -25.5q62 -16 98 -42q46 -31 46 -107q0 -79 -48.5 -123.5t-137.5 -44.5z" />
    <glyph glyph-name="uni0162" unicode="&#x162;" horiz-adv-x="478" 
d="M309 578v-578h-44v-43q40 0 59 -12.5t19 -41.5q0 -39 -26 -53.5t-86 -14.5q-56 0 -81 15.5t-25 49.5v11h76v-9q0 -26 30 -26q35 0 35 30q0 31 -44 31h-8v63h-45v578h-146v122h432v-122h-146z" />
    <glyph glyph-name="uni0163" unicode="&#x163;" horiz-adv-x="361" 
d="M328 510v-110h-98v-234q0 -30 12 -43t40 -13q24 0 46 7v-114q-32 -13 -74 -13q-15 0 -19 1v-34q40 0 59 -12.5t19 -41.5q0 -39 -26 -53.5t-86 -14.5q-56 0 -81 15.5t-25 49.5v11h76v-9q0 -26 30 -26q35 0 35 30q0 31 -44 31h-8v63q-89 29 -89 148v252h-73v110h78l9 130
h121v-130h98z" />
    <glyph glyph-name="Tcaron" unicode="&#x164;" horiz-adv-x="478" 
d="M307 758h-136l-102 135h111l59 -59l59 59h111zM309 0h-140v578h-146v122h432v-122h-146v-578z" />
    <glyph glyph-name="tcaron" unicode="&#x165;" horiz-adv-x="360" 
d="M248 680v130h130v-116l-59 -146h-57l37 132h-51zM109 640h121v-130h98v-110h-98v-234q0 -30 12 -43t40 -13q24 0 46 7v-114q-32 -13 -74 -13q-159 0 -159 158v252h-73v110h78z" />
    <glyph glyph-name="Tbar" unicode="&#x166;" horiz-adv-x="478" 
d="M455 700v-122h-146v-163h94v-110h-94v-305h-140v305h-94v110h94v163h-146v122h432z" />
    <glyph glyph-name="tbar" unicode="&#x167;" horiz-adv-x="361" 
d="M328 510v-110h-98v-91h76v-89h-76v-54q0 -30 12 -43t40 -13q24 0 46 7v-114q-32 -13 -74 -13q-159 0 -159 158v72h-61v89h61v91h-73v110h78l9 130h121v-130h98z" />
    <glyph glyph-name="Utilde" unicode="&#x168;" horiz-adv-x="517" 
d="M156 750l-68 41q48 107 115 107q32 0 69 -28q26 -19 41 -19q23 0 47 49l68 -40q-48 -107 -115 -107q-32 0 -69 28q-26 19 -41 19q-24 0 -47 -50zM50 192v508h140v-516q0 -72 71 -72t71 72v516h135v-508q0 -97 -54 -149.5t-155 -52.5t-154.5 52.5t-53.5 149.5z" />
    <glyph glyph-name="utilde" unicode="&#x169;" horiz-adv-x="495" 
d="M193 620q-24 0 -47 -50l-68 41q48 107 115 107q32 0 69 -28q26 -19 41 -19q23 0 47 49l68 -40q-48 -107 -115 -107q-32 0 -69 28q-26 19 -41 19zM307 196v314h135v-510h-117l-3 90q-30 -100 -135 -100q-139 0 -139 170v350h135v-328q0 -42 13 -59t45 -17q66 0 66 90z" />
    <glyph glyph-name="Umacron" unicode="&#x16a;" horiz-adv-x="517" 
d="M404 776h-292v99h292v-99zM50 192v508h140v-516q0 -72 71 -72t71 72v516h135v-508q0 -97 -54 -149.5t-155 -52.5t-154.5 52.5t-53.5 149.5z" />
    <glyph glyph-name="umacron" unicode="&#x16b;" horiz-adv-x="495" 
d="M102 695h292v-99h-292v99zM307 196v314h135v-510h-117l-3 90q-30 -100 -135 -100q-139 0 -139 170v350h135v-328q0 -42 13 -59t45 -17q66 0 66 90z" />
    <glyph glyph-name="Ubreve" unicode="&#x16c;" horiz-adv-x="517" 
d="M258 755q-68 0 -107 37t-42 101h83q8 -48 66 -48t69 48h82q-2 -63 -42 -100.5t-109 -37.5zM50 192v508h140v-516q0 -72 71 -72t71 72v516h135v-508q0 -97 -54 -149.5t-155 -52.5t-154.5 52.5t-53.5 149.5z" />
    <glyph glyph-name="ubreve" unicode="&#x16d;" horiz-adv-x="495" 
d="M248 575q-68 0 -107 37t-42 101h83q8 -48 66 -48t69 48h82q-2 -63 -42 -100.5t-109 -37.5zM307 196v314h135v-510h-117l-3 90q-30 -100 -135 -100q-139 0 -139 170v350h135v-328q0 -42 13 -59t45 -17q66 0 66 90z" />
    <glyph glyph-name="Uring" unicode="&#x16e;" horiz-adv-x="517" 
d="M338 783q-32 -32 -80 -32q-47 0 -81 32q-32 34 -32 80q0 47 32 79q33 33 81 33t80 -33q33 -32 33 -79t-33 -80zM299 863q1 27 -20 38t-42 0t-20 -38q-2 -28 19.5 -39.5t43 0t19.5 39.5zM50 192v508h140v-516q0 -72 71 -72t71 72v516h135v-508q0 -97 -54 -149.5
t-155 -52.5t-154.5 52.5t-53.5 149.5z" />
    <glyph glyph-name="uring" unicode="&#x16f;" horiz-adv-x="495" 
d="M328 603q-32 -32 -80 -32q-47 0 -81 32q-32 34 -32 80q0 47 32 79q33 33 81 33t80 -33q33 -32 33 -79t-33 -80zM207 683q-2 -28 19.5 -39.5t43 0t19.5 39.5q1 27 -20 38t-42 0t-20 -38zM307 196v314h135v-510h-117l-3 90q-30 -100 -135 -100q-139 0 -139 170v350h135
v-328q0 -42 13 -59t45 -17q66 0 66 90z" />
    <glyph glyph-name="Uhungarumlaut" unicode="&#x170;" horiz-adv-x="517" 
d="M198 758h-105l89 135h152zM381 758h-105l89 135h152zM50 192v508h140v-516q0 -72 71 -72t71 72v516h135v-508q0 -97 -54 -149.5t-155 -52.5t-154.5 52.5t-53.5 149.5z" />
    <glyph glyph-name="uhungarumlaut" unicode="&#x171;" horiz-adv-x="495" 
d="M172 713h152l-136 -135h-105zM507 713l-136 -135h-105l89 135h152zM307 196v314h135v-510h-117l-3 90q-30 -100 -135 -100q-139 0 -139 170v350h135v-328q0 -42 13 -59t45 -17q66 0 66 90z" />
    <glyph glyph-name="Uogonek" unicode="&#x172;" horiz-adv-x="517" 
d="M332 184v516h135v-508q0 -154 -127 -191q-33 -25 -33 -57q0 -33 44 -33q21 0 36 4v-68q-35 -12 -73 -12q-115 0 -115 71q0 51 61 84h-2q-101 0 -154.5 52.5t-53.5 149.5v508h140v-516q0 -72 71 -72t71 72z" />
    <glyph glyph-name="uogonek" unicode="&#x173;" horiz-adv-x="495" 
d="M424 -89q21 0 36 4v-68q-34 -12 -73 -12q-115 0 -115 71q0 58 81 94h-28l-3 90q-30 -100 -135 -100q-139 0 -139 170v350h135v-328q0 -42 13 -59t45 -17q66 0 66 90v314h135v-510h-30q-32 -26 -32 -56q0 -33 44 -33z" />
    <glyph glyph-name="Wcircumflex" unicode="&#x174;" horiz-adv-x="716" 
d="M300 758h-111l102 135h136l102 -135h-111l-59 59zM299 0h-184l-91 700h134l64 -528l71 528h144l72 -528l64 528h120l-91 -700h-173l-65 472z" />
    <glyph glyph-name="wcircumflex" unicode="&#x175;" horiz-adv-x="687" 
d="M285 578h-111l102 135h136l102 -135h-111l-59 59zM287 0h-169l-98 510h134l65 -365l63 365h136l64 -365l64 365h121l-97 -510h-161l-61 341z" />
    <glyph glyph-name="Ycircumflex" unicode="&#x176;" horiz-adv-x="512" 
d="M197 758h-111l102 135h136l102 -135h-111l-59 59zM326 0h-140v289l-169 411h151l94 -249l95 249h138l-169 -411v-289z" />
    <glyph glyph-name="ycircumflex" unicode="&#x177;" horiz-adv-x="467" 
d="M295 578l-59 59l-59 -59h-111l102 135h136l102 -135h-111zM245 180l73 330h131l-144 -544q-19 -68 -61.5 -99.5t-115.5 -31.5q-49 0 -79 14v115q26 -13 62 -13q46 0 61 40l-154 519h141z" />
    <glyph glyph-name="Ydieresis" unicode="&#x178;" horiz-adv-x="512" 
d="M229 758h-131v135h131v-135zM414 758h-131v135h131v-135zM326 0h-140v289l-169 411h151l94 -249l95 249h138l-169 -411v-289z" />
    <glyph glyph-name="Zacute" unicode="&#x179;" horiz-adv-x="472" 
d="M275 758h-111l89 135h158zM440 0h-411v119l258 459h-246v122h399v-119l-259 -459h259v-122z" />
    <glyph glyph-name="zacute" unicode="&#x17a;" horiz-adv-x="433" 
d="M256 578h-111l89 135h158zM400 0h-370v111l227 285h-214v114h357v-111l-228 -286h228v-113z" />
    <glyph glyph-name="Zdotaccent" unicode="&#x17b;" horiz-adv-x="472" 
d="M308 758h-135v135h135v-135zM440 0h-411v119l258 459h-246v122h399v-119l-259 -459h259v-122z" />
    <glyph glyph-name="zdotaccent" unicode="&#x17c;" horiz-adv-x="433" 
d="M289 578h-135v135h135v-135zM400 0h-370v111l227 285h-214v114h357v-111l-228 -286h228v-113z" />
    <glyph glyph-name="Zcaron" unicode="&#x17d;" horiz-adv-x="472" 
d="M308 758h-136l-102 135h111l59 -59l59 59h111zM440 0h-411v119l258 459h-246v122h399v-119l-259 -459h259v-122z" />
    <glyph glyph-name="zcaron" unicode="&#x17e;" horiz-adv-x="433" 
d="M289 578h-136l-102 135h111l59 -59l59 59h111zM400 0h-370v111l227 285h-214v114h357v-111l-228 -286h228v-113z" />
    <glyph glyph-name="florin" unicode="&#x192;" 
d="M380 366v-1q104 -38 104 -149v-22q0 -136 -137 -163v-86h-79v80h-73v-80h-79v80h-89v122h51v406h-51v122h89v70h79v-70h73v70h79v-79q123 -28 123 -147v-15q0 -100 -90 -138zM272 553h-54v-138h36q77 0 77 59v27q0 52 -59 52zM254 295h-36v-148h54q73 0 73 60v27
q0 32 -21.5 46.5t-69.5 14.5z" />
    <glyph glyph-name="AEacute" unicode="&#x1fc;" horiz-adv-x="745" 
d="M384 893h158l-136 -135h-111zM714 700v-122h-241v-162h192v-122h-192v-172h241v-122h-381v126h-137l-41 -126h-137l243 700h453zM333 543l-97 -297h97v297z" />
    <glyph glyph-name="aeacute" unicode="&#x1fd;" horiz-adv-x="725" 
d="M376 713h158l-136 -135h-111zM499 520q90 0 139.5 -49t49.5 -139v-110h-264v-59q0 -62 68 -62q67 0 67 67h129q0 -82 -53 -130t-146 -48q-108 0 -157 58q-45 -58 -145 -58q-77 0 -118.5 35.5t-41.5 99.5t34.5 103.5t114.5 59.5q72 16 92 29q21 13 21 34q0 31 -12.5 45
t-42.5 14q-31 0 -45 -16t-14 -51h-127q0 82 47 129.5t131 47.5q99 0 134 -59q42 59 139 59zM424 349v-32h132v32q0 61 -66 61t-66 -61zM215 100q34 0 54 23t20 69v39q-21 -14 -67 -27q-60 -16 -60 -57q0 -47 53 -47z" />
    <glyph glyph-name="Oslashacute" unicode="&#x1fe;" horiz-adv-x="512" 
d="M269 892h158l-136 -135h-111zM405 725l76 -42l-36 -69q23 -44 23 -106v-316q0 -96 -55 -149t-157 -53q-75 0 -125 29l-24 -46l-76 42l37 70q-24 43 -24 107v316q0 96 55 149t157 53q76 0 126 -29zM184 513v-208l133 253q-16 30 -61 30q-72 0 -72 -75zM328 187v206
l-133 -252q18 -29 61 -29q72 0 72 75z" />
    <glyph glyph-name="oslashacute" unicode="&#x1ff;" horiz-adv-x="474" 
d="M250 713h158l-136 -135h-111zM430 498l-29 -47q34 -46 34 -119v-154q0 -91 -51.5 -139.5t-146.5 -48.5q-59 0 -105 20l-22 -36l-66 40l28 46q-33 45 -33 118v154q0 91 51.5 139.5t146.5 48.5q58 0 104 -20l23 38zM174 342v-115l102 167q-13 10 -39 10q-63 0 -63 -62z
M237 106q63 0 63 62v117l-103 -168q17 -11 40 -11z" />
    <glyph glyph-name="uni0218" unicode="&#x218;" horiz-adv-x="481" 
d="M238 -10q-99 0 -152.5 51t-53.5 141v31h132v-31q0 -35 18.5 -54.5t53.5 -19.5q33 0 53 19.5t20 54.5q0 44 -22 63q-22 20 -97 58q-88 42 -122 91q-33 49 -33 125q0 88 54.5 139.5t152.5 51.5t150 -51t52 -142v-20h-132v19q0 76 -69 76q-32 0 -50 -19t-18 -52
q0 -39 23 -59t98 -56q89 -42 121 -92t32 -129q0 -91 -55.5 -143t-155.5 -52zM234 -240h-50l51 69h-63v116h135v-104z" />
    <glyph glyph-name="uni0219" unicode="&#x219;" horiz-adv-x="440" 
d="M225 -10q-92 0 -143.5 43t-51.5 118v15h129v-16q0 -54 60 -54q58 0 58 50q0 17 -14 28q-4 3 -7.5 5.5t-6.5 4t-8 3.5l-7.5 3t-10.5 3t-11 3t-14 3.5t-16 3.5q-71 16 -108 52t-37 105q0 75 47.5 117.5t134.5 42.5q83 0 132 -41t49 -110v-12h-127v12q0 45 -53 45
q-23 0 -37.5 -11.5t-14.5 -33.5q0 -24 21 -36.5t78 -25.5q62 -16 98 -42q46 -31 46 -107q0 -79 -48.5 -123.5t-137.5 -44.5zM215 -240h-50l51 69h-63v116h135v-104z" />
    <glyph glyph-name="uni021A" unicode="&#x21a;" horiz-adv-x="478" 
d="M309 0h-140v578h-146v122h432v-122h-146v-578zM234 -240h-50l51 69h-63v116h135v-104z" />
    <glyph glyph-name="uni021B" unicode="&#x21b;" horiz-adv-x="361" 
d="M328 510v-110h-98v-234q0 -30 12 -43t40 -13q24 0 46 7v-114q-32 -13 -74 -13q-159 0 -159 158v252h-73v110h78l9 130h121v-130h98zM205 -171h-63v116h135v-104l-73 -81h-50z" />
    <glyph glyph-name="uni0237" unicode="&#x237;" horiz-adv-x="241" 
d="M49 -165q-41 0 -67 13v109q16 -6 38 -6q33 0 33 35v524h135v-534q0 -141 -139 -141z" />
    <glyph glyph-name="uni02BC" unicode="&#x2bc;" horiz-adv-x="0" 
d="M6 438h-57l37 127h-53v135h134v-121z" />
    <glyph glyph-name="circumflex" unicode="&#x2c6;" horiz-adv-x="635" 
d="M259 578h-111l102 135h136l102 -135h-111l-59 59z" />
    <glyph glyph-name="caron" unicode="&#x2c7;" horiz-adv-x="635" 
d="M386 578h-136l-102 135h111l59 -59l59 59h111z" />
    <glyph glyph-name="uni02C9" unicode="&#x2c9;" horiz-adv-x="635" 
d="M464 596h-292v99h292v-99z" />
    <glyph glyph-name="breve" unicode="&#x2d8;" horiz-adv-x="635" 
d="M318 575q-68 0 -107 37t-42 101h83q8 -48 66 -48t69 48h82q-2 -63 -42 -100.5t-109 -37.5z" />
    <glyph glyph-name="dotaccent" unicode="&#x2d9;" horiz-adv-x="635" 
d="M386 578h-135v135h135v-135z" />
    <glyph glyph-name="ring" unicode="&#x2da;" horiz-adv-x="635" 
d="M398 603q-32 -32 -80 -32q-47 0 -81 32q-32 34 -32 80q0 47 32 79q33 33 81 33t80 -33q33 -32 33 -79t-33 -80zM359 683q1 27 -20 38t-42 0t-20 -38q-2 -28 19.5 -39.5t43 0t19.5 39.5z" />
    <glyph glyph-name="ogonek" unicode="&#x2db;" horiz-adv-x="635" 
d="M339 -165q-115 0 -115 71q0 62 91 98h54q-37 -27 -37 -60t44 -33q21 0 36 4v-68q-35 -12 -73 -12z" />
    <glyph glyph-name="tilde" unicode="&#x2dc;" horiz-adv-x="635" 
d="M216 570l-68 41q48 107 115 107q32 0 69 -28q26 -19 41 -19q23 0 47 49l68 -40q-48 -107 -115 -107q-32 0 -69 28q-26 19 -41 19q-24 0 -47 -50z" />
    <glyph glyph-name="hungarumlaut" unicode="&#x2dd;" horiz-adv-x="635" 
d="M258 578h-105l89 135h152zM441 578h-105l89 135h152z" />
    <glyph glyph-name="gravecomb" unicode="&#x300;" horiz-adv-x="0" 
d="M76 578h-111l-136 135h158z" />
    <glyph glyph-name="acutecomb" unicode="&#x301;" horiz-adv-x="0" 
d="M35 578h-111l89 135h158z" />
    <glyph glyph-name="uni0302" unicode="&#x302;" horiz-adv-x="0" 
d="M-59 578h-111l102 135h136l102 -135h-111l-59 59z" />
    <glyph glyph-name="tildecomb" unicode="&#x303;" horiz-adv-x="0" 
d="M-102 570l-68 41q48 107 115 107q32 0 69 -28q26 -19 41 -19q23 0 47 49l68 -40q-48 -107 -115 -107q-32 0 -69 28q-26 19 -41 19q-24 0 -47 -50z" />
    <glyph glyph-name="uni0304" unicode="&#x304;" horiz-adv-x="0" 
d="M146 596h-292v99h292v-99z" />
    <glyph glyph-name="uni0306" unicode="&#x306;" horiz-adv-x="0" 
d="M0 575q-68 0 -107 37t-42 101h83q8 -48 66 -48t69 48h82q-2 -63 -42 -100.5t-109 -37.5z" />
    <glyph glyph-name="uni0307" unicode="&#x307;" horiz-adv-x="0" 
d="M68 578h-135v135h135v-135z" />
    <glyph glyph-name="uni0308" unicode="&#x308;" horiz-adv-x="0" 
d="M-27 578h-131v135h131v-135zM158 578h-131v135h131v-135z" />
    <glyph glyph-name="uni030A" unicode="&#x30a;" horiz-adv-x="0" 
d="M80 603q-32 -32 -80 -32t-80 32q-33 33 -33 80t33 79q31 33 80 33q48 0 80 -33q33 -32 33 -79t-33 -80zM41 683q1 27 -20 38t-42 0t-20 -38q-2 -28 19.5 -39.5t43 0t19.5 39.5z" />
    <glyph glyph-name="uni030B" unicode="&#x30b;" horiz-adv-x="0" 
d="M-60 578h-105l89 135h152zM123 578h-105l89 135h152z" />
    <glyph glyph-name="uni030C" unicode="&#x30c;" horiz-adv-x="0" 
d="M68 578h-136l-102 135h111l59 -59l59 59h111z" />
    <glyph glyph-name="uni0312" unicode="&#x312;" horiz-adv-x="0" 
d="M67 578h-135v104l64 81h50l-42 -68h63v-117z" />
    <glyph glyph-name="uni0326" unicode="&#x326;" horiz-adv-x="0" 
d="M-5 -240h-50l51 69h-63v116h135v-104z" />
    <glyph glyph-name="uni0327" unicode="&#x327;" horiz-adv-x="0" 
d="M-8 -165q-56 0 -81 15.5t-25 49.5v11h76v-9q0 -26 30 -26q35 0 35 30q0 31 -44 31h-8v77h51v-57q40 0 59 -12.5t19 -41.5q0 -39 -26 -53.5t-86 -14.5z" />
    <glyph glyph-name="uni0328" unicode="&#x328;" horiz-adv-x="0" 
d="M21 -165q-115 0 -115 71q0 62 91 98h54q-37 -27 -37 -60t44 -33q21 0 36 4v-68q-35 -12 -73 -12z" />
    <glyph glyph-name="uni0335" unicode="&#x335;" horiz-adv-x="0" 
d="M136 389h-272v111h272v-111z" />
    <glyph glyph-name="uni0336" unicode="&#x336;" horiz-adv-x="0" 
d="M265 387h-530v115h530v-115z" />
    <glyph glyph-name="uni0337" unicode="&#x337;" horiz-adv-x="0" 
d="M193 498l-320 -524l-66 40l320 524z" />
    <glyph glyph-name="uni0338" unicode="&#x338;" horiz-adv-x="0" 
d="M225 684l-374 -710l-76 42l374 710z" />
    <glyph glyph-name="uni0394" unicode="&#x394;" horiz-adv-x="519" 
d="M165 700h189l145 -700h-479zM254 560l-79 -440h159z" />
    <glyph glyph-name="uni03A9" unicode="&#x3a9;" horiz-adv-x="512" 
d="M236 0h-192v122h102v2q-55 48 -78.5 99t-23.5 128v157q0 96 55 149t157 53t157 -53t55 -149v-157q0 -77 -23.5 -128t-78.5 -99v-2h102v-122h-192v122q30 38 41 77t11 92v222q0 75 -72 75t-72 -75v-222q0 -56 10 -92q11 -37 42 -77v-122z" />
    <glyph glyph-name="uni03BC" unicode="&#x3bc;" horiz-adv-x="500" 
d="M312 196v314h135v-510h-117l-3 90q-30 -100 -135 -100h-4v-145h-135v665h135v-328q0 -42 13 -59t45 -17q66 0 66 90z" />
    <glyph glyph-name="pi" unicode="&#x3c0;" horiz-adv-x="567" 
d="M230 0h-135v400h-73v110h523v-110h-74v-400h-135v400h-106v-400z" />
    <glyph glyph-name="uni0401" unicode="&#x401;" horiz-adv-x="467" 
d="M219 758h-131v135h131v-135zM404 758h-131v135h131v-135zM436 0h-381v700h381v-122h-241v-162h192v-122h-192v-172h241v-122z" />
    <glyph glyph-name="uni0404" unicode="&#x404;" horiz-adv-x="491" 
d="M460 508v-13h-132v18q0 79 -72 79t-72 -79v-88h140v-126h-140v-112q0 -79 72 -79t72 79v41h132v-36q0 -98 -53.5 -150t-153.5 -52q-101 0 -155 52t-54 150v316q0 98 54 150t155 52q100 0 153.5 -52t53.5 -150z" />
    <glyph glyph-name="uni0406" unicode="&#x406;" horiz-adv-x="250" 
d="M195 0h-140v700h140v-700z" />
    <glyph glyph-name="uni0407" unicode="&#x407;" horiz-adv-x="250" 
d="M98 758h-131v135h131v-135zM283 758h-131v135h131v-135zM195 0h-140v700h140v-700z" />
    <glyph glyph-name="uni0410" unicode="&#x410;" horiz-adv-x="519" 
d="M499 0h-143l-23 127h-157l-23 -127h-133l145 700h189zM254 560l-56 -313h113z" />
    <glyph glyph-name="uni0411" unicode="&#x411;" horiz-adv-x="507" 
d="M195 434h76q101 0 154.5 -50.5t53.5 -147.5v-38q0 -97 -53.5 -147.5t-154.5 -50.5h-216v700h370v-122h-230v-144zM339 194v46q0 72 -69 72h-75v-190h75q69 0 69 72z" />
    <glyph glyph-name="uni0412" unicode="&#x412;" horiz-adv-x="519" 
d="M279 0h-224v700h211q105 0 156 -43t51 -132v-13q0 -108 -90 -139v-3q104 -35 104 -165v-12q0 -98 -51 -145.5t-157 -47.5zM195 578v-157h54q84 0 84 74v13q0 37 -17 53.5t-54 16.5h-67zM195 299v-177h84q36 0 52 16.5t16 54.5v19q0 49 -19.5 68t-70.5 19h-62z" />
    <glyph glyph-name="uni0413" unicode="&#x413;" horiz-adv-x="435" 
d="M195 0h-140v700h357v-122h-217v-578z" />
    <glyph glyph-name="uni0414" unicode="&#x414;" horiz-adv-x="630" 
d="M538 700v-578h69v-216h-140v94h-304v-94h-140v216h72q24 22 27 76l23 502h393zM228 122h170v456h-121l-15 -372q-3 -50 -34 -84z" />
    <glyph glyph-name="uni0415" unicode="&#x415;" horiz-adv-x="467" 
d="M436 0h-381v700h381v-122h-241v-162h192v-122h-192v-172h241v-122z" />
    <glyph glyph-name="uni0416" unicode="&#x416;" horiz-adv-x="794" 
d="M774 0h-142l-112 330l-53 -89v-241h-140v241l-53 89l-112 -330h-142l160 438l-158 262h144l161 -285v285h140v-285l161 285h144l-158 -262z" />
    <glyph glyph-name="uni0417" unicode="&#x417;" horiz-adv-x="481" 
d="M30 187v41h132v-40q0 -76 72 -76q37 0 55 18.5t18 60.5v16q0 52 -21 74t-71 22h-47v122h51q43 0 63.5 19t20.5 63v12q0 33 -18.5 51t-51.5 18q-67 0 -67 -65v-28h-132v16q0 97 53 148t153 51q98 0 150.5 -49t52.5 -138v-12q0 -47 -25.5 -84.5t-73.5 -54.5v-2
q102 -34 102 -163v-16q0 -201 -208 -201t-208 197z" />
    <glyph glyph-name="uni0418" unicode="&#x418;" horiz-adv-x="548" 
d="M180 262l172 438h141v-700h-125v441l-172 -441h-141v700h125v-438z" />
    <glyph glyph-name="uni0419" unicode="&#x419;" horiz-adv-x="548" 
d="M274 755q-68 0 -107 37t-42 101h83q8 -48 66 -48t69 48h82q-2 -63 -42 -100.5t-109 -37.5zM180 262l172 438h141v-700h-125v441l-172 -441h-141v700h125v-438z" />
    <glyph glyph-name="uni041A" unicode="&#x41a;" horiz-adv-x="534" 
d="M515 0h-150l-113 305l-57 -89v-216h-140v700h140v-285l175 285h142l-164 -260z" />
    <glyph glyph-name="uni041B" unicode="&#x41b;" horiz-adv-x="592" 
d="M63 -1q-25 0 -40 4v121q17 -3 32 -3q37 0 51 17t16 59l22 503h393v-700h-140v578h-121l-15 -392q-4 -99 -50 -143t-148 -44z" />
    <glyph glyph-name="uni041C" unicode="&#x41c;" horiz-adv-x="689" 
d="M177 0h-122v700h197l93 -488l92 488h197v-700h-132v521l-104 -521h-117l-104 521v-521z" />
    <glyph glyph-name="uni041D" unicode="&#x41d;" horiz-adv-x="540" 
d="M195 0h-140v700h140v-284h150v284h140v-700h-140v294h-150v-294z" />
    <glyph glyph-name="uni041E" unicode="&#x41e;" horiz-adv-x="512" 
d="M44 192v316q0 96 55 149t157 53t157 -53t55 -149v-316q0 -96 -55 -149t-157 -53t-157 53t-55 149zM328 187v326q0 75 -72 75t-72 -75v-326q0 -75 72 -75t72 75z" />
    <glyph glyph-name="uni041F" unicode="&#x41f;" horiz-adv-x="539" 
d="M195 0h-140v700h429v-700h-140v578h-149v-578z" />
    <glyph glyph-name="uni0420" unicode="&#x420;" horiz-adv-x="497" 
d="M195 0h-140v700h206q106 0 157 -47.5t51 -145.5v-42q0 -99 -51 -146.5t-157 -47.5h-66v-271zM195 578v-185h66q36 0 52 17t16 55v42q0 38 -16 54.5t-52 16.5h-66z" />
    <glyph glyph-name="uni0421" unicode="&#x421;" horiz-adv-x="489" 
d="M44 192v316q0 97 53.5 149.5t152.5 52.5t152 -52t53 -150v-51h-132v56q0 79 -70 79q-33 0 -51 -20.5t-18 -58.5v-326q0 -38 18 -58.5t51 -20.5q70 0 70 79v76h132v-71q0 -98 -53 -150t-152 -52t-152.5 52.5t-53.5 149.5z" />
    <glyph glyph-name="uni0422" unicode="&#x422;" horiz-adv-x="478" 
d="M309 0h-140v578h-146v122h432v-122h-146v-578z" />
    <glyph glyph-name="uni0423" unicode="&#x423;" horiz-adv-x="510" 
d="M137 -10q-47 0 -80 11v121q23 -10 60 -10q35 0 52 8t25 26l1 4l-173 550h147l98 -354l91 354h136l-162 -572q-21 -74 -66 -106t-129 -32z" />
    <glyph glyph-name="uni0424" unicode="&#x424;" horiz-adv-x="714" 
d="M427 0h-140v79h-33q-107 0 -164 53.5t-57 153.5v128q0 100 57 153.5t164 53.5h33v79h140v-79h33q107 0 164 -53.5t57 -153.5v-128q0 -100 -57 -153.5t-164 -53.5h-33v-79zM254 201h33v298h-33q-81 0 -81 -82v-134q0 -82 81 -82zM427 499v-298h33q81 0 81 82v134
q0 82 -81 82h-33z" />
    <glyph glyph-name="uni0425" unicode="&#x425;" horiz-adv-x="521" 
d="M154 0h-135l162 359l-155 341h151l90 -220l93 220h135l-155 -341l162 -359h-150l-98 239z" />
    <glyph glyph-name="uni0426" unicode="&#x426;" horiz-adv-x="581" 
d="M558 -94h-140v94h-363v700h140v-578h149v578h140v-578h74v-216z" />
    <glyph glyph-name="uni0427" unicode="&#x427;" horiz-adv-x="524" 
d="M329 459v241h140v-700h-140v282q-47 -44 -128 -44q-165 0 -165 192v270h140v-252q0 -83 71 -83q39 0 60.5 24.5t21.5 69.5z" />
    <glyph glyph-name="uni0428" unicode="&#x428;" horiz-adv-x="766" 
d="M711 0h-656v700h140v-578h118v578h140v-578h118v578h140v-700z" />
    <glyph glyph-name="uni0429" unicode="&#x429;" horiz-adv-x="807" 
d="M784 -94h-140v94h-589v700h140v-578h118v578h140v-578h118v578h140v-578h73v-216z" />
    <glyph glyph-name="uni042A" unicode="&#x42a;" horiz-adv-x="567" 
d="M331 0h-208v578h-100v122h240v-266h68q101 0 154.5 -50.5t53.5 -147.5v-38q0 -97 -53.5 -147.5t-154.5 -50.5zM263 312v-190h67q69 0 69 72v46q0 72 -69 72h-67z" />
    <glyph glyph-name="uni042B" unicode="&#x42b;" horiz-adv-x="749" 
d="M263 0h-208v700h140v-266h68q101 0 154.5 -50.5t53.5 -147.5v-38q0 -97 -53.5 -147.5t-154.5 -50.5zM694 0h-140v700h140v-700zM195 312v-190h67q69 0 69 72v46q0 72 -69 72h-67z" />
    <glyph glyph-name="uni042C" unicode="&#x42c;" horiz-adv-x="499" 
d="M263 0h-208v700h140v-266h68q101 0 154.5 -50.5t53.5 -147.5v-38q0 -97 -53.5 -147.5t-154.5 -50.5zM195 312v-190h67q69 0 69 72v46q0 72 -69 72h-67z" />
    <glyph glyph-name="uni042D" unicode="&#x42d;" horiz-adv-x="491" 
d="M238 710q101 0 155 -52t54 -150v-316q0 -98 -54 -150t-155 -52q-100 0 -153.5 52t-53.5 150v36h132v-41q0 -79 72 -79t72 79v112h-140v126h140v88q0 79 -72 79t-72 -79v-18h-132v13q0 98 53.5 150t153.5 52z" />
    <glyph glyph-name="uni042E" unicode="&#x42e;" horiz-adv-x="767" 
d="M723 508v-316q0 -96 -55 -149t-157 -53t-157 53t-55 149v112h-104v-304h-140v700h140v-276h104v84q0 96 55 149t157 53t157 -53t55 -149zM583 187v326q0 75 -72 75t-72 -75v-326q0 -75 72 -75t72 75z" />
    <glyph glyph-name="uni042F" unicode="&#x42f;" horiz-adv-x="518" 
d="M463 700v-700h-140v280h-48q-49 0 -68.5 -20.5t-19.5 -70.5v-91q0 -70 -12 -98h-143q16 33 16 97v82q0 75 22 115.5t70 53.5v3q-91 34 -91 144v27q0 91 51 134.5t156 43.5h207zM272 402h51v176h-66q-68 0 -68 -71v-27q0 -41 20 -59.5t63 -18.5z" />
    <glyph glyph-name="uni0430" unicode="&#x430;" horiz-adv-x="474" 
d="M424 323v-166q0 -106 16 -157h-125q-9 3 -12 88q-29 -98 -135 -98q-65 0 -103 36t-38 99q0 64 34.5 103.5t114.5 59.5q72 16 92 29q21 13 21 35q0 31 -12.5 44.5t-42.5 13.5q-32 0 -45.5 -16t-13.5 -51h-127q0 85 48 131t140 46q100 0 144 -48t44 -149zM215 100
q34 0 54 23t20 69v39q-21 -14 -67 -27q-60 -16 -60 -57q0 -47 53 -47z" />
    <glyph glyph-name="uni0431" unicode="&#x431;" horiz-adv-x="479" 
d="M301 491q68 0 104 -43t36 -127v-143q0 -91 -51.5 -139.5t-146.5 -48.5t-146.5 48.5t-51.5 139.5v251q4 105 52 153q34 33 77 50q32 13 45 17l50 15q94 29 129 46v-130q-34 -16 -105 -31q-46 -11 -67 -19q-46 -16 -46 -63v-41q38 65 121 65zM306 168v131q0 41 -13.5 58.5
t-45.5 17.5q-67 0 -67 -90v-117q0 -62 63 -62t63 62z" />
    <glyph glyph-name="uni0432" unicode="&#x432;" horiz-adv-x="500" 
d="M290 0h-237v510h228q175 0 175 -134v-4q0 -76 -60 -104v-3q74 -27 74 -115v-3q0 -72 -46 -109.5t-134 -37.5zM188 406v-95h79q54 0 54 49v4q0 23 -11.5 32.5t-36.5 9.5h-85zM188 207v-103h98q26 0 37.5 11.5t11.5 38.5v4q0 49 -62 49h-85z" />
    <glyph glyph-name="uni0433" unicode="&#x433;" horiz-adv-x="382" 
d="M188 0h-135v510h307v-110h-172v-400z" />
    <glyph glyph-name="uni0434" unicode="&#x434;" horiz-adv-x="583" 
d="M497 510v-397h63v-207h-135v94h-267v-94h-135v207h72q22 19 25 72l18 325h359zM219 113h143v287h-97l-12 -206q-5 -59 -34 -81z" />
    <glyph glyph-name="uni0435" unicode="&#x435;" horiz-adv-x="475" 
d="M239 520q96 0 147.5 -48.5t51.5 -139.5v-110h-264v-59q0 -62 68 -62q67 0 67 67h129q0 -82 -53 -130t-146 -48q-97 0 -148.5 49t-51.5 139v154q0 91 51.5 139.5t148.5 48.5zM174 349v-32h132v32q0 61 -66 61t-66 -61z" />
    <glyph glyph-name="uni0436" unicode="&#x436;" horiz-adv-x="746" 
d="M729 0h-144l-93 228l-51 -70v-158h-135v157l-52 71l-93 -228h-144l145 323l-137 187h143l138 -195v195h135v-194l137 194h143l-137 -187z" />
    <glyph glyph-name="uni0437" unicode="&#x437;" horiz-adv-x="447" 
d="M28 138v30h127v-11q0 -48 63 -48q62 0 62 51v3q0 27 -19.5 38t-64.5 11h-40v105h44q75 0 76 38q-2 47 -59 47q-59 0 -59 -39h-126v6q0 73 49 112t140 39q90 0 139 -36.5t50 -104.5q0 -78 -74 -107v-2q78 -27 78 -119v-3q0 -77 -50 -117.5t-143 -40.5t-143 38t-50 110z
" />
    <glyph glyph-name="uni0438" unicode="&#x438;" horiz-adv-x="511" 
d="M178 205l143 305h137v-510h-125v304l-143 -304h-137v510h125v-305z" />
    <glyph glyph-name="uni0439" unicode="&#x439;" horiz-adv-x="511" 
d="M256 575q-68 0 -107 37t-42 101h83q8 -48 66 -48t69 48h82q-2 -63 -42 -100.5t-109 -37.5zM178 205l143 305h137v-510h-125v304l-143 -304h-137v510h125v-305z" />
    <glyph glyph-name="uni043A" unicode="&#x43a;" horiz-adv-x="506" 
d="M489 0h-149l-98 211l-54 -70v-141h-135v510h135v-198l141 198h152l-146 -188z" />
    <glyph glyph-name="uni043B" unicode="&#x43b;" horiz-adv-x="547" 
d="M80 -4q-46 0 -57 7v113q15 -4 38 -4q50 0 54 64l21 334h358v-510h-135v400h-95l-15 -243q-5 -80 -45 -120.5t-124 -40.5z" />
    <glyph glyph-name="uni043C" unicode="&#x43c;" horiz-adv-x="683" 
d="M340 180l102 330h188v-510h-130v374l-116 -374h-96l-116 374v-374h-119v510h185z" />
    <glyph glyph-name="uni043D" unicode="&#x43d;" horiz-adv-x="507" 
d="M320 323v187h134v-510h-134v213h-132v-213h-135v510h135v-187h132z" />
    <glyph glyph-name="uni043E" unicode="&#x43e;" horiz-adv-x="474" 
d="M39 178v154q0 91 51.5 139.5t146.5 48.5t146.5 -48.5t51.5 -139.5v-154q0 -91 -51.5 -139.5t-146.5 -48.5t-146.5 48.5t-51.5 139.5zM300 168v174q0 62 -63 62t-63 -62v-174q0 -62 63 -62t63 62z" />
    <glyph glyph-name="uni043F" unicode="&#x43f;" horiz-adv-x="500" 
d="M53 510h394v-510h-135v400h-124v-400h-135v510z" />
    <glyph glyph-name="uni0440" unicode="&#x440;" horiz-adv-x="492" 
d="M310 520q68 0 104 -43t36 -127v-190q0 -84 -36 -127t-104 -43q-84 0 -122 65v-210h-135v665h117l3 -90q30 100 137 100zM315 182v146q0 41 -13.5 58.5t-45.5 17.5q-68 0 -68 -90v-118q0 -90 68 -90q32 0 45.5 17.5t13.5 58.5z" />
    <glyph glyph-name="uni0441" unicode="&#x441;" horiz-adv-x="461" 
d="M39 178v154q0 91 51 139.5t146 48.5q93 0 142.5 -49.5t49.5 -138.5v-16h-130v26q0 62 -62 62q-30 0 -46 -16.5t-16 -45.5v-174q0 -29 16 -45.5t46 -16.5q62 0 62 62v37h130v-27q0 -89 -49.5 -138.5t-142.5 -49.5q-94 0 -145.5 49t-51.5 139z" />
    <glyph glyph-name="uni0442" unicode="&#x442;" horiz-adv-x="461" 
d="M298 0h-135v400h-141v110h417v-110h-141v-400z" />
    <glyph glyph-name="uni0443" unicode="&#x443;" horiz-adv-x="467" 
d="M245 180l73 330h131l-144 -544q-19 -68 -61.5 -99.5t-115.5 -31.5q-49 0 -79 14v115q26 -13 62 -13q46 0 61 40l-154 519h141z" />
    <glyph glyph-name="uni0444" unicode="&#x444;" horiz-adv-x="657" 
d="M396 -155h-135v155h-21q-98 0 -150.5 47.5t-52.5 136.5v142q0 89 52.5 136.5t150.5 47.5h21v190h135v-190h21q98 0 150.5 -47.5t52.5 -136.5v-142q0 -89 -52.5 -136.5t-150.5 -47.5h-21v-155zM240 110h21v290h-21q-36 0 -52 -16t-16 -52v-154q0 -36 16 -52t52 -16z
M396 400v-290h21q36 0 52 16t16 52v154q0 36 -16 52t-52 16h-21z" />
    <glyph glyph-name="uni0445" unicode="&#x445;" horiz-adv-x="486" 
d="M150 0h-133l148 263l-141 247h148l77 -147l79 147h133l-141 -247l149 -263h-147l-86 164z" />
    <glyph glyph-name="uni0446" unicode="&#x446;" horiz-adv-x="537" 
d="M515 -94h-135v94h-327v510h135v-400h124v400h135v-400h68v-204z" />
    <glyph glyph-name="uni0447" unicode="&#x447;" horiz-adv-x="480" 
d="M292 380v130h135v-510h-135v231q-37 -57 -116 -57q-69 0 -106 43.5t-37 126.5v166h135v-144q0 -42 13 -59t45 -17q66 0 66 90z" />
    <glyph glyph-name="uni0448" unicode="&#x448;" horiz-adv-x="745" 
d="M692 0h-639v510h135v-400h117v400h135v-400h117v400h135v-510z" />
    <glyph glyph-name="uni0449" unicode="&#x449;" horiz-adv-x="782" 
d="M760 -94h-135v94h-572v510h135v-400h117v400h135v-400h117v400h135v-400h68v-204z" />
    <glyph glyph-name="uni044A" unicode="&#x44a;" horiz-adv-x="577" 
d="M274 348h80q197 0 197 -174t-197 -174h-215v400h-117v110h252v-162zM274 110h75q67 0 67 64t-67 64h-75v-128z" />
    <glyph glyph-name="uni044B" unicode="&#x44b;" horiz-adv-x="732" 
d="M268 0h-215v510h135v-162h80q197 0 197 -174t-197 -174zM679 0h-135v510h135v-510zM188 238v-128h75q67 0 67 64t-67 64h-75z" />
    <glyph glyph-name="uni044C" unicode="&#x44c;" horiz-adv-x="491" 
d="M268 0h-215v510h135v-162h80q197 0 197 -174t-197 -174zM188 238v-128h75q67 0 67 64t-67 64h-75z" />
    <glyph glyph-name="uni044D" unicode="&#x44d;" horiz-adv-x="466" 
d="M227 -10q-93 0 -144.5 46t-54.5 132h129q0 -67 67 -67q68 0 68 62v48h-124v95h124v43q0 61 -66 61q-63 0 -66 -56h-131q6 80 57 123t141 43q97 0 148.5 -48.5t51.5 -139.5v-154q0 -90 -51.5 -139t-148.5 -49z" />
    <glyph glyph-name="uni044E" unicode="&#x44e;" horiz-adv-x="731" 
d="M692 332v-154q0 -91 -51.5 -139.5t-146.5 -48.5t-146.5 48.5t-51.5 139.5v34h-108v-212h-135v511h135v-189h108v10q0 91 51.5 139.5t146.5 48.5t146.5 -48.5t51.5 -139.5zM557 168v174q0 62 -63 62t-63 -62v-174q0 -62 63 -62t63 62z" />
    <glyph glyph-name="uni044F" unicode="&#x44f;" horiz-adv-x="511" 
d="M167 0h-137q15 28 15 67v44q0 61 16.5 91t57.5 40v1q-73 27 -73 120v4q0 75 44 109t142 34h226v-510h-135v178h-72q-41 0 -56 -13t-15 -46v-49q0 -45 -13 -70zM253 292h70v104h-82q-60 0 -60 -50v-4q0 -50 72 -50z" />
    <glyph glyph-name="uni0451" unicode="&#x451;" horiz-adv-x="475" 
d="M80 713h131v-135h-131v135zM265 713h131v-135h-131v135zM239 520q96 0 147.5 -48.5t51.5 -139.5v-110h-264v-59q0 -62 68 -62q67 0 67 67h129q0 -82 -53 -130t-146 -48q-97 0 -148.5 49t-51.5 139v154q0 91 51.5 139.5t148.5 48.5zM174 349v-32h132v32q0 61 -66 61
t-66 -61z" />
    <glyph glyph-name="uni0454" unicode="&#x454;" horiz-adv-x="466" 
d="M239 -10q-97 0 -148.5 49t-51.5 139v154q0 91 51.5 139.5t148.5 48.5q90 0 141 -43t57 -123h-131q-3 56 -66 56q-66 0 -66 -61v-43h124v-95h-124v-48q0 -62 68 -62q67 0 67 67h129q-3 -86 -54.5 -132t-144.5 -46z" />
    <glyph glyph-name="uni0456" unicode="&#x456;" horiz-adv-x="241" 
d="M188 578h-135v135h135v-135zM188 0h-135v510h135v-510z" />
    <glyph glyph-name="uni0457" unicode="&#x457;" horiz-adv-x="241" 
d="M93 578h-131v135h131v-135zM278 578h-131v135h131v-135zM188 0h-135v510h135v-510z" />
    <glyph glyph-name="uni0490" unicode="&#x490;" horiz-adv-x="435" 
d="M272 700v94h140v-216h-217v-578h-140v700h217z" />
    <glyph glyph-name="uni0491" unicode="&#x491;" horiz-adv-x="382" 
d="M225 513v94h135v-207h-172v-400h-135v510h176z" />
    <glyph glyph-name="uni1E02" unicode="&#x1e02;" horiz-adv-x="519" 
d="M314 758h-135v135h135v-135zM279 0h-224v700h211q105 0 156 -43t51 -132v-13q0 -108 -90 -139v-3q104 -35 104 -165v-12q0 -98 -51 -145.5t-157 -47.5zM195 578v-157h54q84 0 84 74v13q0 37 -17 53.5t-54 16.5h-67zM195 299v-177h84q36 0 52 16.5t16 54.5v19
q0 49 -19.5 68t-70.5 19h-62z" />
    <glyph glyph-name="uni1E03" unicode="&#x1e03;" horiz-adv-x="492" 
d="M53 893h135v-135h-135v135zM310 520q68 0 104 -43t36 -127v-190q0 -84 -36 -127t-104 -43q-106 0 -136 99l-23 -89h-98v700h135v-245q38 65 122 65zM315 182v146q0 41 -13.5 58.5t-45.5 17.5q-68 0 -68 -90v-118q0 -90 68 -90q32 0 45.5 17.5t13.5 58.5z" />
    <glyph glyph-name="uni1E0A" unicode="&#x1e0a;" horiz-adv-x="520" 
d="M317 758h-135v135h135v-135zM268 0h-213v700h213q102 0 155.5 -50.5t53.5 -147.5v-304q0 -97 -53.5 -147.5t-155.5 -50.5zM195 578v-456h71q37 0 54 17.5t17 56.5v308q0 39 -17 56.5t-54 17.5h-71z" />
    <glyph glyph-name="uni1E0B" unicode="&#x1e0b;" horiz-adv-x="494" 
d="M304 884h135v-135h-135v135zM439 700v-543q0 -106 16 -157h-125q-9 3 -12 89q-30 -99 -136 -99q-68 0 -104 43t-36 127v190q0 84 36 127t104 43q84 0 122 -65v245h135zM236 106q68 0 68 90v118q0 90 -68 90q-32 0 -45.5 -17.5t-13.5 -58.5v-146q0 -41 13.5 -58.5
t45.5 -17.5z" />
    <glyph glyph-name="uni1E1E" unicode="&#x1e1e;" horiz-adv-x="448" 
d="M307 758h-135v135h135v-135zM195 0h-140v700h370v-122h-230v-167h180v-122h-180v-289z" />
    <glyph glyph-name="uni1E1F" unicode="&#x1e1f;" horiz-adv-x="350" 
d="M134 893h135v-135h-135v135zM282 590q-28 0 -40 -13t-12 -43v-24h98v-110h-98v-400h-135v400h-73v110h73v42q0 158 159 158q42 0 74 -13v-114q-22 7 -46 7z" />
    <glyph glyph-name="uni1E40" unicode="&#x1e40;" horiz-adv-x="689" 
d="M413 758h-135v135h135v-135zM177 0h-122v700h197l93 -488l92 488h197v-700h-132v521l-104 -521h-117l-104 521v-521z" />
    <glyph glyph-name="uni1E41" unicode="&#x1e41;" horiz-adv-x="748" 
d="M307 713h135v-135h-135v135zM562 520q138 0 138 -170v-350h-135v328q0 40 -12.5 58t-44.5 18q-64 0 -64 -90v-314h-135v328q0 40 -12.5 58t-43.5 18q-65 0 -65 -90v-314h-135v510h117l3 -89q28 99 134 99q97 0 126 -89q32 89 129 89z" />
    <glyph glyph-name="uni1E56" unicode="&#x1e56;" horiz-adv-x="497" 
d="M314 758h-135v135h135v-135zM195 0h-140v700h206q106 0 157 -47.5t51 -145.5v-42q0 -99 -51 -146.5t-157 -47.5h-66v-271zM195 578v-185h66q36 0 52 17t16 55v42q0 38 -16 54.5t-52 16.5h-66z" />
    <glyph glyph-name="uni1E57" unicode="&#x1e57;" horiz-adv-x="492" 
d="M184 713h135v-135h-135v135zM310 520q68 0 104 -43t36 -127v-190q0 -84 -36 -127t-104 -43q-84 0 -122 65v-210h-135v665h117l3 -90q30 100 137 100zM315 182v146q0 41 -13.5 58.5t-45.5 17.5q-68 0 -68 -90v-118q0 -90 68 -90q32 0 45.5 17.5t13.5 58.5z" />
    <glyph glyph-name="uni1E60" unicode="&#x1e60;" horiz-adv-x="481" 
d="M307 758h-135v135h135v-135zM238 -10q-99 0 -152.5 51t-53.5 141v31h132v-31q0 -35 18.5 -54.5t53.5 -19.5q33 0 53 19.5t20 54.5q0 44 -22 63q-22 20 -97 58q-88 42 -122 91q-33 49 -33 125q0 88 54.5 139.5t152.5 51.5t150 -51t52 -142v-20h-132v19q0 76 -69 76
q-32 0 -50 -19t-18 -52q0 -39 23 -59t98 -56q89 -42 121 -92t32 -129q0 -91 -55.5 -143t-155.5 -52z" />
    <glyph glyph-name="uni1E61" unicode="&#x1e61;" horiz-adv-x="440" 
d="M284 578h-135v135h135v-135zM225 -10q-92 0 -143.5 43t-51.5 118v15h129v-16q0 -54 60 -54q58 0 58 50q0 17 -14 28q-4 3 -7.5 5.5t-6.5 4t-8 3.5l-7.5 3t-10.5 3t-11 3t-14 3.5t-16 3.5q-71 16 -108 52t-37 105q0 75 47.5 117.5t134.5 42.5q83 0 132 -41t49 -110v-12
h-127v12q0 45 -53 45q-23 0 -37.5 -11.5t-14.5 -33.5q0 -24 21 -36.5t78 -25.5q62 -16 98 -42q46 -31 46 -107q0 -79 -48.5 -123.5t-137.5 -44.5z" />
    <glyph glyph-name="uni1E6A" unicode="&#x1e6a;" horiz-adv-x="478" 
d="M307 758h-135v135h135v-135zM309 0h-140v578h-146v122h432v-122h-146v-578z" />
    <glyph glyph-name="uni1E6B" unicode="&#x1e6b;" horiz-adv-x="361" 
d="M101 833h135v-135h-135v135zM328 510v-110h-98v-234q0 -30 12 -43t40 -13q24 0 46 7v-114q-32 -13 -74 -13q-159 0 -159 158v252h-73v110h78l9 130h121v-130h98z" />
    <glyph glyph-name="Wgrave" unicode="&#x1e80;" horiz-adv-x="716" 
d="M435 758h-111l-136 135h158zM299 0h-184l-91 700h134l64 -528l71 528h144l72 -528l64 528h120l-91 -700h-173l-65 472z" />
    <glyph glyph-name="wgrave" unicode="&#x1e81;" horiz-adv-x="687" 
d="M420 578h-111l-136 135h158zM287 0h-169l-98 510h134l65 -365l63 365h136l64 -365l64 365h121l-97 -510h-161l-61 341z" />
    <glyph glyph-name="Wacute" unicode="&#x1e82;" horiz-adv-x="716" 
d="M394 758h-111l89 135h158zM299 0h-184l-91 700h134l64 -528l71 528h144l72 -528l64 528h120l-91 -700h-173l-65 472z" />
    <glyph glyph-name="wacute" unicode="&#x1e83;" horiz-adv-x="687" 
d="M379 578h-111l89 135h158zM287 0h-169l-98 510h134l65 -365l63 365h136l64 -365l64 365h121l-97 -510h-161l-61 341z" />
    <glyph glyph-name="Wdieresis" unicode="&#x1e84;" horiz-adv-x="716" 
d="M332 758h-131v135h131v-135zM517 758h-131v135h131v-135zM299 0h-184l-91 700h134l64 -528l71 528h144l72 -528l64 528h120l-91 -700h-173l-65 472z" />
    <glyph glyph-name="wdieresis" unicode="&#x1e85;" horiz-adv-x="687" 
d="M317 578h-131v135h131v-135zM502 578h-131v135h131v-135zM287 0h-169l-98 510h134l65 -365l63 365h136l64 -365l64 365h121l-97 -510h-161l-61 341z" />
    <glyph glyph-name="uni1E9E" unicode="&#x1e9e;" horiz-adv-x="525" 
d="M479 582l-98 -169q111 -35 111 -180v-35q0 -96 -53 -147t-155 -51h-35v122h35q35 0 51.5 14t16.5 48v58q0 34 -16 48t-52 14h-35v117l84 157h-138v-578h-140v700h424v-118z" />
    <glyph glyph-name="Ygrave" unicode="&#x1ef2;" horiz-adv-x="512" 
d="M332 758h-111l-136 135h158zM326 0h-140v289l-169 411h151l94 -249l95 249h138l-169 -411v-289z" />
    <glyph glyph-name="ygrave" unicode="&#x1ef3;" horiz-adv-x="467" 
d="M223 713l89 -135h-111l-136 135h158zM245 180l73 330h131l-144 -544q-19 -68 -61.5 -99.5t-115.5 -31.5q-49 0 -79 14v115q26 -13 62 -13q46 0 61 40l-154 519h141z" />
    <glyph glyph-name="uni2002" unicode="&#x2002;" horiz-adv-x="400" 
 />
    <glyph glyph-name="uni2003" unicode="&#x2003;" horiz-adv-x="600" 
 />
    <glyph glyph-name="uni2007" unicode="&#x2007;" 
 />
    <glyph glyph-name="uni2008" unicode="&#x2008;" horiz-adv-x="256" 
 />
    <glyph glyph-name="uni200B" unicode="&#x200b;" horiz-adv-x="0" 
 />
    <glyph glyph-name="figuredash" unicode="&#x2012;" 
d="M508 249h-508v102h508v-102z" />
    <glyph glyph-name="endash" unicode="&#x2013;" horiz-adv-x="400" 
d="M400 249h-400v102h400v-102z" />
    <glyph glyph-name="emdash" unicode="&#x2014;" horiz-adv-x="600" 
d="M600 249h-600v102h600v-102z" />
    <glyph glyph-name="quoteleft" unicode="&#x2018;" horiz-adv-x="256" 
d="M138 700h65l-53 -120h48v-140h-140v126z" />
    <glyph glyph-name="quoteright" unicode="&#x2019;" horiz-adv-x="256" 
d="M118 440h-65l53 120h-48v140h140v-126z" />
    <glyph glyph-name="quotesinglbase" unicode="&#x201a;" horiz-adv-x="254" 
d="M118 -120h-65l53 120h-48v140h140v-126z" />
    <glyph glyph-name="quotedblleft" unicode="&#x201c;" horiz-adv-x="444" 
d="M138 700h65l-53 -120h48v-140h-140v126zM326 700h65l-53 -120h48v-140h-140v126z" />
    <glyph glyph-name="quotedblright" unicode="&#x201d;" horiz-adv-x="444" 
d="M118 440h-65l53 120h-48v140h140v-126zM306 440h-65l53 120h-48v140h140v-126z" />
    <glyph glyph-name="quotedblbase" unicode="&#x201e;" horiz-adv-x="444" 
d="M118 -120h-65l53 120h-48v140h140v-126zM306 -120h-65l53 120h-48v140h140v-126z" />
    <glyph glyph-name="dagger" unicode="&#x2020;" horiz-adv-x="520" 
d="M324 -97h-127v498h-163v121h163v178h127v-178h162v-121h-162v-498z" />
    <glyph glyph-name="daggerdbl" unicode="&#x2021;" horiz-adv-x="538" 
d="M332 -97h-127v168h-162v120h162v211h-162v120h162v178h127v-178h163v-120h-163v-211h163v-120h-163v-168z" />
    <glyph glyph-name="bullet" unicode="&#x2022;" horiz-adv-x="400" 
d="M283 216q-33 -34 -82 -34t-83 34t-34 84t34 84t83 34t82 -34q34 -34 34 -84t-34 -84z" />
    <glyph glyph-name="ellipsis" unicode="&#x2026;" horiz-adv-x="635" 
d="M176 0h-140v140h140v-140zM388 0h-140v140h140v-140zM600 0h-140v140h140v-140z" />
    <glyph glyph-name="perthousand" unicode="&#x2030;" horiz-adv-x="1029" 
d="M162 312q-65 0 -99.5 33.5t-34.5 95.5v140q0 62 34.5 95.5t99.5 33.5q66 0 100.5 -33.5t34.5 -95.5v-140q0 -62 -34.5 -95.5t-100.5 -33.5zM230 0h-89l344 700h89zM162 387q46 0 46 48v152q0 48 -46 48q-45 0 -45 -48v-152q0 -48 45 -48zM552 -10q-65 0 -99.5 33.5
t-34.5 95.5v140q0 62 34.5 95.5t99.5 33.5q66 0 100.5 -33.5t34.5 -95.5v-140q0 -62 -34.5 -95.5t-100.5 -33.5zM866 -10q-65 0 -99.5 33.5t-34.5 95.5v140q0 62 34.5 95.5t99.5 33.5q66 0 100.5 -33.5t34.5 -95.5v-140q0 -62 -34.5 -95.5t-100.5 -33.5zM552 65q46 0 46 48
v152q0 48 -46 48q-45 0 -45 -48v-152q0 -48 45 -48zM866 65q46 0 46 48v152q0 48 -46 48q-45 0 -45 -48v-152q0 -48 45 -48z" />
    <glyph glyph-name="guilsinglleft" unicode="&#x2039;" horiz-adv-x="253" 
d="M225 154h-101l-98 147l98 140h101l-72 -140z" />
    <glyph glyph-name="guilsinglright" unicode="&#x203a;" horiz-adv-x="254" 
d="M130 154h-102l73 147l-73 140h102l98 -140z" />
    <glyph glyph-name="fraction" unicode="&#x2044;" horiz-adv-x="118" 
d="M-69 0h-88l344 700h89z" />
    <glyph glyph-name="uni2070" unicode="&#x2070;" horiz-adv-x="346" 
d="M39 471v210q0 61 35.5 95.5t98.5 34.5t98.5 -34.5t35.5 -95.5v-210q0 -61 -35.5 -95.5t-98.5 -34.5t-98.5 34.5t-35.5 95.5zM213 466v220q3 28 -18.5 39.5t-43 0t-18.5 -39.5v-220q-3 -28 18.5 -39.5t43 0t18.5 39.5z" />
    <glyph glyph-name="uni2074" unicode="&#x2074;" horiz-adv-x="346" 
d="M289 351h-94v73h-179v81l170 296h103v-297h43v-80h-43v-73zM195 673l-93 -169h93v169z" />
    <glyph glyph-name="uni2075" unicode="&#x2075;" horiz-adv-x="346" 
d="M45 469v19h89v-24q0 -43 38 -43q37 0 37 43v80q0 47 -35 47q-39 0 -43 -49h-86l16 259h229v-80h-151l-6 -81q25 31 73 31q47 0 72 -30.5t25 -87.5v-84q0 -62 -33.5 -95t-95.5 -33t-95.5 33t-33.5 95z" />
    <glyph glyph-name="uni2076" unicode="&#x2076;" horiz-adv-x="346" 
d="M42 472v204q0 65 34.5 100t99.5 35q62 0 95.5 -33.5t33.5 -92.5h-87q0 46 -40 46q-44 0 -44 -59v-59q27 34 78 34q45 0 70.5 -31.5t25.5 -87.5v-56q0 -62 -35 -96.5t-98 -34.5t-98 34.5t-35 96.5zM216 465v54q0 48 -40 48q-21 0 -31.5 -13.5t-10.5 -32.5v-56
q0 -44 41 -44t41 44z" />
    <glyph glyph-name="uni2077" unicode="&#x2077;" horiz-adv-x="346" 
d="M173 351h-100l136 368h-170v82h265v-78z" />
    <glyph glyph-name="uni2078" unicode="&#x2078;" horiz-adv-x="346" 
d="M34 469v8q0 85 61 107v1q-57 24 -57 93v10q0 60 34.5 91.5t100.5 31.5t100.5 -31.5t34.5 -91.5v-10q0 -69 -57 -93v-1q61 -22 61 -107v-8q0 -128 -139 -128t-139 128zM218 671v12q0 48 -45 48t-45 -48v-12q0 -48 45 -48t45 48zM220 476v10q0 57 -47 57t-47 -57v-10
q0 -55 47 -55t47 55z" />
    <glyph glyph-name="uni2079" unicode="&#x2079;" horiz-adv-x="346" 
d="M304 680v-204q0 -65 -34.5 -100t-99.5 -35q-62 0 -95.5 33.5t-33.5 92.5h87q0 -46 40 -46q44 0 44 59v59q-27 -34 -78 -34q-45 0 -70.5 31.5t-25.5 87.5v56q0 62 35 96.5t98 34.5t98 -34.5t35 -96.5zM130 687v-54q0 -48 40 -48q21 0 31.5 13.5t10.5 32.5v56q0 44 -41 44
t-41 -44z" />
    <glyph glyph-name="uni2080" unicode="&#x2080;" horiz-adv-x="346" 
d="M39 55v210q0 61 35.5 95.5t98.5 34.5t98.5 -34.5t35.5 -95.5v-210q0 -61 -35.5 -95.5t-98.5 -34.5t-98.5 34.5t-35.5 95.5zM213 50v220q3 28 -18.5 39.5t-43 0t-18.5 -39.5v-220q-3 -28 18.5 -39.5t43 0t18.5 39.5z" />
    <glyph glyph-name="uni2081" unicode="&#x2081;" horiz-adv-x="346" 
d="M243 -65h-94v321h-75v63q44 0 64.5 13.5t33.5 52.5h71v-450z" />
    <glyph glyph-name="uni2082" unicode="&#x2082;" horiz-adv-x="346" 
d="M295 -65h-250v61q0 50 19 85t68 74q45 35 64 61q16 22 16 55q0 44 -38 44q-40 0 -40 -47v-41h-88v39q0 59 34.5 94t95.5 35q60 0 95 -33.5t35 -90.5q0 -47 -25 -84q-27 -39 -92 -93q-24 -20 -36 -34.5t-14 -21t-2 -16.5v-7h158v-80z" />
    <glyph glyph-name="uni2083" unicode="&#x2083;" horiz-adv-x="346" 
d="M169 -75q-130 0 -130 128v26h88v-29q0 -45 40 -45q39 0 39 49v13q0 59 -52 59h-29v82h32q47 0 47 54v11q0 42 -37 42q-38 0 -38 -46v-14h-88v12q0 62 34 95t97 33q61 0 93.5 -31.5t32.5 -90.5v-8q0 -68 -59 -94v-1q61 -24 61 -103v-11q0 -131 -131 -131z" />
    <glyph glyph-name="uni2084" unicode="&#x2084;" horiz-adv-x="346" 
d="M289 -65h-94v73h-179v81l170 296h103v-297h43v-80h-43v-73zM195 257l-93 -169h93v169z" />
    <glyph glyph-name="uni2085" unicode="&#x2085;" horiz-adv-x="346" 
d="M45 53v19h89v-24q0 -43 38 -43q37 0 37 43v80q0 47 -35 47q-39 0 -43 -49h-86l16 259h229v-80h-151l-6 -81q25 31 73 31q47 0 72 -30.5t25 -87.5v-84q0 -62 -33.5 -95t-95.5 -33t-95.5 33t-33.5 95z" />
    <glyph glyph-name="uni2086" unicode="&#x2086;" horiz-adv-x="346" 
d="M42 56v204q0 65 34.5 100t99.5 35q62 0 95.5 -33.5t33.5 -92.5h-87q0 46 -40 46q-44 0 -44 -59v-59q27 34 78 34q45 0 70.5 -31.5t25.5 -87.5v-56q0 -62 -35 -96.5t-98 -34.5t-98 34.5t-35 96.5zM216 49v54q0 48 -40 48q-21 0 -31.5 -13.5t-10.5 -32.5v-56q0 -44 41 -44
t41 44z" />
    <glyph glyph-name="uni2087" unicode="&#x2087;" horiz-adv-x="346" 
d="M173 -65h-100l136 368h-170v82h265v-78z" />
    <glyph glyph-name="uni2088" unicode="&#x2088;" horiz-adv-x="346" 
d="M34 53v8q0 85 61 107v1q-57 24 -57 93v10q0 60 34.5 91.5t100.5 31.5t100.5 -31.5t34.5 -91.5v-10q0 -69 -57 -93v-1q61 -22 61 -107v-8q0 -128 -139 -128t-139 128zM218 255v12q0 48 -45 48t-45 -48v-12q0 -48 45 -48t45 48zM220 60v10q0 57 -47 57t-47 -57v-10
q0 -55 47 -55t47 55z" />
    <glyph glyph-name="uni2089" unicode="&#x2089;" horiz-adv-x="346" 
d="M304 264v-204q0 -65 -34.5 -100t-99.5 -35q-62 0 -95.5 33.5t-33.5 92.5h87q0 -46 40 -46q44 0 44 59v59q-27 -34 -78 -34q-45 0 -70.5 31.5t-25.5 87.5v56q0 62 35 96.5t98 34.5t98 -34.5t35 -96.5zM130 271v-54q0 -48 40 -48q21 0 31.5 13.5t10.5 32.5v56q0 44 -41 44
t-41 -44z" />
    <glyph glyph-name="Euro" unicode="&#x20ac;" 
d="M271 -10q-101 0 -153 52t-52 151v82h-36v65h36v44h-36v66h36v57q0 99 52 151t153 52t152.5 -52t51.5 -151v-7h-132v12q0 76 -69 76q-68 0 -68 -76v-62h195v-66h-195v-44h195v-65h-195v-87q0 -76 68 -76q69 0 69 76v38h132v-33q0 -99 -51.5 -151t-152.5 -52z" />
    <glyph glyph-name="uni20B9" unicode="&#x20b9;" 
d="M216 302l265 -302h-169l-275 302v105h127q52 0 72 8t24 33h-223v106h223q-3 25 -22.5 32.5t-73.5 7.5h-127v106h437v-106h-112q22 -16 32 -40h80v-106h-75q-7 -67 -64 -106q-56 -38 -119 -40z" />
    <glyph glyph-name="uni20BD" unicode="&#x20bd;" 
d="M91 700h186q106 0 157 -47.5t51 -145.5v-22q0 -99 -51 -146.5t-157 -47.5h-46v-58h118v-112h-118v-121h-140v121h-63v112h63v58h-63v122h63v287zM345 485v22q0 38 -16 54.5t-52 16.5h-46v-165h46q36 0 52 17t16 55z" />
    <glyph glyph-name="uni20BF" unicode="&#x20bf;" 
d="M380 366v-1q104 -38 104 -149v-22q0 -136 -137 -163v-86h-79v80h-73v-80h-79v80h-89v122h51v406h-51v122h89v70h79v-70h73v70h79v-79q123 -28 123 -147v-15q0 -100 -90 -138zM272 553h-54v-138h36q77 0 77 59v27q0 52 -59 52zM254 295h-36v-148h54q73 0 73 60v27
q0 32 -21.5 46.5t-69.5 14.5z" />
    <glyph glyph-name="uni2113" unicode="&#x2113;" horiz-adv-x="304" 
d="M210 -9q-159 0 -159 158v551h135v-537q0 -31 11.5 -43.5t39.5 -12.5q25 0 46 7v-110q-32 -13 -73 -13z" />
    <glyph glyph-name="uni2116" unicode="&#x2116;" horiz-adv-x="831" 
d="M180 0h-125v700h173l91 -382v382h124v-700h-131l-132 498v-498zM516 422v107q0 63 36 97t103 34q66 0 102 -34t36 -97v-107q0 -64 -36 -98t-102 -34t-102.5 34.5t-36.5 97.5zM655 375q19 0 29.5 10.5t10.5 28.5v122q0 40 -40 40t-40 -40v-122q0 -39 40 -39zM793 169h-277
v63h277v-63z" />
    <glyph glyph-name="uni2117" unicode="&#x2117;" horiz-adv-x="760" 
d="M629 92q-99 -102 -249 -102t-249 102q-99 104 -99 258q0 155 99 257q99 103 249 103t249 -103q99 -102 99 -257q0 -154 -99 -258zM181 141q78 -81 199 -81q122 0 198 81q78 83 78 209q0 127 -78 208q-76 82 -198 82q-121 0 -199 -82q-77 -82 -77 -208t77 -209zM358 131
h-75v429h117q119 0 119 -117v-23q0 -118 -119 -118h-42v-171zM358 494v-126h42q44 0 44 52v23q0 51 -44 51h-42z" />
    <glyph glyph-name="uni2120" unicode="&#x2120;" horiz-adv-x="755" 
d="M197 554q51 -17 69.5 -42.5t18.5 -66.5q0 -110 -126 -110q-130 0 -130 102v15h85v-14q0 -37 44 -37q40 0 40 40q0 18 -15 28.5t-61 25.5q-90 29 -90 106q0 51 32 80t91 29q124 0 124 -106h-84q0 39 -38 39q-16 0 -26 -9.5t-10 -27.5q0 -17 14 -26.5t62 -25.5zM522 478
l59 222h127v-356h-84v263l-72 -263h-66l-72 263v-263h-78v356h125z" />
    <glyph glyph-name="trademark" unicode="&#x2122;" horiz-adv-x="765" 
d="M111 622h-93v78h275v-78h-93v-278h-89v278zM532 478l59 222h127v-356h-84v263l-72 -263h-66l-72 263v-263h-78v356h125z" />
    <glyph glyph-name="uni2126" unicode="&#x2126;" horiz-adv-x="512" 
d="M236 0h-192v122h102v2q-55 48 -78.5 99t-23.5 128v157q0 96 55 149t157 53t157 -53t55 -149v-157q0 -77 -23.5 -128t-78.5 -99v-2h102v-122h-192v122q30 38 41 77t11 92v222q0 75 -72 75t-72 -75v-222q0 -56 10 -92q11 -37 42 -77v-122z" />
    <glyph glyph-name="estimated" unicode="&#x212e;" horiz-adv-x="862" 
d="M434 -10q-157 0 -269 106q-111 107 -111 254q0 148 111 254q112 106 269 106q158 0 268 -106q112 -106 112 -254v-9h-613q-8 0 -8 -7v-193q0 -5 11 -21q36 -52 97.5 -80t134.5 -28q146 0 244 120h56q-54 -67 -133.5 -104.5t-168.5 -37.5zM201 361h469q7 0 7 7v196
q0 9 -12 22q-42 49 -102 75.5t-127 26.5q-126 0 -232 -106q-11 -11 -11 -22v-192q0 -7 8 -7z" />
    <glyph glyph-name="uni2153" unicode="&#x2153;" horiz-adv-x="810" 
d="M243 256h-94v321h-75v63q44 0 64.5 13.5t33.5 52.5h71v-450zM277 0h-88l344 700h89zM633 -10q-130 0 -130 128v26h88v-29q0 -45 40 -45q39 0 39 49v13q0 59 -52 59h-29v82h32q47 0 47 54v11q0 42 -37 42q-38 0 -38 -46v-14h-88v12q0 62 34 95t97 33q61 0 93.5 -31.5
t32.5 -90.5v-8q0 -68 -59 -94v-1q61 -24 61 -103v-11q0 -131 -131 -131z" />
    <glyph glyph-name="uni2154" unicode="&#x2154;" horiz-adv-x="810" 
d="M295 256h-250v61q0 50 19 85t68 74q45 35 64 61q16 22 16 55q0 44 -38 44q-40 0 -40 -47v-41h-88v39q0 59 34.5 94t95.5 35q60 0 95 -33.5t35 -90.5q0 -47 -25 -84q-27 -39 -92 -93q-24 -20 -36 -34.5t-14 -21t-2 -16.5v-7h158v-80zM277 0h-88l344 700h89zM633 -10
q-130 0 -130 128v26h88v-29q0 -45 40 -45q39 0 39 49v13q0 59 -52 59h-29v82h32q47 0 47 54v11q0 42 -37 42q-38 0 -38 -46v-14h-88v12q0 62 34 95t97 33q61 0 93.5 -31.5t32.5 -90.5v-8q0 -68 -59 -94v-1q61 -24 61 -103v-11q0 -131 -131 -131z" />
    <glyph glyph-name="oneeighth" unicode="&#x215b;" horiz-adv-x="810" 
d="M243 256h-94v321h-75v63q44 0 64.5 13.5t33.5 52.5h71v-450zM277 0h-88l344 700h89zM498 118v8q0 85 61 107v1q-57 24 -57 93v10q0 60 34.5 91.5t100.5 31.5t100.5 -31.5t34.5 -91.5v-10q0 -69 -57 -93v-1q61 -22 61 -107v-8q0 -128 -139 -128t-139 128zM682 320v12
q0 48 -45 48t-45 -48v-12q0 -48 45 -48t45 48zM684 125v10q0 57 -47 57t-47 -57v-10q0 -55 47 -55t47 55z" />
    <glyph glyph-name="threeeighths" unicode="&#x215c;" horiz-adv-x="810" 
d="M169 246q-130 0 -130 128v26h88v-29q0 -45 40 -45q39 0 39 49v13q0 59 -52 59h-29v82h32q47 0 47 54v11q0 42 -37 42q-38 0 -38 -46v-14h-88v12q0 62 34 95t97 33q61 0 93.5 -31.5t32.5 -90.5v-8q0 -68 -59 -94v-1q61 -24 61 -103v-11q0 -131 -131 -131zM277 0h-88
l344 700h89zM498 118v8q0 85 61 107v1q-57 24 -57 93v10q0 60 34.5 91.5t100.5 31.5t100.5 -31.5t34.5 -91.5v-10q0 -69 -57 -93v-1q61 -22 61 -107v-8q0 -128 -139 -128t-139 128zM682 320v12q0 48 -45 48t-45 -48v-12q0 -48 45 -48t45 48zM684 125v10q0 57 -47 57t-47 -57
v-10q0 -55 47 -55t47 55z" />
    <glyph glyph-name="fiveeighths" unicode="&#x215d;" horiz-adv-x="810" 
d="M45 374v19h89v-24q0 -43 38 -43q37 0 37 43v80q0 47 -35 47q-39 0 -43 -49h-86l16 259h229v-80h-151l-6 -81q25 31 73 31q47 0 72 -30.5t25 -87.5v-84q0 -62 -33.5 -95t-95.5 -33t-95.5 33t-33.5 95zM277 0h-88l344 700h89zM498 118v8q0 85 61 107v1q-57 24 -57 93v10
q0 60 34.5 91.5t100.5 31.5t100.5 -31.5t34.5 -91.5v-10q0 -69 -57 -93v-1q61 -22 61 -107v-8q0 -128 -139 -128t-139 128zM682 320v12q0 48 -45 48t-45 -48v-12q0 -48 45 -48t45 48zM684 125v10q0 57 -47 57t-47 -57v-10q0 -55 47 -55t47 55z" />
    <glyph glyph-name="seveneighths" unicode="&#x215e;" horiz-adv-x="810" 
d="M173 256h-100l136 368h-170v82h265v-78zM277 0h-88l344 700h89zM498 118v8q0 85 61 107v1q-57 24 -57 93v10q0 60 34.5 91.5t100.5 31.5t100.5 -31.5t34.5 -91.5v-10q0 -69 -57 -93v-1q61 -22 61 -107v-8q0 -128 -139 -128t-139 128zM682 320v12q0 48 -45 48t-45 -48v-12
q0 -48 45 -48t45 48zM684 125v10q0 57 -47 57t-47 -57v-10q0 -55 47 -55t47 55z" />
    <glyph glyph-name="partialdiff" unicode="&#x2202;" horiz-adv-x="523" 
d="M243 -10q-103 0 -157 48.5t-54 137.5q0 18 1 23l9 88q18 177 161 177q95 0 132 -66l11 100q2 18 2 20q0 36 -17.5 53t-57.5 17q-69 0 -75 -66h-132q5 89 60 138.5t150 49.5q211 0 211 -187q0 -3 -2 -29l-27 -308q-8 -94 -63.5 -145t-151.5 -51zM318 186l7 80q7 76 -69 76
q-65 0 -74 -75l-8 -77v-9q0 -33 18 -51t51 -18t52.5 20t22.5 54z" />
    <glyph glyph-name="emptyset" unicode="&#x2205;" horiz-adv-x="699" 
d="M165 79l-56 -59l-75 68l60 64q-58 82 -58 193q0 139 89 231q90 92 224 92q103 0 185 -57l56 59l75 -68l-61 -64q58 -79 58 -193q0 -139 -90 -231q-89 -92 -223 -92q-103 0 -184 57zM175 236l282 296q-50 32 -108 32q-84 0 -140 -62t-56 -157q0 -64 22 -109zM349 126
q85 0 141 62t56 157q0 62 -22 109l-282 -296q49 -32 107 -32z" />
    <glyph glyph-name="uni2206" unicode="&#x2206;" horiz-adv-x="519" 
d="M165 700h189l145 -700h-479zM254 560l-79 -440h159z" />
    <glyph glyph-name="product" unicode="&#x220f;" horiz-adv-x="592" 
d="M203 -155h-140v855h466v-855h-140v733h-186v-733z" />
    <glyph glyph-name="summation" unicode="&#x2211;" horiz-adv-x="532" 
d="M496 -155h-459v125l232 304l-232 303v123h459v-122h-292l227 -305l-227 -306h292v-122z" />
    <glyph glyph-name="minus" unicode="&#x2212;" 
d="M474 250h-440v100h440v-100z" />
    <glyph glyph-name="uni2215" unicode="&#x2215;" 
d="M128 0h-106l358 700h106z" />
    <glyph glyph-name="uni2219" unicode="&#x2219;" horiz-adv-x="279" 
d="M221 269h-163v163h163v-163z" />
    <glyph glyph-name="radical" unicode="&#x221a;" horiz-adv-x="611" 
d="M357 -65h-141l-106 367h-85v96h192l82 -303l183 605h107z" />
    <glyph glyph-name="infinity" unicode="&#x221e;" horiz-adv-x="818" 
d="M226 85q-94 0 -144 63q-48 63 -48 153q0 91 48 152q48 62 141 62q59 0 100.5 -28t79.5 -89h5q75 117 185 117q95 0 143 -63t48 -153q0 -91 -48 -152q-48 -62 -141 -62q-58 0 -100.5 28t-79.5 89h-7q-71 -117 -182 -117zM233 188q40 0 64 24q24 26 57 94q-40 67 -61 86
q-22 22 -60 22q-41 0 -66 -32t-25 -81t25 -81t66 -32zM585 186q41 0 66 32t25 81t-25 81.5t-66 32.5q-36 0 -59 -23q-21 -21 -64 -96q44 -67 64 -87q22 -21 59 -21z" />
    <glyph glyph-name="integral" unicode="&#x222b;" 
d="M152 -170q-50 0 -83 13v123q26 -14 57 -14q57 0 57 63v554q0 87 44.5 134t125.5 47q51 0 84 -13v-122q-22 13 -57 13q-57 0 -57 -64v-554q0 -87 -44.5 -133.5t-126.5 -46.5z" />
    <glyph glyph-name="approxequal" unicode="&#x2248;" 
d="M88 316l-73 55q41 69 74.5 98t79.5 29q41 0 94 -37q53 -35 75 -35q20 0 36 15t46 61l73 -55q-41 -69 -74.5 -98t-79.5 -29q-42 0 -94 37q-50 35 -75 35q-20 0 -36 -15t-46 -61zM88 98l-73 55q41 69 74.5 98t79.5 29q41 0 94 -37q53 -35 75 -35q20 0 36 15t46 61l73 -55
q-41 -69 -74.5 -98t-79.5 -29q-42 0 -94 37q-50 35 -75 35q-20 0 -36 -15t-46 -61z" />
    <glyph glyph-name="notequal" unicode="&#x2260;" 
d="M146 33h-99l67 114h-67v100h126l63 106h-189v100h248l67 114h99l-67 -114h67v-100h-126l-63 -106h189v-100h-248z" />
    <glyph glyph-name="lessequal" unicode="&#x2264;" 
d="M443 276v-102l-388 136v94l388 136v-102l-251 -81zM443 51h-388v99h388v-99z" />
    <glyph glyph-name="greaterequal" unicode="&#x2265;" 
d="M452 310l-388 -136v102l251 81l-251 81v102l388 -136v-94zM452 51h-388v99h388v-99z" />
    <glyph glyph-name="lozenge" unicode="&#x25ca;" 
d="M276 -10h-44l-207 360l207 360h44l207 -360zM140 350l114 -199l114 199l-114 198z" />
    <glyph glyph-name="uniE0FF" unicode="&#xe0ff;" horiz-adv-x="500" 
 />
    <glyph glyph-name="uniEFFD" unicode="&#xeffd;" horiz-adv-x="500" 
 />
    <glyph glyph-name="uniF000" unicode="&#xf000;" horiz-adv-x="500" 
 />
    <glyph glyph-name="uniF8FF" unicode="&#xf8ff;" horiz-adv-x="656" 
d="M275 494h59v116h156v-116h132v-152h-132v-60q0 -110 -63 -174t-165 -64q-101 0 -165 62q-63 63 -63 163t65 162q65 63 176 63zM334 281v61h-60q-39 0 -61 -20q-21 -20 -21 -52t20 -52q23 -18 51 -20t51 21.5t20 61.5z" />
    <glyph glyph-name="_1" horiz-adv-x="0" 
 />
    <glyph glyph-name="CR.001" horiz-adv-x="333" 
 />
    <glyph glyph-name="NULL" horiz-adv-x="0" 
 />
    <glyph glyph-name="uni00A40301" horiz-adv-x="341" 
d="M250 758h-111l89 135h158zM82 -5q-35 0 -59 4v123q22 -5 43 -5q45 0 65 17t20 55v511h140v-507q0 -103 -50 -150.5t-159 -47.5z" />
    <glyph glyph-name="i.loclTRK" horiz-adv-x="241" 
d="M188 578h-135v135h135v-135zM188 0h-135v510h135v-510z" />
    <glyph glyph-name="germandbls.calt" horiz-adv-x="525" 
d="M479 582l-98 -169q111 -35 111 -180v-35q0 -96 -53 -147t-155 -51h-35v122h35q35 0 51.5 14t16.5 48v58q0 34 -16 48t-52 14h-35v117l84 157h-138v-578h-140v700h424v-118z" />
    <glyph glyph-name="zero.tf" 
d="M43 192v316q0 96 55 149t157 53t157 -53t55 -149v-316q0 -96 -55 -149t-157 -53t-157 53t-55 149zM327 187v326q0 75 -72 75t-72 -75v-326q0 -75 72 -75t72 75z" />
    <glyph glyph-name="one.tf" 
d="M382 0h-140v518h-146v98q94 0 130 16q39 17 61 68h95v-700z" />
    <glyph glyph-name="two.tf" 
d="M450 0h-403v92q0 69 32 127q31 56 117 124q77 60 102 92q27 35 27 80q0 35 -19 54t-53 19q-72 0 -72 -79v-56h-132v57q0 94 54 147t154 53q98 0 153 -51.5t55 -138.5q0 -72 -42 -130q-41 -58 -147 -143q-54 -44 -72.5 -69t-18.5 -51v-5h265v-122z" />
    <glyph glyph-name="three.tf" 
d="M43 187v41h132v-40q0 -76 72 -76q37 0 55 18.5t18 60.5v16q0 52 -21 74t-71 22h-47v122h51q43 0 63.5 19t20.5 63v12q0 33 -18.5 51t-51.5 18q-67 0 -67 -65v-28h-132v16q0 97 53 148t153 51q98 0 150.5 -49t52.5 -138v-12q0 -47 -25.5 -84.5t-73.5 -54.5v-2
q102 -34 102 -163v-16q0 -201 -208 -201t-208 197z" />
    <glyph glyph-name="four.tf" 
d="M425 0h-140v116h-267v121l254 463h153v-462h65v-122h-65v-116zM285 496l-140 -258h140v258z" />
    <glyph glyph-name="five.tf" 
d="M256 -10q-103 0 -156 51t-53 149v42h132v-45q0 -75 73 -75q72 0 72 75v109q0 77 -68 77q-71 0 -77 -74h-132l26 401h368v-122h-244l-11 -137q40 54 123 54q155 0 155 -183v-122q0 -97 -53 -148.5t-155 -51.5z" />
    <glyph glyph-name="six.tf" 
d="M45 192v309q0 209 213 209q99 0 153.5 -51.5t54.5 -141.5h-132q0 71 -72 71q-40 0 -58.5 -21.5t-18.5 -71.5v-98q42 64 129 64q155 0 155 -182v-87q0 -96 -55 -149t-157 -53t-157 53t-55 149zM329 185v77q0 77 -72 77t-72 -74v-80q0 -73 72 -73t72 73z" />
    <glyph glyph-name="seven.tf" 
d="M246 0h-150l225 578h-278v122h419v-116z" />
    <glyph glyph-name="eight.tf" 
d="M36 191v14q0 127 97 163v2q-42 17 -66.5 55t-24.5 84v14q0 91 53 139t159 48t159 -48t53 -139v-14q0 -46 -24.5 -84t-66.5 -55v-2q97 -36 97 -163v-14q0 -201 -218 -201t-218 201zM329 500v12q0 76 -75 76t-75 -76v-12q0 -75 75 -75t75 75zM333 201v16q0 86 -79 86
t-79 -86v-16q0 -49 18 -69t61 -20t61 20t18 69z" />
    <glyph glyph-name="nine.tf" 
d="M463 506v-309q0 -209 -213 -209q-99 0 -153.5 51.5t-54.5 141.5h132q0 -71 72 -71q40 0 58.5 21.5t18.5 71.5v98q-42 -64 -129 -64q-155 0 -155 182v87q0 96 55 149t157 53t157 -53t55 -149zM179 513v-77q0 -77 72 -77t72 74v80q0 73 -72 73t-72 -73z" />
    <glyph glyph-name="zero.dnom" horiz-adv-x="346" 
d="M39 120v210q0 61 35.5 95.5t98.5 34.5t98.5 -34.5t35.5 -95.5v-210q0 -61 -35.5 -95.5t-98.5 -34.5t-98.5 34.5t-35.5 95.5zM213 115v220q3 28 -18.5 39.5t-43 0t-18.5 -39.5v-220q-3 -28 18.5 -39.5t43 0t18.5 39.5z" />
    <glyph glyph-name="one.dnom" horiz-adv-x="346" 
d="M243 0h-94v321h-75v63q44 0 64.5 13.5t33.5 52.5h71v-450z" />
    <glyph glyph-name="two.dnom" horiz-adv-x="346" 
d="M295 0h-250v61q0 50 19 85t68 74q45 35 64 61q16 22 16 55q0 44 -38 44q-40 0 -40 -47v-41h-88v39q0 59 34.5 94t95.5 35q60 0 95 -33.5t35 -90.5q0 -47 -25 -84q-27 -39 -92 -93q-24 -20 -36 -34.5t-14 -21t-2 -16.5v-7h158v-80z" />
    <glyph glyph-name="three.dnom" horiz-adv-x="346" 
d="M169 -10q-130 0 -130 128v26h88v-29q0 -45 40 -45q39 0 39 49v13q0 59 -52 59h-29v82h32q47 0 47 54v11q0 42 -37 42q-38 0 -38 -46v-14h-88v12q0 62 34 95t97 33q61 0 93.5 -31.5t32.5 -90.5v-8q0 -68 -59 -94v-1q61 -24 61 -103v-11q0 -131 -131 -131z" />
    <glyph glyph-name="four.dnom" horiz-adv-x="346" 
d="M289 0h-94v73h-179v81l170 296h103v-297h43v-80h-43v-73zM195 322l-93 -169h93v169z" />
    <glyph glyph-name="five.dnom" horiz-adv-x="346" 
d="M45 118v19h89v-24q0 -43 38 -43q37 0 37 43v80q0 47 -35 47q-39 0 -43 -49h-86l16 259h229v-80h-151l-6 -81q25 31 73 31q47 0 72 -30.5t25 -87.5v-84q0 -62 -33.5 -95t-95.5 -33t-95.5 33t-33.5 95z" />
    <glyph glyph-name="six.dnom" horiz-adv-x="346" 
d="M42 121v204q0 65 34.5 100t99.5 35q62 0 95.5 -33.5t33.5 -92.5h-87q0 46 -40 46q-44 0 -44 -59v-59q27 34 78 34q45 0 70.5 -31.5t25.5 -87.5v-56q0 -62 -35 -96.5t-98 -34.5t-98 34.5t-35 96.5zM216 114v54q0 48 -40 48q-21 0 -31.5 -13.5t-10.5 -32.5v-56
q0 -44 41 -44t41 44z" />
    <glyph glyph-name="seven.dnom" horiz-adv-x="346" 
d="M173 0h-100l136 368h-170v82h265v-78z" />
    <glyph glyph-name="eight.dnom" horiz-adv-x="346" 
d="M34 118v8q0 85 61 107v1q-57 24 -57 93v10q0 60 34.5 91.5t100.5 31.5t100.5 -31.5t34.5 -91.5v-10q0 -69 -57 -93v-1q61 -22 61 -107v-8q0 -128 -139 -128t-139 128zM218 320v12q0 48 -45 48t-45 -48v-12q0 -48 45 -48t45 48zM220 125v10q0 57 -47 57t-47 -57v-10
q0 -55 47 -55t47 55z" />
    <glyph glyph-name="nine.dnom" horiz-adv-x="346" 
d="M304 329v-204q0 -65 -34.5 -100t-99.5 -35q-62 0 -95.5 33.5t-33.5 92.5h87q0 -46 40 -46q44 0 44 59v59q-27 -34 -78 -34q-45 0 -70.5 31.5t-25.5 87.5v56q0 62 35 96.5t98 34.5t98 -34.5t35 -96.5zM130 336v-54q0 -48 40 -48q21 0 31.5 13.5t10.5 32.5v56q0 44 -41 44
t-41 -44z" />
    <glyph glyph-name="zero.numr" horiz-adv-x="346" 
d="M39 376v210q0 61 35.5 95.5t98.5 34.5t98.5 -34.5t35.5 -95.5v-210q0 -61 -35.5 -95.5t-98.5 -34.5t-98.5 34.5t-35.5 95.5zM213 371v220q3 28 -18.5 39.5t-43 0t-18.5 -39.5v-220q-3 -28 18.5 -39.5t43 0t18.5 39.5z" />
    <glyph glyph-name="one.numr" horiz-adv-x="346" 
d="M243 256h-94v321h-75v63q44 0 64.5 13.5t33.5 52.5h71v-450z" />
    <glyph glyph-name="two.numr" horiz-adv-x="346" 
d="M295 256h-250v61q0 50 19 85t68 74q45 35 64 61q16 22 16 55q0 44 -38 44q-40 0 -40 -47v-41h-88v39q0 59 34.5 94t95.5 35q60 0 95 -33.5t35 -90.5q0 -47 -25 -84q-27 -39 -92 -93q-24 -20 -36 -34.5t-14 -21t-2 -16.5v-7h158v-80z" />
    <glyph glyph-name="three.numr" horiz-adv-x="346" 
d="M169 246q-130 0 -130 128v26h88v-29q0 -45 40 -45q39 0 39 49v13q0 59 -52 59h-29v82h32q47 0 47 54v11q0 42 -37 42q-38 0 -38 -46v-14h-88v12q0 62 34 95t97 33q61 0 93.5 -31.5t32.5 -90.5v-8q0 -68 -59 -94v-1q61 -24 61 -103v-11q0 -131 -131 -131z" />
    <glyph glyph-name="four.numr" horiz-adv-x="346" 
d="M289 256h-94v73h-179v81l170 296h103v-297h43v-80h-43v-73zM195 578l-93 -169h93v169z" />
    <glyph glyph-name="five.numr" horiz-adv-x="346" 
d="M45 374v19h89v-24q0 -43 38 -43q37 0 37 43v80q0 47 -35 47q-39 0 -43 -49h-86l16 259h229v-80h-151l-6 -81q25 31 73 31q47 0 72 -30.5t25 -87.5v-84q0 -62 -33.5 -95t-95.5 -33t-95.5 33t-33.5 95z" />
    <glyph glyph-name="six.numr" horiz-adv-x="346" 
d="M42 377v204q0 65 34.5 100t99.5 35q62 0 95.5 -33.5t33.5 -92.5h-87q0 46 -40 46q-44 0 -44 -59v-59q27 34 78 34q45 0 70.5 -31.5t25.5 -87.5v-56q0 -62 -35 -96.5t-98 -34.5t-98 34.5t-35 96.5zM216 370v54q0 48 -40 48q-21 0 -31.5 -13.5t-10.5 -32.5v-56
q0 -44 41 -44t41 44z" />
    <glyph glyph-name="seven.numr" horiz-adv-x="346" 
d="M173 256h-100l136 368h-170v82h265v-78z" />
    <glyph glyph-name="eight.numr" horiz-adv-x="346" 
d="M34 374v8q0 85 61 107v1q-57 24 -57 93v10q0 60 34.5 91.5t100.5 31.5t100.5 -31.5t34.5 -91.5v-10q0 -69 -57 -93v-1q61 -22 61 -107v-8q0 -128 -139 -128t-139 128zM218 576v12q0 48 -45 48t-45 -48v-12q0 -48 45 -48t45 48zM220 381v10q0 57 -47 57t-47 -57v-10
q0 -55 47 -55t47 55z" />
    <glyph glyph-name="nine.numr" horiz-adv-x="346" 
d="M304 585v-204q0 -65 -34.5 -100t-99.5 -35q-62 0 -95.5 33.5t-33.5 92.5h87q0 -46 40 -46q44 0 44 59v59q-27 -34 -78 -34q-45 0 -70.5 31.5t-25.5 87.5v56q0 62 35 96.5t98 34.5t98 -34.5t35 -96.5zM130 592v-54q0 -48 40 -48q21 0 31.5 13.5t10.5 32.5v56q0 44 -41 44
t-41 -44z" />
    <glyph glyph-name="caroncomb.alt" horiz-adv-x="0" 
d="M6 438h-57l37 132h-51v130h130v-116z" />
    <glyph glyph-name="caron.alt" horiz-adv-x="635" 
d="M324 438h-57l37 132h-51v130h130v-116z" />
    </font>
</defs>
</svg>
